%TF.GenerationSoftware,KiCad,Pcbnew,(5.1.10)-1*%
%TF.CreationDate,2022-02-22T06:58:16+01:00*%
%TF.ProjectId,Gide,47696465-2e6b-4696-9361-645f70636258,rev?*%
%TF.SameCoordinates,Original*%
%TF.FileFunction,Copper,L1,Top*%
%TF.FilePolarity,Positive*%
%FSLAX46Y46*%
G04 Gerber Fmt 4.6, Leading zero omitted, Abs format (unit mm)*
G04 Created by KiCad (PCBNEW (5.1.10)-1) date 2022-02-22 06:58:16*
%MOMM*%
%LPD*%
G01*
G04 APERTURE LIST*
%TA.AperFunction,ComponentPad*%
%ADD10O,1.700000X1.700000*%
%TD*%
%TA.AperFunction,ComponentPad*%
%ADD11R,1.700000X1.700000*%
%TD*%
%TA.AperFunction,ComponentPad*%
%ADD12C,1.600000*%
%TD*%
%TA.AperFunction,ComponentPad*%
%ADD13O,2.400000X1.600000*%
%TD*%
%TA.AperFunction,ComponentPad*%
%ADD14R,2.400000X1.600000*%
%TD*%
%TA.AperFunction,ComponentPad*%
%ADD15C,1.400000*%
%TD*%
%TA.AperFunction,ComponentPad*%
%ADD16C,1.610000*%
%TD*%
%TA.AperFunction,ComponentPad*%
%ADD17O,1.600000X1.600000*%
%TD*%
%TA.AperFunction,ComponentPad*%
%ADD18R,1.600000X1.600000*%
%TD*%
%TA.AperFunction,ComponentPad*%
%ADD19C,1.800000*%
%TD*%
%TA.AperFunction,ComponentPad*%
%ADD20R,1.800000X1.800000*%
%TD*%
%TA.AperFunction,ComponentPad*%
%ADD21C,1.200000*%
%TD*%
%TA.AperFunction,ComponentPad*%
%ADD22R,1.200000X1.200000*%
%TD*%
%TA.AperFunction,ViaPad*%
%ADD23C,0.800000*%
%TD*%
%TA.AperFunction,Conductor*%
%ADD24C,0.250000*%
%TD*%
G04 APERTURE END LIST*
D10*
%TO.P,J1002,40*%
%TO.N,GND*%
X184785000Y-130175000D03*
%TO.P,J1002,39*%
%TO.N,Net-(J1002-Pad39)*%
X182245000Y-130175000D03*
%TO.P,J1002,38*%
%TO.N,Net-(J1002-Pad38)*%
X184785000Y-127635000D03*
%TO.P,J1002,37*%
%TO.N,Net-(J1002-Pad37)*%
X182245000Y-127635000D03*
%TO.P,J1002,36*%
%TO.N,Net-(J1002-Pad36)*%
X184785000Y-125095000D03*
%TO.P,J1002,35*%
%TO.N,Net-(J1002-Pad35)*%
X182245000Y-125095000D03*
%TO.P,J1002,34*%
%TO.N,N/C*%
X184785000Y-122555000D03*
%TO.P,J1002,33*%
%TO.N,Net-(J1002-Pad33)*%
X182245000Y-122555000D03*
%TO.P,J1002,32*%
%TO.N,N/C*%
X184785000Y-120015000D03*
%TO.P,J1002,31*%
X182245000Y-120015000D03*
%TO.P,J1002,30*%
X184785000Y-117475000D03*
%TO.P,J1002,29*%
X182245000Y-117475000D03*
%TO.P,J1002,28*%
%TO.N,Net-(J1002-Pad28)*%
X184785000Y-114935000D03*
%TO.P,J1002,27*%
%TO.N,N/C*%
X182245000Y-114935000D03*
%TO.P,J1002,26*%
%TO.N,GND*%
X184785000Y-112395000D03*
%TO.P,J1002,25*%
%TO.N,Net-(IC1001-Pad12)*%
X182245000Y-112395000D03*
%TO.P,J1002,24*%
%TO.N,GND*%
X184785000Y-109855000D03*
%TO.P,J1002,23*%
%TO.N,Net-(IC1001-Pad16)*%
X182245000Y-109855000D03*
%TO.P,J1002,22*%
%TO.N,GND*%
X184785000Y-107315000D03*
%TO.P,J1002,21*%
%TO.N,N/C*%
X182245000Y-107315000D03*
%TO.P,J1002,20*%
%TO.N,Net-(J1002-Pad20)*%
X184785000Y-104775000D03*
%TO.P,J1002,19*%
%TO.N,GND*%
X182245000Y-104775000D03*
%TO.P,J1002,18*%
%TO.N,Net-(IC1002-Pad11)*%
X184785000Y-102235000D03*
%TO.P,J1002,17*%
%TO.N,Net-(IC1003-Pad4)*%
X182245000Y-102235000D03*
%TO.P,J1002,16*%
%TO.N,Net-(IC1002-Pad10)*%
X184785000Y-99695000D03*
%TO.P,J1002,15*%
%TO.N,Net-(IC1003-Pad5)*%
X182245000Y-99695000D03*
%TO.P,J1002,14*%
%TO.N,Net-(IC1002-Pad9)*%
X184785000Y-97155000D03*
%TO.P,J1002,13*%
%TO.N,Net-(IC1003-Pad6)*%
X182245000Y-97155000D03*
%TO.P,J1002,12*%
%TO.N,Net-(IC1002-Pad8)*%
X184785000Y-94615000D03*
%TO.P,J1002,11*%
%TO.N,Net-(IC1003-Pad7)*%
X182245000Y-94615000D03*
%TO.P,J1002,10*%
%TO.N,Net-(IC1002-Pad7)*%
X184785000Y-92075000D03*
%TO.P,J1002,9*%
%TO.N,Net-(IC1003-Pad8)*%
X182245000Y-92075000D03*
%TO.P,J1002,8*%
%TO.N,Net-(IC1002-Pad6)*%
X184785000Y-89535000D03*
%TO.P,J1002,7*%
%TO.N,Net-(IC1003-Pad9)*%
X182245000Y-89535000D03*
%TO.P,J1002,6*%
%TO.N,Net-(IC1002-Pad5)*%
X184785000Y-86995000D03*
%TO.P,J1002,5*%
%TO.N,Net-(IC1003-Pad10)*%
X182245000Y-86995000D03*
%TO.P,J1002,4*%
%TO.N,Net-(IC1002-Pad4)*%
X184785000Y-84455000D03*
%TO.P,J1002,3*%
%TO.N,Net-(IC1003-Pad11)*%
X182245000Y-84455000D03*
%TO.P,J1002,2*%
%TO.N,GND*%
X184785000Y-81915000D03*
D11*
%TO.P,J1002,1*%
%TO.N,Net-(J1002-Pad1)*%
X182245000Y-81915000D03*
%TD*%
D12*
%TO.P,C1003,2*%
%TO.N,GND*%
X179070000Y-139065000D03*
%TO.P,C1003,1*%
%TO.N,+5P*%
X179070000Y-136565000D03*
%TD*%
D13*
%TO.P,IC1003,24*%
%TO.N,+5P*%
X161290000Y-106680000D03*
%TO.P,IC1003,12*%
%TO.N,GND*%
X176530000Y-78740000D03*
%TO.P,IC1003,23*%
%TO.N,Net-(IC1001-Pad18)*%
X161290000Y-104140000D03*
%TO.P,IC1003,11*%
%TO.N,Net-(IC1003-Pad11)*%
X176530000Y-81280000D03*
%TO.P,IC1003,22*%
%TO.N,Net-(IC1001-Pad15)*%
X161290000Y-101600000D03*
%TO.P,IC1003,10*%
%TO.N,Net-(IC1003-Pad10)*%
X176530000Y-83820000D03*
%TO.P,IC1003,21*%
%TO.N,Net-(IC1001-Pad14)*%
X161290000Y-99060000D03*
%TO.P,IC1003,9*%
%TO.N,Net-(IC1003-Pad9)*%
X176530000Y-86360000D03*
%TO.P,IC1003,20*%
%TO.N,Net-(IC1002-Pad20)*%
X161290000Y-96520000D03*
%TO.P,IC1003,8*%
%TO.N,Net-(IC1003-Pad8)*%
X176530000Y-88900000D03*
%TO.P,IC1003,19*%
%TO.N,Net-(IC1002-Pad19)*%
X161290000Y-93980000D03*
%TO.P,IC1003,7*%
%TO.N,Net-(IC1003-Pad7)*%
X176530000Y-91440000D03*
%TO.P,IC1003,18*%
%TO.N,Net-(IC1002-Pad18)*%
X161290000Y-91440000D03*
%TO.P,IC1003,6*%
%TO.N,Net-(IC1003-Pad6)*%
X176530000Y-93980000D03*
%TO.P,IC1003,17*%
%TO.N,Net-(IC1002-Pad17)*%
X161290000Y-88900000D03*
%TO.P,IC1003,5*%
%TO.N,Net-(IC1003-Pad5)*%
X176530000Y-96520000D03*
%TO.P,IC1003,16*%
%TO.N,Net-(IC1002-Pad16)*%
X161290000Y-86360000D03*
%TO.P,IC1003,4*%
%TO.N,Net-(IC1003-Pad4)*%
X176530000Y-99060000D03*
%TO.P,IC1003,15*%
%TO.N,Net-(IC1002-Pad15)*%
X161290000Y-83820000D03*
%TO.P,IC1003,3*%
%TO.N,Net-(IC1001-Pad16)*%
X176530000Y-101600000D03*
%TO.P,IC1003,14*%
%TO.N,Net-(IC1002-Pad14)*%
X161290000Y-81280000D03*
%TO.P,IC1003,2*%
%TO.N,GND*%
X176530000Y-104140000D03*
%TO.P,IC1003,13*%
%TO.N,Net-(IC1002-Pad13)*%
X161290000Y-78740000D03*
D14*
%TO.P,IC1003,1*%
%TO.N,GND*%
X176530000Y-106680000D03*
%TD*%
D13*
%TO.P,IC1002,24*%
%TO.N,+5P*%
X160655000Y-139065000D03*
%TO.P,IC1002,12*%
%TO.N,GND*%
X175895000Y-111125000D03*
%TO.P,IC1002,23*%
X160655000Y-136525000D03*
%TO.P,IC1002,11*%
%TO.N,Net-(IC1002-Pad11)*%
X175895000Y-113665000D03*
%TO.P,IC1002,22*%
%TO.N,GND*%
X160655000Y-133985000D03*
%TO.P,IC1002,10*%
%TO.N,Net-(IC1002-Pad10)*%
X175895000Y-116205000D03*
%TO.P,IC1002,21*%
%TO.N,Net-(IC1001-Pad17)*%
X160655000Y-131445000D03*
%TO.P,IC1002,9*%
%TO.N,Net-(IC1002-Pad9)*%
X175895000Y-118745000D03*
%TO.P,IC1002,20*%
%TO.N,Net-(IC1002-Pad20)*%
X160655000Y-128905000D03*
%TO.P,IC1002,8*%
%TO.N,Net-(IC1002-Pad8)*%
X175895000Y-121285000D03*
%TO.P,IC1002,19*%
%TO.N,Net-(IC1002-Pad19)*%
X160655000Y-126365000D03*
%TO.P,IC1002,7*%
%TO.N,Net-(IC1002-Pad7)*%
X175895000Y-123825000D03*
%TO.P,IC1002,18*%
%TO.N,Net-(IC1002-Pad18)*%
X160655000Y-123825000D03*
%TO.P,IC1002,6*%
%TO.N,Net-(IC1002-Pad6)*%
X175895000Y-126365000D03*
%TO.P,IC1002,17*%
%TO.N,Net-(IC1002-Pad17)*%
X160655000Y-121285000D03*
%TO.P,IC1002,5*%
%TO.N,Net-(IC1002-Pad5)*%
X175895000Y-128905000D03*
%TO.P,IC1002,16*%
%TO.N,Net-(IC1002-Pad16)*%
X160655000Y-118745000D03*
%TO.P,IC1002,4*%
%TO.N,Net-(IC1002-Pad4)*%
X175895000Y-131445000D03*
%TO.P,IC1002,15*%
%TO.N,Net-(IC1002-Pad15)*%
X160655000Y-116205000D03*
%TO.P,IC1002,3*%
%TO.N,Net-(IC1001-Pad16)*%
X175895000Y-133985000D03*
%TO.P,IC1002,14*%
%TO.N,Net-(IC1002-Pad14)*%
X160655000Y-113665000D03*
%TO.P,IC1002,2*%
%TO.N,+5P*%
X175895000Y-136525000D03*
%TO.P,IC1002,13*%
%TO.N,Net-(IC1002-Pad13)*%
X160655000Y-111125000D03*
D14*
%TO.P,IC1002,1*%
%TO.N,Net-(IC1001-Pad18)*%
X175895000Y-139065000D03*
%TD*%
D12*
%TO.P,C1008,2*%
%TO.N,GND*%
X179745000Y-78105000D03*
%TO.P,C1008,1*%
%TO.N,+5P*%
X182245000Y-78105000D03*
%TD*%
D15*
%TO.P,X1001,A03*%
%TO.N,Net-(X1001-PadA03)*%
X106273600Y-80010000D03*
%TO.P,X1001,A29*%
%TO.N,+5P*%
X113465000Y-146760000D03*
%TO.P,X1001,A28*%
%TO.N,Net-(X1001-PadA28)*%
X113465000Y-144260000D03*
%TO.P,X1001,A27*%
%TO.N,Net-(X1001-PadA27)*%
X113465000Y-141760000D03*
%TO.P,X1001,A26*%
%TO.N,Net-(X1001-PadA26)*%
X113465000Y-139260000D03*
%TO.P,X1001,A25*%
%TO.N,Net-(X1001-PadA25)*%
X113465000Y-136760000D03*
%TO.P,X1001,A24*%
%TO.N,Net-(X1001-PadA24)*%
X113465000Y-134260000D03*
%TO.P,X1001,A23*%
%TO.N,Net-(X1001-PadA23)*%
X113465000Y-131760000D03*
%TO.P,X1001,A22*%
%TO.N,Net-(X1001-PadA22)*%
X113465000Y-129260000D03*
%TO.P,X1001,A21*%
%TO.N,Net-(IC1001-Pad3)*%
X113465000Y-126760000D03*
%TO.P,X1001,A20*%
%TO.N,Net-(U1002-Pad2)*%
X113465000Y-124260000D03*
%TO.P,X1001,A19*%
%TO.N,Net-(IC1001-Pad2)*%
X113465000Y-121760000D03*
%TO.P,X1001,A18*%
%TO.N,Net-(IC1001-Pad6)*%
X113465000Y-119260000D03*
%TO.P,X1001,A17*%
%TO.N,Net-(U1001-Pad4)*%
X113465000Y-116760000D03*
%TO.P,X1001,A16*%
%TO.N,Net-(U1001-Pad2)*%
X113465000Y-114260000D03*
%TO.P,X1001,A15*%
%TO.N,Net-(X1001-PadA15)*%
X113465000Y-111760000D03*
%TO.P,X1001,A14*%
%TO.N,Net-(X1001-PadA14)*%
X113465000Y-109260000D03*
%TO.P,X1001,A13*%
%TO.N,Net-(X1001-PadA13)*%
X113465000Y-106760000D03*
%TO.P,X1001,A12*%
%TO.N,Net-(X1001-PadA12)*%
X113465000Y-104260000D03*
%TO.P,X1001,A11*%
%TO.N,Net-(X1001-PadA11)*%
X113465000Y-101760000D03*
%TO.P,X1001,A10*%
%TO.N,Net-(X1001-PadA10)*%
X113465000Y-99260000D03*
%TO.P,X1001,A09*%
%TO.N,Net-(X1001-PadA09)*%
X113465000Y-96760000D03*
%TO.P,X1001,A08*%
%TO.N,Net-(IC1001-Pad5)*%
X113465000Y-94260000D03*
%TO.P,X1001,A07*%
%TO.N,Net-(R1006-Pad1)*%
X113465000Y-91760000D03*
%TO.P,X1001,A06*%
%TO.N,Net-(R1007-Pad1)*%
X113465000Y-89260000D03*
%TO.P,X1001,A05*%
%TO.N,Net-(R1008-Pad1)*%
X113465000Y-86760000D03*
%TO.P,X1001,A04*%
%TO.N,Net-(R1009-Pad1)*%
X113465000Y-84260000D03*
%TO.P,X1001,A03*%
%TO.N,Net-(X1001-PadA03)*%
X113465000Y-81760000D03*
%TO.P,X1001,A02*%
%TO.N,Net-(X1001-PadA01)*%
X113465000Y-79260000D03*
%TO.P,X1001,A01*%
X113465000Y-76760000D03*
%TO.P,X1001,C29*%
%TO.N,+5P*%
X118465000Y-146760000D03*
%TO.P,X1001,C28*%
%TO.N,Net-(X1001-PadC28)*%
X118465000Y-144260000D03*
%TO.P,X1001,C27*%
%TO.N,Net-(X1001-PadA27)*%
X118465000Y-141760000D03*
%TO.P,X1001,C26*%
%TO.N,Net-(X1001-PadC26)*%
X118465000Y-139260000D03*
%TO.P,X1001,C25*%
%TO.N,Net-(X1001-PadC25)*%
X118465000Y-136760000D03*
%TO.P,X1001,C24*%
%TO.N,Net-(U1001-Pad23)*%
X118465000Y-134260000D03*
%TO.P,X1001,C23*%
%TO.N,Net-(X1001-PadC23)*%
X118465000Y-131760000D03*
%TO.P,X1001,C22*%
%TO.N,Net-(X1001-PadA01)*%
X118465000Y-129260000D03*
%TO.P,X1001,C21*%
X118465000Y-126760000D03*
%TO.P,X1001,C20*%
%TO.N,Net-(X1001-PadC20)*%
X118465000Y-124260000D03*
%TO.P,X1001,C19*%
%TO.N,Net-(IC1001-Pad4)*%
X118465000Y-121760000D03*
%TO.P,X1001,C18*%
%TO.N,Net-(IC1001-Pad7)*%
X118465000Y-119260000D03*
%TO.P,X1001,C17*%
%TO.N,Net-(U1001-Pad9)*%
X118465000Y-116760000D03*
%TO.P,X1001,C16*%
%TO.N,Net-(U1001-Pad1)*%
X118465000Y-114260000D03*
%TO.P,X1001,C15*%
%TO.N,Net-(X1001-PadC15)*%
X118465000Y-111760000D03*
%TO.P,X1001,C14*%
%TO.N,Net-(X1001-PadC14)*%
X118465000Y-109260000D03*
%TO.P,X1001,C13*%
%TO.N,Net-(X1001-PadC13)*%
X118465000Y-106760000D03*
%TO.P,X1001,C12*%
%TO.N,Net-(X1001-PadC12)*%
X118465000Y-104260000D03*
%TO.P,X1001,C11*%
%TO.N,Net-(X1001-PadC11)*%
X118465000Y-101760000D03*
%TO.P,X1001,C10*%
%TO.N,Net-(X1001-PadA10)*%
X118465000Y-99260000D03*
%TO.P,X1001,C09*%
%TO.N,Net-(X1001-PadC09)*%
X118465000Y-96760000D03*
%TO.P,X1001,C08*%
%TO.N,Net-(IC1001-Pad8)*%
X118465000Y-94260000D03*
%TO.P,X1001,C07*%
%TO.N,Net-(R1002-Pad1)*%
X118465000Y-91760000D03*
%TO.P,X1001,C06*%
%TO.N,Net-(R1003-Pad1)*%
X118465000Y-89260000D03*
%TO.P,X1001,C05*%
%TO.N,Net-(R1004-Pad1)*%
X118465000Y-86760000D03*
%TO.P,X1001,C04*%
%TO.N,Net-(R1005-Pad1)*%
X118465000Y-84260000D03*
%TO.P,X1001,C03*%
%TO.N,Net-(X1001-PadC03)*%
X118465000Y-81760000D03*
%TO.P,X1001,C02*%
%TO.N,Net-(X1001-PadA01)*%
X118465000Y-79260000D03*
%TO.P,X1001,C01*%
X118465000Y-76760000D03*
D16*
%TO.P,X1001,*%
%TO.N,*%
X105965000Y-153010000D03*
X105965000Y-70510000D03*
D15*
%TO.P,X1001,C29*%
%TO.N,+5P*%
X111353600Y-146050000D03*
%TO.P,X1001,C28*%
%TO.N,Net-(X1001-PadC28)*%
X111353600Y-143510000D03*
%TO.P,X1001,C27*%
%TO.N,Net-(X1001-PadA27)*%
X111353600Y-140970000D03*
%TO.P,X1001,C26*%
%TO.N,Net-(X1001-PadC26)*%
X111353600Y-138430000D03*
%TO.P,X1001,C25*%
%TO.N,Net-(X1001-PadC25)*%
X111353600Y-135890000D03*
%TO.P,X1001,C24*%
%TO.N,Net-(U1001-Pad23)*%
X111353600Y-133350000D03*
%TO.P,X1001,C23*%
%TO.N,Net-(X1001-PadC23)*%
X111353600Y-130810000D03*
%TO.P,X1001,C22*%
%TO.N,Net-(X1001-PadA01)*%
X111353600Y-128270000D03*
%TO.P,X1001,C21*%
X111353600Y-125730000D03*
%TO.P,X1001,C20*%
%TO.N,Net-(X1001-PadC20)*%
X111353600Y-123190000D03*
%TO.P,X1001,C19*%
%TO.N,Net-(IC1001-Pad4)*%
X111353600Y-120650000D03*
%TO.P,X1001,C18*%
%TO.N,Net-(IC1001-Pad7)*%
X111353600Y-118110000D03*
%TO.P,X1001,C17*%
%TO.N,Net-(U1001-Pad9)*%
X111353600Y-115570000D03*
%TO.P,X1001,C16*%
%TO.N,Net-(U1001-Pad1)*%
X111353600Y-113030000D03*
%TO.P,X1001,C15*%
%TO.N,Net-(X1001-PadC15)*%
X111353600Y-110490000D03*
%TO.P,X1001,C14*%
%TO.N,Net-(X1001-PadC14)*%
X111353600Y-107950000D03*
%TO.P,X1001,C13*%
%TO.N,Net-(X1001-PadC13)*%
X111353600Y-105410000D03*
%TO.P,X1001,C12*%
%TO.N,Net-(X1001-PadC12)*%
X111353600Y-102870000D03*
%TO.P,X1001,C11*%
%TO.N,Net-(X1001-PadC11)*%
X111353600Y-100330000D03*
%TO.P,X1001,C10*%
%TO.N,Net-(X1001-PadA10)*%
X111353600Y-97790000D03*
%TO.P,X1001,C09*%
%TO.N,Net-(X1001-PadC09)*%
X111353600Y-95250000D03*
%TO.P,X1001,C08*%
%TO.N,Net-(IC1001-Pad8)*%
X111353600Y-92710000D03*
%TO.P,X1001,C07*%
%TO.N,Net-(R1002-Pad1)*%
X111353600Y-90170000D03*
%TO.P,X1001,C06*%
%TO.N,Net-(R1003-Pad1)*%
X111353600Y-87630000D03*
%TO.P,X1001,C05*%
%TO.N,Net-(R1004-Pad1)*%
X111353600Y-85090000D03*
%TO.P,X1001,C04*%
%TO.N,Net-(R1005-Pad1)*%
X111353600Y-82550000D03*
%TO.P,X1001,C03*%
%TO.N,Net-(X1001-PadC03)*%
X111353600Y-80010000D03*
%TO.P,X1001,C02*%
%TO.N,Net-(X1001-PadA01)*%
X111353600Y-77470000D03*
%TO.P,X1001,C01*%
X111353600Y-74930000D03*
%TO.P,X1001,A29*%
%TO.N,+5P*%
X106273600Y-146050000D03*
%TO.P,X1001,A28*%
%TO.N,Net-(X1001-PadA28)*%
X106273600Y-143510000D03*
%TO.P,X1001,A27*%
%TO.N,Net-(X1001-PadA27)*%
X106273600Y-140970000D03*
%TO.P,X1001,A26*%
%TO.N,Net-(X1001-PadA26)*%
X106273600Y-138430000D03*
%TO.P,X1001,A25*%
%TO.N,Net-(X1001-PadA25)*%
X106273600Y-135890000D03*
%TO.P,X1001,A24*%
%TO.N,Net-(X1001-PadA24)*%
X106273600Y-133350000D03*
%TO.P,X1001,A23*%
%TO.N,Net-(X1001-PadA23)*%
X106273600Y-130810000D03*
%TO.P,X1001,A22*%
%TO.N,Net-(X1001-PadA22)*%
X106273600Y-128270000D03*
%TO.P,X1001,A21*%
%TO.N,Net-(IC1001-Pad3)*%
X106273600Y-125730000D03*
%TO.P,X1001,A20*%
%TO.N,Net-(U1002-Pad2)*%
X106273600Y-123190000D03*
%TO.P,X1001,A19*%
%TO.N,Net-(IC1001-Pad2)*%
X106273600Y-120650000D03*
%TO.P,X1001,A18*%
%TO.N,Net-(IC1001-Pad6)*%
X106273600Y-118110000D03*
%TO.P,X1001,A17*%
%TO.N,Net-(U1001-Pad4)*%
X106273600Y-115570000D03*
%TO.P,X1001,A16*%
%TO.N,Net-(U1001-Pad2)*%
X106273600Y-113030000D03*
%TO.P,X1001,A15*%
%TO.N,Net-(X1001-PadA15)*%
X106273600Y-110490000D03*
%TO.P,X1001,A14*%
%TO.N,Net-(X1001-PadA14)*%
X106273600Y-107950000D03*
%TO.P,X1001,A13*%
%TO.N,Net-(X1001-PadA13)*%
X106273600Y-105410000D03*
%TO.P,X1001,A12*%
%TO.N,Net-(X1001-PadA12)*%
X106273600Y-102870000D03*
%TO.P,X1001,A11*%
%TO.N,Net-(X1001-PadA11)*%
X106273600Y-100330000D03*
%TO.P,X1001,A10*%
%TO.N,Net-(X1001-PadA10)*%
X106273600Y-97790000D03*
%TO.P,X1001,A09*%
%TO.N,Net-(X1001-PadA09)*%
X106273600Y-95250000D03*
%TO.P,X1001,A08*%
%TO.N,Net-(IC1001-Pad5)*%
X106273600Y-92710000D03*
%TO.P,X1001,A07*%
%TO.N,Net-(R1006-Pad1)*%
X106273600Y-90170000D03*
%TO.P,X1001,A06*%
%TO.N,Net-(R1007-Pad1)*%
X106273600Y-87630000D03*
%TO.P,X1001,A05*%
%TO.N,Net-(R1008-Pad1)*%
X106273600Y-85090000D03*
%TO.P,X1001,A04*%
%TO.N,Net-(R1009-Pad1)*%
X106273600Y-82550000D03*
%TO.P,X1001,A02*%
%TO.N,Net-(X1001-PadA01)*%
X106273600Y-77470000D03*
%TO.P,X1001,A01*%
X106273600Y-74930000D03*
D16*
%TO.P,X1001,*%
%TO.N,*%
X103733600Y-156210000D03*
X103733600Y-67310000D03*
%TD*%
D10*
%TO.P,J1003,2*%
%TO.N,Net-(J1002-Pad20)*%
X176530000Y-149225000D03*
D11*
%TO.P,J1003,1*%
%TO.N,+5P*%
X179070000Y-149225000D03*
%TD*%
D12*
%TO.P,C1007,2*%
%TO.N,GND*%
X154305000Y-74335000D03*
%TO.P,C1007,1*%
%TO.N,+5P*%
X154305000Y-76835000D03*
%TD*%
%TO.P,C1006,2*%
%TO.N,GND*%
X147995000Y-154940000D03*
%TO.P,C1006,1*%
%TO.N,+5P*%
X150495000Y-154940000D03*
%TD*%
%TO.P,C1005,2*%
%TO.N,GND*%
X121245000Y-149860000D03*
%TO.P,C1005,1*%
%TO.N,+5P*%
X118745000Y-149860000D03*
%TD*%
%TO.P,C1004,2*%
%TO.N,GND*%
X144185000Y-137160000D03*
%TO.P,C1004,1*%
%TO.N,+5P*%
X146685000Y-137160000D03*
%TD*%
D13*
%TO.P,U1002,8*%
%TO.N,+5P*%
X157480000Y-144145000D03*
%TO.P,U1002,4*%
%TO.N,GND*%
X149860000Y-151765000D03*
%TO.P,U1002,7*%
%TO.N,+5P*%
X157480000Y-146685000D03*
%TO.P,U1002,3*%
%TO.N,Net-(C1001-Pad1)*%
X149860000Y-149225000D03*
%TO.P,U1002,6*%
%TO.N,Net-(J1002-Pad1)*%
X157480000Y-149225000D03*
%TO.P,U1002,2*%
%TO.N,Net-(U1002-Pad2)*%
X149860000Y-146685000D03*
%TO.P,U1002,5*%
%TO.N,Net-(R1010-Pad2)*%
X157480000Y-151765000D03*
D14*
%TO.P,U1002,1*%
%TO.N,Net-(C1002-Pad1)*%
X149860000Y-144145000D03*
%TD*%
D13*
%TO.P,U1001,24*%
%TO.N,+5P*%
X151765000Y-105410000D03*
%TO.P,U1001,12*%
%TO.N,GND*%
X144145000Y-133350000D03*
%TO.P,U1001,23*%
%TO.N,Net-(U1001-Pad23)*%
X151765000Y-107950000D03*
%TO.P,U1001,11*%
%TO.N,Net-(J1001-Pad5)*%
X144145000Y-130810000D03*
%TO.P,U1001,22*%
%TO.N,N/C*%
X151765000Y-110490000D03*
%TO.P,U1001,10*%
%TO.N,Net-(J1001-Pad3)*%
X144145000Y-128270000D03*
%TO.P,U1001,21*%
%TO.N,Net-(J1002-Pad33)*%
X151765000Y-113030000D03*
%TO.P,U1001,9*%
%TO.N,Net-(U1001-Pad9)*%
X144145000Y-125730000D03*
%TO.P,U1001,20*%
%TO.N,Net-(J1002-Pad36)*%
X151765000Y-115570000D03*
%TO.P,U1001,8*%
%TO.N,Net-(J1001-Pad1)*%
X144145000Y-123190000D03*
%TO.P,U1001,19*%
%TO.N,Net-(J1002-Pad35)*%
X151765000Y-118110000D03*
%TO.P,U1001,7*%
%TO.N,Net-(IC1001-Pad7)*%
X144145000Y-120650000D03*
%TO.P,U1001,18*%
%TO.N,Net-(J1002-Pad38)*%
X151765000Y-120650000D03*
%TO.P,U1001,6*%
%TO.N,Net-(IC1001-Pad6)*%
X144145000Y-118110000D03*
%TO.P,U1001,17*%
%TO.N,Net-(J1002-Pad37)*%
X151765000Y-123190000D03*
%TO.P,U1001,5*%
%TO.N,Net-(IC1001-Pad4)*%
X144145000Y-115570000D03*
%TO.P,U1001,16*%
%TO.N,Net-(IC1001-Pad9)*%
X151765000Y-125730000D03*
%TO.P,U1001,4*%
%TO.N,Net-(U1001-Pad4)*%
X144145000Y-113030000D03*
%TO.P,U1001,15*%
%TO.N,N/C*%
X151765000Y-128270000D03*
%TO.P,U1001,3*%
%TO.N,Net-(IC1001-Pad2)*%
X144145000Y-110490000D03*
%TO.P,U1001,14*%
%TO.N,Net-(R1001-Pad1)*%
X151765000Y-130810000D03*
%TO.P,U1001,2*%
%TO.N,Net-(U1001-Pad2)*%
X144145000Y-107950000D03*
%TO.P,U1001,13*%
%TO.N,Net-(J1001-Pad7)*%
X151765000Y-133350000D03*
D14*
%TO.P,U1001,1*%
%TO.N,Net-(U1001-Pad1)*%
X144145000Y-105410000D03*
%TD*%
D17*
%TO.P,RN1001,5*%
%TO.N,Net-(J1001-Pad1)*%
X127635000Y-133350000D03*
%TO.P,RN1001,4*%
%TO.N,Net-(J1001-Pad3)*%
X127635000Y-135890000D03*
%TO.P,RN1001,3*%
%TO.N,Net-(J1001-Pad5)*%
X127635000Y-138430000D03*
%TO.P,RN1001,2*%
%TO.N,Net-(J1001-Pad7)*%
X127635000Y-140970000D03*
D18*
%TO.P,RN1001,1*%
%TO.N,+5P*%
X127635000Y-143510000D03*
%TD*%
D17*
%TO.P,R1013,2*%
%TO.N,Net-(J1002-Pad39)*%
X190500000Y-138430000D03*
D12*
%TO.P,R1013,1*%
%TO.N,Net-(D1001-Pad1)*%
X190500000Y-148590000D03*
%TD*%
D17*
%TO.P,R1012,2*%
%TO.N,Net-(J1002-Pad28)*%
X171450000Y-151130000D03*
D12*
%TO.P,R1012,1*%
%TO.N,+5P*%
X161290000Y-151130000D03*
%TD*%
D17*
%TO.P,R1011,2*%
%TO.N,GND*%
X168910000Y-154940000D03*
D12*
%TO.P,R1011,1*%
%TO.N,Net-(R1010-Pad2)*%
X158750000Y-154940000D03*
%TD*%
D17*
%TO.P,R1010,2*%
%TO.N,Net-(R1010-Pad2)*%
X171450000Y-147320000D03*
D12*
%TO.P,R1010,1*%
%TO.N,+5P*%
X161290000Y-147320000D03*
%TD*%
D17*
%TO.P,R1009,2*%
%TO.N,Net-(IC1002-Pad13)*%
X135890000Y-88900000D03*
D12*
%TO.P,R1009,1*%
%TO.N,Net-(R1009-Pad1)*%
X125730000Y-88900000D03*
%TD*%
D17*
%TO.P,R1008,2*%
%TO.N,Net-(IC1002-Pad15)*%
X135890000Y-92075000D03*
D12*
%TO.P,R1008,1*%
%TO.N,Net-(R1008-Pad1)*%
X125730000Y-92075000D03*
%TD*%
D17*
%TO.P,R1007,2*%
%TO.N,Net-(IC1002-Pad17)*%
X135890000Y-85725000D03*
D12*
%TO.P,R1007,1*%
%TO.N,Net-(R1007-Pad1)*%
X125730000Y-85725000D03*
%TD*%
D17*
%TO.P,R1006,2*%
%TO.N,Net-(IC1002-Pad19)*%
X135890000Y-82550000D03*
D12*
%TO.P,R1006,1*%
%TO.N,Net-(R1006-Pad1)*%
X125730000Y-82550000D03*
%TD*%
D17*
%TO.P,R1005,2*%
%TO.N,Net-(IC1002-Pad14)*%
X135890000Y-95250000D03*
D12*
%TO.P,R1005,1*%
%TO.N,Net-(R1005-Pad1)*%
X125730000Y-95250000D03*
%TD*%
D17*
%TO.P,R1004,2*%
%TO.N,Net-(IC1002-Pad16)*%
X135890000Y-98425000D03*
D12*
%TO.P,R1004,1*%
%TO.N,Net-(R1004-Pad1)*%
X125730000Y-98425000D03*
%TD*%
D17*
%TO.P,R1003,2*%
%TO.N,Net-(IC1002-Pad18)*%
X135890000Y-101600000D03*
D12*
%TO.P,R1003,1*%
%TO.N,Net-(R1003-Pad1)*%
X125730000Y-101600000D03*
%TD*%
D17*
%TO.P,R1002,2*%
%TO.N,Net-(IC1002-Pad20)*%
X135890000Y-104140000D03*
D12*
%TO.P,R1002,1*%
%TO.N,Net-(R1002-Pad1)*%
X125730000Y-104140000D03*
%TD*%
D17*
%TO.P,R1001,2*%
%TO.N,Net-(J1002-Pad20)*%
X171450000Y-143510000D03*
D12*
%TO.P,R1001,1*%
%TO.N,Net-(R1001-Pad1)*%
X161290000Y-143510000D03*
%TD*%
D10*
%TO.P,J1001,8*%
%TO.N,GND*%
X133985000Y-140970000D03*
%TO.P,J1001,7*%
%TO.N,Net-(J1001-Pad7)*%
X131445000Y-140970000D03*
%TO.P,J1001,6*%
%TO.N,GND*%
X133985000Y-138430000D03*
%TO.P,J1001,5*%
%TO.N,Net-(J1001-Pad5)*%
X131445000Y-138430000D03*
%TO.P,J1001,4*%
%TO.N,GND*%
X133985000Y-135890000D03*
%TO.P,J1001,3*%
%TO.N,Net-(J1001-Pad3)*%
X131445000Y-135890000D03*
%TO.P,J1001,2*%
%TO.N,GND*%
X133985000Y-133350000D03*
D11*
%TO.P,J1001,1*%
%TO.N,Net-(J1001-Pad1)*%
X131445000Y-133350000D03*
%TD*%
D13*
%TO.P,IC1001,20*%
%TO.N,+5P*%
X151765000Y-76835000D03*
%TO.P,IC1001,10*%
%TO.N,GND*%
X144145000Y-99695000D03*
%TO.P,IC1001,19*%
%TO.N,Net-(IC1001-Pad1)*%
X151765000Y-79375000D03*
%TO.P,IC1001,9*%
%TO.N,Net-(IC1001-Pad9)*%
X144145000Y-97155000D03*
%TO.P,IC1001,18*%
%TO.N,Net-(IC1001-Pad18)*%
X151765000Y-81915000D03*
%TO.P,IC1001,8*%
%TO.N,Net-(IC1001-Pad8)*%
X144145000Y-94615000D03*
%TO.P,IC1001,17*%
%TO.N,Net-(IC1001-Pad17)*%
X151765000Y-84455000D03*
%TO.P,IC1001,7*%
%TO.N,Net-(IC1001-Pad7)*%
X144145000Y-92075000D03*
%TO.P,IC1001,16*%
%TO.N,Net-(IC1001-Pad16)*%
X151765000Y-86995000D03*
%TO.P,IC1001,6*%
%TO.N,Net-(IC1001-Pad6)*%
X144145000Y-89535000D03*
%TO.P,IC1001,15*%
%TO.N,Net-(IC1001-Pad15)*%
X151765000Y-89535000D03*
%TO.P,IC1001,5*%
%TO.N,Net-(IC1001-Pad5)*%
X144145000Y-86995000D03*
%TO.P,IC1001,14*%
%TO.N,Net-(IC1001-Pad14)*%
X151765000Y-92075000D03*
%TO.P,IC1001,4*%
%TO.N,Net-(IC1001-Pad4)*%
X144145000Y-84455000D03*
%TO.P,IC1001,13*%
%TO.N,N/C*%
X151765000Y-94615000D03*
%TO.P,IC1001,3*%
%TO.N,Net-(IC1001-Pad3)*%
X144145000Y-81915000D03*
%TO.P,IC1001,12*%
%TO.N,Net-(IC1001-Pad12)*%
X151765000Y-97155000D03*
%TO.P,IC1001,2*%
%TO.N,Net-(IC1001-Pad2)*%
X144145000Y-79375000D03*
%TO.P,IC1001,11*%
%TO.N,GND*%
X151765000Y-99695000D03*
D14*
%TO.P,IC1001,1*%
%TO.N,Net-(IC1001-Pad1)*%
X144145000Y-76835000D03*
%TD*%
D19*
%TO.P,D1001,2*%
%TO.N,+5P*%
X190500000Y-151130000D03*
D20*
%TO.P,D1001,1*%
%TO.N,Net-(D1001-Pad1)*%
X190500000Y-153670000D03*
%TD*%
D12*
%TO.P,C1002,2*%
%TO.N,GND*%
X153075000Y-154940000D03*
%TO.P,C1002,1*%
%TO.N,Net-(C1002-Pad1)*%
X155575000Y-154940000D03*
%TD*%
D21*
%TO.P,C1001,2*%
%TO.N,GND*%
X144780000Y-151225000D03*
D22*
%TO.P,C1001,1*%
%TO.N,Net-(C1001-Pad1)*%
X144780000Y-149225000D03*
%TD*%
D23*
%TO.N,GND*%
X144145000Y-140970000D03*
X188595000Y-130175000D03*
X188595000Y-112395000D03*
X184785000Y-73025000D03*
X146685000Y-99695000D03*
X146685000Y-133350000D03*
X144145000Y-154940000D03*
X179705000Y-74930000D03*
X179705000Y-73025000D03*
X184785000Y-139700000D03*
X189230000Y-81915000D03*
%TO.N,Net-(C1002-Pad1)*%
X155575000Y-144145000D03*
%TO.N,+5P*%
X127635000Y-146685000D03*
X157480000Y-133985000D03*
X146685000Y-143510000D03*
X157480000Y-137160000D03*
X157480000Y-105410000D03*
X157480000Y-102870000D03*
X157480000Y-73025000D03*
X157480000Y-76835000D03*
X182245000Y-71755000D03*
X157480000Y-139065000D03*
X157480000Y-106680000D03*
X180975000Y-136525000D03*
X180975000Y-149225000D03*
X180975000Y-151130000D03*
%TO.N,Net-(IC1001-Pad9)*%
X138285010Y-124604990D03*
X138430000Y-97790000D03*
%TO.N,Net-(IC1001-Pad18)*%
X149225000Y-81915000D03*
X149225000Y-70485000D03*
X149225000Y-139700000D03*
X149225000Y-102870000D03*
%TO.N,Net-(IC1001-Pad17)*%
X168275000Y-131445000D03*
X167640000Y-85090000D03*
%TO.N,Net-(IC1001-Pad7)*%
X140970000Y-92075000D03*
%TO.N,Net-(IC1001-Pad16)*%
X147955000Y-86995000D03*
X147955000Y-75565000D03*
X147955000Y-101600000D03*
X179070000Y-104140000D03*
X179070000Y-109855000D03*
X179070000Y-133985000D03*
%TO.N,Net-(IC1001-Pad6)*%
X140335000Y-118110000D03*
X139700000Y-120650000D03*
X140335000Y-89535000D03*
%TO.N,Net-(IC1001-Pad15)*%
X147955000Y-102870000D03*
X146685000Y-90805000D03*
%TO.N,Net-(IC1001-Pad5)*%
X139065000Y-96520000D03*
X139065000Y-86995000D03*
%TO.N,Net-(IC1001-Pad14)*%
X154940000Y-92075000D03*
X154940000Y-95885000D03*
%TO.N,Net-(IC1001-Pad4)*%
X137795000Y-121920000D03*
X137795000Y-115570000D03*
X146685000Y-84455000D03*
%TO.N,Net-(IC1001-Pad3)*%
X136525000Y-127000000D03*
X137160000Y-79375000D03*
%TO.N,Net-(IC1001-Pad12)*%
X154940000Y-97155000D03*
X154940000Y-110490000D03*
%TO.N,Net-(IC1001-Pad2)*%
X134620000Y-124460000D03*
X134620000Y-110490000D03*
X149860000Y-111760000D03*
X149860000Y-80645000D03*
%TO.N,Net-(IC1002-Pad11)*%
X173355000Y-100330000D03*
X173355000Y-113665000D03*
%TO.N,Net-(IC1002-Pad10)*%
X172720000Y-97790000D03*
X173355000Y-116205000D03*
%TO.N,Net-(IC1002-Pad9)*%
X172085000Y-95250000D03*
X173355000Y-118745000D03*
%TO.N,Net-(IC1002-Pad20)*%
X167640000Y-128905000D03*
X167640000Y-96520000D03*
X158750000Y-96520000D03*
X158750000Y-105410000D03*
%TO.N,Net-(IC1002-Pad8)*%
X171450000Y-92710000D03*
X173355000Y-121285000D03*
%TO.N,Net-(IC1002-Pad19)*%
X167005000Y-126365000D03*
X167640000Y-94615000D03*
X133350000Y-82550000D03*
X133350000Y-90805000D03*
%TO.N,Net-(IC1002-Pad7)*%
X170815000Y-90170000D03*
X173355000Y-123825000D03*
%TO.N,Net-(IC1002-Pad18)*%
X165735000Y-123825000D03*
X167640000Y-92075000D03*
X156210000Y-91440000D03*
X156210000Y-99060000D03*
%TO.N,Net-(IC1002-Pad6)*%
X170180000Y-87630000D03*
X171450000Y-125730000D03*
%TO.N,Net-(IC1002-Pad17)*%
X165100000Y-121285000D03*
X167322500Y-89852500D03*
%TO.N,Net-(IC1002-Pad5)*%
X169545000Y-85090000D03*
X171450000Y-128270000D03*
%TO.N,Net-(IC1002-Pad16)*%
X163830000Y-118745000D03*
X167322500Y-87947500D03*
X140335000Y-85090000D03*
X139700000Y-98425000D03*
%TO.N,Net-(IC1002-Pad4)*%
X168910000Y-82550000D03*
X171450000Y-131445000D03*
%TO.N,Net-(IC1002-Pad15)*%
X163195000Y-116205000D03*
X167640000Y-83820000D03*
X158750000Y-83820000D03*
X158750000Y-95250000D03*
%TO.N,Net-(IC1002-Pad14)*%
X163195000Y-113665000D03*
X167640000Y-81280000D03*
X132080000Y-81280000D03*
X132080000Y-95250000D03*
%TO.N,Net-(IC1002-Pad13)*%
X163195000Y-111125000D03*
X167005000Y-79375000D03*
X131445000Y-74930000D03*
X131445000Y-88900000D03*
%TO.N,Net-(J1001-Pad7)*%
X129049990Y-131935010D03*
X128905000Y-140970000D03*
%TO.N,Net-(J1001-Pad5)*%
X129540000Y-130810000D03*
%TO.N,Net-(J1001-Pad3)*%
X128905000Y-128270000D03*
%TO.N,Net-(J1001-Pad1)*%
X127635000Y-123190000D03*
%TO.N,Net-(J1002-Pad20)*%
X176530000Y-143510000D03*
X191770000Y-142875000D03*
X191770000Y-104775000D03*
%TO.N,Net-(J1002-Pad1)*%
X173355000Y-149225000D03*
X173355000Y-140970000D03*
X193040000Y-140970000D03*
X193040000Y-83185000D03*
%TO.N,Net-(R1001-Pad1)*%
X155575000Y-130810000D03*
X155575000Y-140970000D03*
%TO.N,Net-(R1002-Pad1)*%
X120015000Y-92075000D03*
X120650000Y-103505000D03*
%TO.N,Net-(R1003-Pad1)*%
X121920000Y-89535000D03*
X121920000Y-101600000D03*
%TO.N,Net-(R1004-Pad1)*%
X121285000Y-86995000D03*
X121285000Y-98425000D03*
%TO.N,Net-(R1005-Pad1)*%
X120650000Y-84455000D03*
X120650000Y-95250000D03*
%TO.N,Net-(R1006-Pad1)*%
X122665001Y-93234999D03*
X122555000Y-82550000D03*
%TO.N,Net-(R1007-Pad1)*%
X123190000Y-84455000D03*
X123119999Y-90734999D03*
%TO.N,Net-(R1008-Pad1)*%
X123794999Y-88234999D03*
X123825000Y-92075000D03*
%TO.N,Net-(R1010-Pad2)*%
X163830000Y-147320000D03*
X163830000Y-154940000D03*
%TO.N,Net-(J1002-Pad28)*%
X187325000Y-152400000D03*
X187325000Y-114935000D03*
%TO.N,Net-(J1002-Pad39)*%
X182245000Y-138430000D03*
%TO.N,Net-(U1001-Pad23)*%
X124460000Y-133985000D03*
X124460000Y-109220000D03*
%TO.N,Net-(J1002-Pad33)*%
X155575000Y-113030000D03*
X156210000Y-135255000D03*
X156210000Y-135255000D03*
X155575000Y-120015000D03*
%TO.N,Net-(U1001-Pad9)*%
X137160000Y-116840000D03*
X137160000Y-125730000D03*
%TO.N,Net-(J1002-Pad36)*%
X156210000Y-115570000D03*
X156845000Y-132080000D03*
X189865000Y-125095000D03*
X189865000Y-132715000D03*
%TO.N,Net-(J1002-Pad35)*%
X155030001Y-125004999D03*
X155575000Y-118110000D03*
%TO.N,Net-(J1002-Pad38)*%
X190500000Y-127635000D03*
X190500000Y-134620000D03*
X147955000Y-120650000D03*
X147955000Y-135890000D03*
%TO.N,Net-(J1002-Pad37)*%
X155030001Y-127544999D03*
X154940000Y-123190000D03*
%TO.N,Net-(U1001-Pad4)*%
X139065000Y-113030000D03*
X139065000Y-118110000D03*
%TO.N,Net-(U1001-Pad2)*%
X135890000Y-115570000D03*
X135890000Y-107950000D03*
%TO.N,Net-(U1001-Pad1)*%
X135215000Y-114260000D03*
X135255000Y-106680000D03*
%TO.N,Net-(U1002-Pad2)*%
X123190000Y-125730000D03*
X123190000Y-144780000D03*
%TD*%
D24*
%TO.N,GND*%
X184785000Y-112395000D02*
X184785000Y-107315000D01*
X182245000Y-104775000D02*
X184785000Y-107315000D01*
X133985000Y-133350000D02*
X133985000Y-140970000D01*
X143745001Y-150190001D02*
X144780000Y-151225000D01*
X143745001Y-141369999D02*
X143745001Y-150190001D01*
X144145000Y-140970000D02*
X143745001Y-141369999D01*
X143745001Y-150190001D02*
X143745001Y-154540001D01*
X143745001Y-154540001D02*
X144145000Y-154940000D01*
X149860000Y-153075000D02*
X147995000Y-154940000D01*
X149860000Y-151765000D02*
X149860000Y-153075000D01*
X149900000Y-151765000D02*
X149860000Y-151765000D01*
X153075000Y-154940000D02*
X149900000Y-151765000D01*
X188595000Y-112395000D02*
X188595000Y-130175000D01*
X184785000Y-81915000D02*
X184785000Y-73025000D01*
X146685000Y-99695000D02*
X146685000Y-133350000D01*
X146685000Y-133350000D02*
X146685000Y-133350000D01*
X144145000Y-137120000D02*
X144185000Y-137160000D01*
X144145000Y-133350000D02*
X144145000Y-137120000D01*
X144145000Y-154940000D02*
X144145000Y-154940000D01*
X160655000Y-136525000D02*
X160655000Y-133985000D01*
X184785000Y-139700000D02*
X184785000Y-130175000D01*
X176530000Y-104140000D02*
X176530000Y-106680000D01*
X189230000Y-111760000D02*
X188595000Y-112395000D01*
X189230000Y-81915000D02*
X189230000Y-111760000D01*
X179705000Y-78065000D02*
X179745000Y-78105000D01*
X179705000Y-73025000D02*
X179705000Y-78065000D01*
%TO.N,Net-(C1002-Pad1)*%
X155575000Y-144145000D02*
X155575000Y-154940000D01*
%TO.N,+5P*%
X157480000Y-146685000D02*
X157480000Y-144145000D01*
X161290000Y-151130000D02*
X161290000Y-147320000D01*
X157480000Y-133985000D02*
X157480000Y-146685000D01*
X127635000Y-143510000D02*
X127635000Y-146685000D01*
X118745000Y-147040000D02*
X118465000Y-146760000D01*
X118745000Y-149860000D02*
X118745000Y-147040000D01*
X147410001Y-137885001D02*
X146685000Y-137160000D01*
X147410001Y-142784999D02*
X147410001Y-137885001D01*
X146685000Y-143510000D02*
X147410001Y-142784999D01*
X157480000Y-76835000D02*
X157480000Y-73025000D01*
X157480000Y-102870000D02*
X157480000Y-105410000D01*
X157480000Y-133985000D02*
X157480000Y-133350000D01*
X157480000Y-133350000D02*
X158115000Y-132715000D01*
X158115000Y-132715000D02*
X158115000Y-131445000D01*
X158115000Y-131445000D02*
X157480000Y-130810000D01*
X157480000Y-105410000D02*
X157480000Y-130810000D01*
X157389999Y-102779999D02*
X157480000Y-102870000D01*
X157389999Y-101251999D02*
X157389999Y-102779999D01*
X157480000Y-101161998D02*
X157389999Y-101251999D01*
X157480000Y-76835000D02*
X157480000Y-101161998D01*
X182245000Y-71755000D02*
X182245000Y-78105000D01*
X180975000Y-136525000D02*
X180975000Y-151130000D01*
%TO.N,Net-(IC1001-Pad9)*%
X138030001Y-98189999D02*
X138030001Y-114535001D01*
X138430000Y-97790000D02*
X138030001Y-98189999D01*
X138030001Y-114535001D02*
X138430000Y-114935000D01*
X138520001Y-124369999D02*
X138285010Y-124604990D01*
X138520001Y-120920003D02*
X138520001Y-124369999D01*
X138339999Y-120740001D02*
X138520001Y-120920003D01*
X138645009Y-117456989D02*
X138339999Y-117761999D01*
X138645009Y-115347007D02*
X138645009Y-117456989D01*
X138339999Y-117761999D02*
X138339999Y-120740001D01*
X138430000Y-115131998D02*
X138645009Y-115347007D01*
X138430000Y-114935000D02*
X138430000Y-115131998D01*
%TO.N,Net-(IC1001-Pad18)*%
X149225000Y-128905000D02*
X149225000Y-128905000D01*
X149225000Y-113665000D02*
X149225000Y-120390984D01*
X148590000Y-113030000D02*
X149225000Y-113665000D01*
X149225000Y-120390984D02*
X149225000Y-128905000D01*
X148590000Y-111760000D02*
X148590000Y-113030000D01*
X149225000Y-111125000D02*
X148590000Y-111760000D01*
X149225000Y-81915000D02*
X149225000Y-102870000D01*
X148590000Y-78105000D02*
X149225000Y-77470000D01*
X148590000Y-80645000D02*
X148590000Y-78105000D01*
X149225000Y-81280000D02*
X148590000Y-80645000D01*
X149225000Y-77470000D02*
X149225000Y-70485000D01*
X149225000Y-81915000D02*
X149225000Y-81280000D01*
X149225000Y-128905000D02*
X149225000Y-135255000D01*
X149225000Y-135255000D02*
X149225000Y-139700000D01*
X149225000Y-139700000D02*
X149225000Y-139700000D01*
X149225000Y-102870000D02*
X149225000Y-111125000D01*
%TO.N,Net-(IC1001-Pad17)*%
X168554979Y-90451389D02*
X168275000Y-90171410D01*
X168554979Y-129063023D02*
X168554979Y-90451389D01*
X168275000Y-129343002D02*
X168554979Y-129063023D01*
X168275000Y-131445000D02*
X168275000Y-129343002D01*
X168275000Y-85725000D02*
X167640000Y-85090000D01*
X168275000Y-90171410D02*
X168275000Y-85725000D01*
X167640000Y-85090000D02*
X167640000Y-85090000D01*
%TO.N,Net-(IC1001-Pad7)*%
X141369999Y-117874999D02*
X144145000Y-120650000D01*
X141369999Y-92474999D02*
X141369999Y-117874999D01*
X140970000Y-92075000D02*
X141369999Y-92474999D01*
%TO.N,Net-(IC1001-Pad16)*%
X147955000Y-75565000D02*
X147955000Y-86995000D01*
X147955000Y-86995000D02*
X147955000Y-101600000D01*
X179070000Y-104140000D02*
X179070000Y-109855000D01*
X179070000Y-109855000D02*
X179070000Y-133985000D01*
X179070000Y-133985000D02*
X179070000Y-133985000D01*
%TO.N,Net-(IC1001-Pad6)*%
X140335000Y-89535000D02*
X140335000Y-89535000D01*
X139700000Y-118745000D02*
X140335000Y-118110000D01*
X139700000Y-120650000D02*
X139700000Y-118745000D01*
X140919989Y-99110011D02*
X140335000Y-99695000D01*
X140335000Y-95885000D02*
X140919989Y-96469989D01*
X140919989Y-96469989D02*
X140919989Y-99110011D01*
X140335000Y-93345000D02*
X140335000Y-95885000D01*
X140244999Y-93254999D02*
X140335000Y-93345000D01*
X140335000Y-99695000D02*
X140335000Y-118110000D01*
X140244999Y-91726999D02*
X140244999Y-93254999D01*
X140335000Y-91636998D02*
X140244999Y-91726999D01*
X140335000Y-89535000D02*
X140335000Y-91636998D01*
%TO.N,Net-(IC1001-Pad15)*%
X147229999Y-102144999D02*
X147955000Y-102870000D01*
X147229999Y-101251999D02*
X147229999Y-102144999D01*
X147504990Y-100977008D02*
X147229999Y-101251999D01*
X147504990Y-91624990D02*
X147504990Y-100977008D01*
X146685000Y-90805000D02*
X147504990Y-91624990D01*
%TO.N,Net-(IC1001-Pad5)*%
X139065000Y-86995000D02*
X139065000Y-96520000D01*
%TO.N,Net-(IC1001-Pad14)*%
X154940000Y-92075000D02*
X154940000Y-92075000D01*
X154940000Y-92075000D02*
X154940000Y-95885000D01*
X154940000Y-95885000D02*
X154940000Y-95885000D01*
%TO.N,Net-(IC1001-Pad4)*%
X138194999Y-115969999D02*
X137795000Y-115570000D01*
X138194999Y-116440001D02*
X137885001Y-116749999D01*
X138194999Y-115969999D02*
X138194999Y-116440001D01*
X137885001Y-117384999D02*
X137210011Y-118059989D01*
X137885001Y-116749999D02*
X137885001Y-117384999D01*
X137210011Y-121335011D02*
X137795000Y-121920000D01*
X137210011Y-118059989D02*
X137210011Y-121335011D01*
X145415000Y-112308996D02*
X145670010Y-112564006D01*
X145670010Y-110955994D02*
X145415000Y-111211004D01*
X145415000Y-111211004D02*
X145415000Y-112308996D01*
X145670010Y-110024006D02*
X145670010Y-110955994D01*
X145415000Y-108671004D02*
X145415000Y-109768996D01*
X145670010Y-108415994D02*
X145415000Y-108671004D01*
X145415000Y-109768996D02*
X145670010Y-110024006D01*
X145670010Y-85469990D02*
X145670010Y-108415994D01*
X145670010Y-114044990D02*
X144145000Y-115570000D01*
X145670010Y-112564006D02*
X145670010Y-114044990D01*
X146685000Y-84455000D02*
X145670010Y-85469990D01*
%TO.N,Net-(IC1001-Pad3)*%
X137069999Y-115463003D02*
X137069999Y-79465001D01*
X136125001Y-116408001D02*
X137069999Y-115463003D01*
X136125001Y-126600001D02*
X136125001Y-116408001D01*
X136525000Y-127000000D02*
X136125001Y-126600001D01*
X137069999Y-79465001D02*
X137160000Y-79375000D01*
X137160000Y-79375000D02*
X137160000Y-79375000D01*
%TO.N,Net-(IC1001-Pad12)*%
X154940000Y-97155000D02*
X154940000Y-110490000D01*
%TO.N,Net-(IC1001-Pad2)*%
X134220001Y-124060001D02*
X134620000Y-124460000D01*
X134220001Y-110889999D02*
X134220001Y-124060001D01*
X134620000Y-110490000D02*
X134220001Y-110889999D01*
X149860000Y-80645000D02*
X149860000Y-80645000D01*
X149950001Y-105954999D02*
X149860000Y-106045000D01*
X149950001Y-102521999D02*
X149950001Y-105954999D01*
X149860000Y-82353002D02*
X149860000Y-102431998D01*
X149950001Y-82263001D02*
X149860000Y-82353002D01*
X149950001Y-80735001D02*
X149950001Y-82263001D01*
X149860000Y-80645000D02*
X149950001Y-80735001D01*
X149860000Y-106045000D02*
X149860000Y-105410000D01*
X149860000Y-102431998D02*
X149950001Y-102521999D01*
X149860000Y-111760000D02*
X149860000Y-106045000D01*
%TO.N,Net-(IC1002-Pad11)*%
X173355000Y-100330000D02*
X173355000Y-113665000D01*
X173355000Y-113665000D02*
X173355000Y-113665000D01*
%TO.N,Net-(IC1002-Pad10)*%
X172320001Y-98189999D02*
X172320001Y-115170001D01*
X172720000Y-97790000D02*
X172320001Y-98189999D01*
X172320001Y-115170001D02*
X173355000Y-116205000D01*
X173355000Y-116205000D02*
X173355000Y-116205000D01*
%TO.N,Net-(IC1002-Pad9)*%
X171685001Y-95649999D02*
X171685001Y-117075001D01*
X172085000Y-95250000D02*
X171685001Y-95649999D01*
X171685001Y-117075001D02*
X173355000Y-118745000D01*
X173355000Y-118745000D02*
X173355000Y-118745000D01*
%TO.N,Net-(IC1002-Pad20)*%
X167640000Y-128905000D02*
X168104969Y-128440031D01*
X168104969Y-128440031D02*
X168104969Y-97155000D01*
X168104969Y-97155000D02*
X168104969Y-96984969D01*
X168104969Y-96984969D02*
X167640000Y-96520000D01*
X167640000Y-96520000D02*
X167640000Y-96520000D01*
X158750000Y-96520000D02*
X158750000Y-105410000D01*
%TO.N,Net-(IC1002-Pad8)*%
X171050001Y-93109999D02*
X171050001Y-118980001D01*
X171450000Y-92710000D02*
X171050001Y-93109999D01*
X171050001Y-118980001D02*
X173355000Y-121285000D01*
X173355000Y-121285000D02*
X173355000Y-121285000D01*
%TO.N,Net-(IC1002-Pad19)*%
X167640000Y-94615000D02*
X167640000Y-94615000D01*
X166914999Y-95340001D02*
X167640000Y-94615000D01*
X166914999Y-102779999D02*
X166914999Y-95340001D01*
X167640000Y-103505000D02*
X166914999Y-102779999D01*
X167640000Y-125730000D02*
X167640000Y-103505000D01*
X167005000Y-126365000D02*
X167640000Y-125730000D01*
X133350000Y-82550000D02*
X133350000Y-90805000D01*
%TO.N,Net-(IC1002-Pad7)*%
X170815000Y-90170000D02*
X170599991Y-90385009D01*
X170599991Y-90385009D02*
X170599991Y-121069991D01*
X170599991Y-121069991D02*
X173355000Y-123825000D01*
X173355000Y-123825000D02*
X173355000Y-123825000D01*
%TO.N,Net-(IC1002-Pad18)*%
X165735000Y-123825000D02*
X166370000Y-123825000D01*
X166370000Y-123825000D02*
X167005000Y-123190000D01*
X167005000Y-123190000D02*
X167005000Y-104140000D01*
X166279999Y-103414999D02*
X166279999Y-93435001D01*
X167005000Y-104140000D02*
X166279999Y-103414999D01*
X166279999Y-93435001D02*
X167640000Y-92075000D01*
X167640000Y-92075000D02*
X167640000Y-92075000D01*
X156210000Y-99060000D02*
X156210000Y-91440000D01*
%TO.N,Net-(IC1002-Pad6)*%
X170180000Y-87630000D02*
X170180000Y-88900000D01*
X170089999Y-89821999D02*
X170089999Y-124369999D01*
X170180000Y-89731998D02*
X170089999Y-89821999D01*
X170180000Y-88900000D02*
X170180000Y-89731998D01*
X170089999Y-124369999D02*
X171450000Y-125730000D01*
X171450000Y-125730000D02*
X171450000Y-125730000D01*
%TO.N,Net-(IC1002-Pad17)*%
X165100000Y-121285000D02*
X165735000Y-121285000D01*
X165735000Y-121285000D02*
X166370000Y-120650000D01*
X166370000Y-120650000D02*
X166370000Y-118745000D01*
X166370000Y-110490000D02*
X166554990Y-110305010D01*
X166370000Y-118745000D02*
X166370000Y-110490000D01*
X166554990Y-110305010D02*
X166554990Y-104959990D01*
X166554990Y-104959990D02*
X165735000Y-104140000D01*
X165735000Y-104140000D02*
X165735000Y-91440000D01*
X165735000Y-91440000D02*
X167322500Y-89852500D01*
X167322500Y-89852500D02*
X167640000Y-89535000D01*
%TO.N,Net-(IC1002-Pad5)*%
X169545000Y-85090000D02*
X169545000Y-86995000D01*
X169454999Y-87085001D02*
X169454999Y-126274999D01*
X169545000Y-86995000D02*
X169454999Y-87085001D01*
X169454999Y-126274999D02*
X171450000Y-128270000D01*
X171450000Y-128270000D02*
X171450000Y-128270000D01*
%TO.N,Net-(IC1002-Pad16)*%
X163830000Y-118745000D02*
X165100000Y-118745000D01*
X165100000Y-118745000D02*
X165735000Y-118110000D01*
X165735000Y-109855000D02*
X166104980Y-109485020D01*
X165735000Y-118110000D02*
X165735000Y-109855000D01*
X166104980Y-109485020D02*
X166104980Y-105146390D01*
X165284990Y-104326400D02*
X165284990Y-89985010D01*
X166104980Y-105146390D02*
X165284990Y-104326400D01*
X165284990Y-89985010D02*
X167322500Y-87947500D01*
X167322500Y-87947500D02*
X167640000Y-87630000D01*
X139790001Y-85634999D02*
X140335000Y-85090000D01*
X139790001Y-87343001D02*
X139790001Y-85634999D01*
X139515010Y-95897008D02*
X139515010Y-87617992D01*
X140099999Y-96481997D02*
X139515010Y-95897008D01*
X139515010Y-87617992D02*
X139790001Y-87343001D01*
X140099999Y-98025001D02*
X140099999Y-96481997D01*
X139700000Y-98425000D02*
X140099999Y-98025001D01*
%TO.N,Net-(IC1002-Pad4)*%
X168910000Y-82550000D02*
X168910000Y-83820000D01*
X168819999Y-84741999D02*
X168819999Y-90079999D01*
X168910000Y-84651998D02*
X168819999Y-84741999D01*
X168910000Y-83820000D02*
X168910000Y-84651998D01*
X169004989Y-90264989D02*
X169004989Y-128999989D01*
X168819999Y-90079999D02*
X169004989Y-90264989D01*
X169004989Y-128999989D02*
X171450000Y-131445000D01*
X171450000Y-131445000D02*
X171450000Y-131445000D01*
%TO.N,Net-(IC1002-Pad15)*%
X163195000Y-116205000D02*
X163830000Y-116205000D01*
X163830000Y-116205000D02*
X165100000Y-114935000D01*
X165100000Y-114935000D02*
X165100000Y-114300000D01*
X165100000Y-109853590D02*
X165654970Y-109298620D01*
X165100000Y-114300000D02*
X165100000Y-109853590D01*
X165654970Y-109298620D02*
X165654970Y-105964970D01*
X165654970Y-105964970D02*
X165654970Y-105410000D01*
X165654970Y-105410000D02*
X165654970Y-105332790D01*
X165654970Y-105410000D02*
X164465000Y-104220030D01*
X167640000Y-84016998D02*
X167640000Y-83820000D01*
X164465000Y-87191998D02*
X167640000Y-84016998D01*
X164465000Y-104220030D02*
X164465000Y-87191998D01*
X158750000Y-95250000D02*
X158750000Y-83820000D01*
%TO.N,Net-(IC1002-Pad14)*%
X167640000Y-81280000D02*
X167640000Y-81280000D01*
X166370000Y-82550000D02*
X166370000Y-83820000D01*
X166370000Y-82550000D02*
X167640000Y-81280000D01*
X164014991Y-86175009D02*
X164014991Y-104959991D01*
X166370000Y-83820000D02*
X164014991Y-86175009D01*
X164465000Y-105410000D02*
X164465000Y-106680000D01*
X164014991Y-104959991D02*
X164465000Y-105410000D01*
X164465000Y-106680000D02*
X165100000Y-107315000D01*
X165100000Y-109217180D02*
X164465000Y-109852180D01*
X165100000Y-107315000D02*
X165100000Y-109217180D01*
X164465000Y-112395000D02*
X163195000Y-113665000D01*
X164465000Y-109852180D02*
X164465000Y-112395000D01*
X132479999Y-81679999D02*
X132479999Y-94850001D01*
X132479999Y-94850001D02*
X132080000Y-95250000D01*
X132080000Y-81280000D02*
X132479999Y-81679999D01*
%TO.N,Net-(IC1002-Pad13)*%
X163195000Y-111125000D02*
X163195000Y-83185000D01*
X163195000Y-83185000D02*
X167005000Y-79375000D01*
X167005000Y-79375000D02*
X167005000Y-79375000D01*
X131045001Y-75329999D02*
X131445000Y-74930000D01*
X131045001Y-88500001D02*
X131045001Y-75329999D01*
X131445000Y-88900000D02*
X131045001Y-88500001D01*
%TO.N,Net-(J1001-Pad7)*%
X129449989Y-132335009D02*
X129449989Y-140425011D01*
X129049990Y-131935010D02*
X129449989Y-132335009D01*
X129449989Y-140425011D02*
X128905000Y-140970000D01*
X128905000Y-140970000D02*
X128905000Y-140970000D01*
%TO.N,Net-(J1001-Pad5)*%
X129939999Y-136924999D02*
X131445000Y-138430000D01*
X129939999Y-131209999D02*
X129939999Y-136924999D01*
X129540000Y-130810000D02*
X129939999Y-131209999D01*
%TO.N,Net-(J1001-Pad3)*%
X128324989Y-132374987D02*
X128905000Y-132954998D01*
X128324989Y-128850011D02*
X128324989Y-132374987D01*
X128905000Y-128270000D02*
X128324989Y-128850011D01*
X128270000Y-135255000D02*
X127635000Y-135890000D01*
X128905000Y-135255000D02*
X128270000Y-135255000D01*
X128905000Y-132954998D02*
X128905000Y-135255000D01*
%TO.N,Net-(J1001-Pad1)*%
X127635000Y-133350000D02*
X127635000Y-123190000D01*
%TO.N,Net-(J1002-Pad20)*%
X176530000Y-149225000D02*
X176530000Y-143510000D01*
X191770000Y-142875000D02*
X191770000Y-104775000D01*
X191770000Y-104775000D02*
X191770000Y-104775000D01*
%TO.N,Net-(J1002-Pad1)*%
X173355000Y-149225000D02*
X173355000Y-141605000D01*
X173355000Y-141605000D02*
X173355000Y-140970000D01*
X173355000Y-140970000D02*
X173355000Y-140970000D01*
X193040000Y-140970000D02*
X193040000Y-83185000D01*
X193040000Y-83185000D02*
X193040000Y-83185000D01*
%TO.N,Net-(R1001-Pad1)*%
X155575000Y-140970000D02*
X155575000Y-139700000D01*
X155575000Y-139700000D02*
X154940000Y-139065000D01*
X154940000Y-131445000D02*
X155575000Y-130810000D01*
X154940000Y-139065000D02*
X154940000Y-131445000D01*
%TO.N,Net-(R1002-Pad1)*%
X119615001Y-92474999D02*
X119615001Y-98660001D01*
X120015000Y-92075000D02*
X119615001Y-92474999D01*
X120650000Y-99695000D02*
X120650000Y-103505000D01*
X119615001Y-98660001D02*
X120650000Y-99695000D01*
%TO.N,Net-(R1003-Pad1)*%
X122010001Y-101509999D02*
X121920000Y-101600000D01*
X122010001Y-98076999D02*
X122010001Y-101509999D01*
X121920000Y-97986998D02*
X122010001Y-98076999D01*
X121920000Y-89535000D02*
X121920000Y-97986998D01*
%TO.N,Net-(R1004-Pad1)*%
X121194999Y-87085001D02*
X121285000Y-86995000D01*
X121375001Y-90063003D02*
X121194999Y-89883001D01*
X121375001Y-95598001D02*
X121375001Y-90063003D01*
X121285000Y-95688002D02*
X121375001Y-95598001D01*
X121194999Y-89883001D02*
X121194999Y-87085001D01*
X121285000Y-98425000D02*
X121285000Y-95688002D01*
%TO.N,Net-(R1005-Pad1)*%
X120559999Y-84545001D02*
X120650000Y-84455000D01*
X120559999Y-87343001D02*
X120559999Y-84545001D01*
X120740001Y-87523003D02*
X120559999Y-87343001D01*
X120740001Y-92619999D02*
X120740001Y-87523003D01*
X120650000Y-92710000D02*
X120740001Y-92619999D01*
X120650000Y-95250000D02*
X120650000Y-92710000D01*
%TO.N,Net-(R1006-Pad1)*%
X122010001Y-83094999D02*
X122555000Y-82550000D01*
X122645001Y-89151435D02*
X122010001Y-88516435D01*
X122394998Y-90133004D02*
X122645001Y-89883001D01*
X122010001Y-88516435D02*
X122010001Y-83094999D01*
X122394998Y-92964996D02*
X122394998Y-90133004D01*
X122645001Y-89883001D02*
X122645001Y-89151435D01*
X122665001Y-93234999D02*
X122394998Y-92964996D01*
%TO.N,Net-(R1007-Pad1)*%
X122790001Y-88660025D02*
X122790001Y-84854999D01*
X123744988Y-89615012D02*
X122790001Y-88660025D01*
X123684998Y-89675002D02*
X123744988Y-89615012D01*
X122790001Y-84854999D02*
X123190000Y-84455000D01*
X123684998Y-90170000D02*
X123684998Y-89675002D01*
X123119999Y-90734999D02*
X123684998Y-90170000D01*
%TO.N,Net-(R1008-Pad1)*%
X124194998Y-91705002D02*
X123825000Y-92075000D01*
X124194998Y-88634998D02*
X124194998Y-91705002D01*
X123794999Y-88234999D02*
X124194998Y-88634998D01*
%TO.N,Net-(R1010-Pad2)*%
X158750000Y-153035000D02*
X157480000Y-151765000D01*
X158750000Y-154940000D02*
X158750000Y-153035000D01*
X163830000Y-154940000D02*
X163830000Y-147320000D01*
%TO.N,Net-(J1002-Pad28)*%
X187325000Y-152400000D02*
X187325000Y-114935000D01*
X187325000Y-114935000D02*
X187325000Y-114935000D01*
%TO.N,Net-(J1002-Pad39)*%
X182245000Y-138430000D02*
X182245000Y-130175000D01*
%TO.N,Net-(U1001-Pad23)*%
X124460000Y-133985000D02*
X124460000Y-109220000D01*
X124460000Y-109220000D02*
X124460000Y-109220000D01*
%TO.N,Net-(J1002-Pad33)*%
X155810001Y-131648001D02*
X156300001Y-131158001D01*
X155810001Y-134855001D02*
X155810001Y-131648001D01*
X156210000Y-135255000D02*
X155810001Y-134855001D01*
X156300001Y-116930001D02*
X155484999Y-116114999D01*
X155484999Y-113120001D02*
X155575000Y-113030000D01*
X155484999Y-116114999D02*
X155484999Y-113120001D01*
X156300001Y-118835001D02*
X156300001Y-119289999D01*
X156300001Y-118835001D02*
X156300001Y-116930001D01*
X156300001Y-119289999D02*
X156210000Y-119380000D01*
X156210000Y-119380000D02*
X155575000Y-120015000D01*
X155575000Y-120015000D02*
X155575000Y-120015000D01*
X155575000Y-121739998D02*
X156300001Y-122464999D01*
X155575000Y-120015000D02*
X155575000Y-121739998D01*
X156300001Y-131158001D02*
X156300001Y-122464999D01*
%TO.N,Net-(U1001-Pad9)*%
X136760001Y-117239999D02*
X137160000Y-116840000D01*
X136760001Y-125330001D02*
X136760001Y-117239999D01*
X137160000Y-125730000D02*
X136760001Y-125330001D01*
%TO.N,Net-(J1002-Pad36)*%
X156845000Y-116205000D02*
X156845000Y-132080000D01*
X156210000Y-115570000D02*
X156845000Y-116205000D01*
X189465001Y-132315001D02*
X189865000Y-132715000D01*
X189465001Y-125494999D02*
X189465001Y-132315001D01*
X189865000Y-125095000D02*
X189465001Y-125494999D01*
%TO.N,Net-(J1002-Pad35)*%
X154214999Y-124189997D02*
X154214999Y-119470001D01*
X154214999Y-119470001D02*
X155575000Y-118110000D01*
X155030001Y-125004999D02*
X154214999Y-124189997D01*
%TO.N,Net-(J1002-Pad38)*%
X190899999Y-128034999D02*
X190899999Y-134220001D01*
X190500000Y-127635000D02*
X190899999Y-128034999D01*
X190899999Y-134220001D02*
X190500000Y-134620000D01*
X190500000Y-134620000D02*
X190500000Y-134620000D01*
X147955000Y-120650000D02*
X147955000Y-135890000D01*
%TO.N,Net-(J1002-Pad37)*%
X155755002Y-124005002D02*
X154940000Y-123190000D01*
X155755002Y-126819998D02*
X155755002Y-124005002D01*
X155030001Y-127544999D02*
X155755002Y-126819998D01*
%TO.N,Net-(U1001-Pad4)*%
X139065000Y-113030000D02*
X139649989Y-113614989D01*
X139649989Y-117525011D02*
X139065000Y-118110000D01*
X139649989Y-113614989D02*
X139649989Y-117525011D01*
%TO.N,Net-(U1001-Pad2)*%
X136289999Y-108349999D02*
X135890000Y-107950000D01*
X136289999Y-115170001D02*
X136289999Y-108349999D01*
X135890000Y-115570000D02*
X136289999Y-115170001D01*
%TO.N,Net-(U1001-Pad1)*%
X135345001Y-114129999D02*
X135215000Y-114260000D01*
X135345001Y-110141999D02*
X135345001Y-114129999D01*
X134855001Y-109651999D02*
X135345001Y-110141999D01*
X134855001Y-107079999D02*
X134855001Y-109651999D01*
X135255000Y-106680000D02*
X134855001Y-107079999D01*
%TO.N,Net-(U1002-Pad2)*%
X123190000Y-144780000D02*
X123190000Y-125730000D01*
%TO.N,Net-(X1001-PadA01)*%
X113465000Y-79260000D02*
X113465000Y-76760000D01*
X118465000Y-79260000D02*
X118465000Y-76760000D01*
X111353600Y-77470000D02*
X111353600Y-74930000D01*
X106273600Y-77470000D02*
X106273600Y-74930000D01*
X118465000Y-129260000D02*
X118465000Y-126760000D01*
X111353600Y-125730000D02*
X111353600Y-128270000D01*
%TD*%
M02*
