%TF.GenerationSoftware,KiCad,Pcbnew,(5.1.10)-1*%
%TF.CreationDate,2022-02-22T06:58:17+01:00*%
%TF.ProjectId,Gide,47696465-2e6b-4696-9361-645f70636258,rev?*%
%TF.SameCoordinates,Original*%
%TF.FileFunction,Soldermask,Bot*%
%TF.FilePolarity,Negative*%
%FSLAX46Y46*%
G04 Gerber Fmt 4.6, Leading zero omitted, Abs format (unit mm)*
G04 Created by KiCad (PCBNEW (5.1.10)-1) date 2022-02-22 06:58:17*
%MOMM*%
%LPD*%
G01*
G04 APERTURE LIST*
%ADD10O,1.700000X1.700000*%
%ADD11R,1.700000X1.700000*%
%ADD12C,1.600000*%
%ADD13O,2.400000X1.600000*%
%ADD14R,2.400000X1.600000*%
%ADD15C,1.400000*%
%ADD16C,1.610000*%
%ADD17O,1.600000X1.600000*%
%ADD18R,1.600000X1.600000*%
%ADD19C,1.800000*%
%ADD20R,1.800000X1.800000*%
%ADD21C,1.200000*%
%ADD22R,1.200000X1.200000*%
G04 APERTURE END LIST*
D10*
%TO.C,J1002*%
X184785000Y-130175000D03*
X182245000Y-130175000D03*
X184785000Y-127635000D03*
X182245000Y-127635000D03*
X184785000Y-125095000D03*
X182245000Y-125095000D03*
X184785000Y-122555000D03*
X182245000Y-122555000D03*
X184785000Y-120015000D03*
X182245000Y-120015000D03*
X184785000Y-117475000D03*
X182245000Y-117475000D03*
X184785000Y-114935000D03*
X182245000Y-114935000D03*
X184785000Y-112395000D03*
X182245000Y-112395000D03*
X184785000Y-109855000D03*
X182245000Y-109855000D03*
X184785000Y-107315000D03*
X182245000Y-107315000D03*
X184785000Y-104775000D03*
X182245000Y-104775000D03*
X184785000Y-102235000D03*
X182245000Y-102235000D03*
X184785000Y-99695000D03*
X182245000Y-99695000D03*
X184785000Y-97155000D03*
X182245000Y-97155000D03*
X184785000Y-94615000D03*
X182245000Y-94615000D03*
X184785000Y-92075000D03*
X182245000Y-92075000D03*
X184785000Y-89535000D03*
X182245000Y-89535000D03*
X184785000Y-86995000D03*
X182245000Y-86995000D03*
X184785000Y-84455000D03*
X182245000Y-84455000D03*
X184785000Y-81915000D03*
D11*
X182245000Y-81915000D03*
%TD*%
D12*
%TO.C,C1003*%
X179070000Y-139065000D03*
X179070000Y-136565000D03*
%TD*%
D13*
%TO.C,IC1003*%
X161290000Y-106680000D03*
X176530000Y-78740000D03*
X161290000Y-104140000D03*
X176530000Y-81280000D03*
X161290000Y-101600000D03*
X176530000Y-83820000D03*
X161290000Y-99060000D03*
X176530000Y-86360000D03*
X161290000Y-96520000D03*
X176530000Y-88900000D03*
X161290000Y-93980000D03*
X176530000Y-91440000D03*
X161290000Y-91440000D03*
X176530000Y-93980000D03*
X161290000Y-88900000D03*
X176530000Y-96520000D03*
X161290000Y-86360000D03*
X176530000Y-99060000D03*
X161290000Y-83820000D03*
X176530000Y-101600000D03*
X161290000Y-81280000D03*
X176530000Y-104140000D03*
X161290000Y-78740000D03*
D14*
X176530000Y-106680000D03*
%TD*%
D13*
%TO.C,IC1002*%
X160655000Y-139065000D03*
X175895000Y-111125000D03*
X160655000Y-136525000D03*
X175895000Y-113665000D03*
X160655000Y-133985000D03*
X175895000Y-116205000D03*
X160655000Y-131445000D03*
X175895000Y-118745000D03*
X160655000Y-128905000D03*
X175895000Y-121285000D03*
X160655000Y-126365000D03*
X175895000Y-123825000D03*
X160655000Y-123825000D03*
X175895000Y-126365000D03*
X160655000Y-121285000D03*
X175895000Y-128905000D03*
X160655000Y-118745000D03*
X175895000Y-131445000D03*
X160655000Y-116205000D03*
X175895000Y-133985000D03*
X160655000Y-113665000D03*
X175895000Y-136525000D03*
X160655000Y-111125000D03*
D14*
X175895000Y-139065000D03*
%TD*%
D12*
%TO.C,C1008*%
X179745000Y-78105000D03*
X182245000Y-78105000D03*
%TD*%
D15*
%TO.C,X1001*%
X106273600Y-80010000D03*
X113465000Y-146760000D03*
X113465000Y-144260000D03*
X113465000Y-141760000D03*
X113465000Y-139260000D03*
X113465000Y-136760000D03*
X113465000Y-134260000D03*
X113465000Y-131760000D03*
X113465000Y-129260000D03*
X113465000Y-126760000D03*
X113465000Y-124260000D03*
X113465000Y-121760000D03*
X113465000Y-119260000D03*
X113465000Y-116760000D03*
X113465000Y-114260000D03*
X113465000Y-111760000D03*
X113465000Y-109260000D03*
X113465000Y-106760000D03*
X113465000Y-104260000D03*
X113465000Y-101760000D03*
X113465000Y-99260000D03*
X113465000Y-96760000D03*
X113465000Y-94260000D03*
X113465000Y-91760000D03*
X113465000Y-89260000D03*
X113465000Y-86760000D03*
X113465000Y-84260000D03*
X113465000Y-81760000D03*
X113465000Y-79260000D03*
X113465000Y-76760000D03*
X118465000Y-146760000D03*
X118465000Y-144260000D03*
X118465000Y-141760000D03*
X118465000Y-139260000D03*
X118465000Y-136760000D03*
X118465000Y-134260000D03*
X118465000Y-131760000D03*
X118465000Y-129260000D03*
X118465000Y-126760000D03*
X118465000Y-124260000D03*
X118465000Y-121760000D03*
X118465000Y-119260000D03*
X118465000Y-116760000D03*
X118465000Y-114260000D03*
X118465000Y-111760000D03*
X118465000Y-109260000D03*
X118465000Y-106760000D03*
X118465000Y-104260000D03*
X118465000Y-101760000D03*
X118465000Y-99260000D03*
X118465000Y-96760000D03*
X118465000Y-94260000D03*
X118465000Y-91760000D03*
X118465000Y-89260000D03*
X118465000Y-86760000D03*
X118465000Y-84260000D03*
X118465000Y-81760000D03*
X118465000Y-79260000D03*
X118465000Y-76760000D03*
D16*
X105965000Y-70510000D03*
D15*
X111353600Y-146050000D03*
X111353600Y-143510000D03*
X111353600Y-140970000D03*
X111353600Y-138430000D03*
X111353600Y-135890000D03*
X111353600Y-133350000D03*
X111353600Y-130810000D03*
X111353600Y-128270000D03*
X111353600Y-125730000D03*
X111353600Y-123190000D03*
X111353600Y-120650000D03*
X111353600Y-118110000D03*
X111353600Y-115570000D03*
X111353600Y-113030000D03*
X111353600Y-110490000D03*
X111353600Y-107950000D03*
X111353600Y-105410000D03*
X111353600Y-102870000D03*
X111353600Y-100330000D03*
X111353600Y-97790000D03*
X111353600Y-95250000D03*
X111353600Y-92710000D03*
X111353600Y-90170000D03*
X111353600Y-87630000D03*
X111353600Y-85090000D03*
X111353600Y-82550000D03*
X111353600Y-80010000D03*
X111353600Y-77470000D03*
X111353600Y-74930000D03*
X106273600Y-146050000D03*
X106273600Y-143510000D03*
X106273600Y-140970000D03*
X106273600Y-138430000D03*
X106273600Y-135890000D03*
X106273600Y-133350000D03*
X106273600Y-130810000D03*
X106273600Y-128270000D03*
X106273600Y-125730000D03*
X106273600Y-123190000D03*
X106273600Y-120650000D03*
X106273600Y-118110000D03*
X106273600Y-115570000D03*
X106273600Y-113030000D03*
X106273600Y-110490000D03*
X106273600Y-107950000D03*
X106273600Y-105410000D03*
X106273600Y-102870000D03*
X106273600Y-100330000D03*
X106273600Y-97790000D03*
X106273600Y-95250000D03*
X106273600Y-92710000D03*
X106273600Y-90170000D03*
X106273600Y-87630000D03*
X106273600Y-85090000D03*
X106273600Y-82550000D03*
X106273600Y-77470000D03*
X106273600Y-74930000D03*
D16*
X103733600Y-156210000D03*
X103733600Y-67310000D03*
%TD*%
D10*
%TO.C,J1003*%
X176530000Y-149225000D03*
D11*
X179070000Y-149225000D03*
%TD*%
D12*
%TO.C,C1007*%
X154305000Y-74335000D03*
X154305000Y-76835000D03*
%TD*%
%TO.C,C1006*%
X147995000Y-154940000D03*
X150495000Y-154940000D03*
%TD*%
%TO.C,C1005*%
X121245000Y-149860000D03*
X118745000Y-149860000D03*
%TD*%
%TO.C,C1004*%
X144185000Y-137160000D03*
X146685000Y-137160000D03*
%TD*%
D13*
%TO.C,U1002*%
X157480000Y-144145000D03*
X149860000Y-151765000D03*
X157480000Y-146685000D03*
X149860000Y-149225000D03*
X157480000Y-149225000D03*
X149860000Y-146685000D03*
X157480000Y-151765000D03*
D14*
X149860000Y-144145000D03*
%TD*%
D13*
%TO.C,U1001*%
X151765000Y-105410000D03*
X144145000Y-133350000D03*
X151765000Y-107950000D03*
X144145000Y-130810000D03*
X151765000Y-110490000D03*
X144145000Y-128270000D03*
X151765000Y-113030000D03*
X144145000Y-125730000D03*
X151765000Y-115570000D03*
X144145000Y-123190000D03*
X151765000Y-118110000D03*
X144145000Y-120650000D03*
X151765000Y-120650000D03*
X144145000Y-118110000D03*
X151765000Y-123190000D03*
X144145000Y-115570000D03*
X151765000Y-125730000D03*
X144145000Y-113030000D03*
X151765000Y-128270000D03*
X144145000Y-110490000D03*
X151765000Y-130810000D03*
X144145000Y-107950000D03*
X151765000Y-133350000D03*
D14*
X144145000Y-105410000D03*
%TD*%
D17*
%TO.C,RN1001*%
X127635000Y-133350000D03*
X127635000Y-135890000D03*
X127635000Y-138430000D03*
X127635000Y-140970000D03*
D18*
X127635000Y-143510000D03*
%TD*%
D17*
%TO.C,R1013*%
X190500000Y-138430000D03*
D12*
X190500000Y-148590000D03*
%TD*%
D17*
%TO.C,R1012*%
X171450000Y-151130000D03*
D12*
X161290000Y-151130000D03*
%TD*%
D17*
%TO.C,R1011*%
X168910000Y-154940000D03*
D12*
X158750000Y-154940000D03*
%TD*%
D17*
%TO.C,R1010*%
X171450000Y-147320000D03*
D12*
X161290000Y-147320000D03*
%TD*%
D17*
%TO.C,R1009*%
X135890000Y-88900000D03*
D12*
X125730000Y-88900000D03*
%TD*%
D17*
%TO.C,R1008*%
X135890000Y-92075000D03*
D12*
X125730000Y-92075000D03*
%TD*%
D17*
%TO.C,R1007*%
X135890000Y-85725000D03*
D12*
X125730000Y-85725000D03*
%TD*%
D17*
%TO.C,R1006*%
X135890000Y-82550000D03*
D12*
X125730000Y-82550000D03*
%TD*%
D17*
%TO.C,R1005*%
X135890000Y-95250000D03*
D12*
X125730000Y-95250000D03*
%TD*%
D17*
%TO.C,R1004*%
X135890000Y-98425000D03*
D12*
X125730000Y-98425000D03*
%TD*%
D17*
%TO.C,R1003*%
X135890000Y-101600000D03*
D12*
X125730000Y-101600000D03*
%TD*%
D17*
%TO.C,R1002*%
X135890000Y-104140000D03*
D12*
X125730000Y-104140000D03*
%TD*%
D17*
%TO.C,R1001*%
X171450000Y-143510000D03*
D12*
X161290000Y-143510000D03*
%TD*%
D10*
%TO.C,J1001*%
X133985000Y-140970000D03*
X131445000Y-140970000D03*
X133985000Y-138430000D03*
X131445000Y-138430000D03*
X133985000Y-135890000D03*
X131445000Y-135890000D03*
X133985000Y-133350000D03*
D11*
X131445000Y-133350000D03*
%TD*%
D13*
%TO.C,IC1001*%
X151765000Y-76835000D03*
X144145000Y-99695000D03*
X151765000Y-79375000D03*
X144145000Y-97155000D03*
X151765000Y-81915000D03*
X144145000Y-94615000D03*
X151765000Y-84455000D03*
X144145000Y-92075000D03*
X151765000Y-86995000D03*
X144145000Y-89535000D03*
X151765000Y-89535000D03*
X144145000Y-86995000D03*
X151765000Y-92075000D03*
X144145000Y-84455000D03*
X151765000Y-94615000D03*
X144145000Y-81915000D03*
X151765000Y-97155000D03*
X144145000Y-79375000D03*
X151765000Y-99695000D03*
D14*
X144145000Y-76835000D03*
%TD*%
D19*
%TO.C,D1001*%
X190500000Y-151130000D03*
D20*
X190500000Y-153670000D03*
%TD*%
D12*
%TO.C,C1002*%
X153075000Y-154940000D03*
X155575000Y-154940000D03*
%TD*%
D21*
%TO.C,C1001*%
X144780000Y-151225000D03*
D22*
X144780000Y-149225000D03*
%TD*%
M02*
