M48
; DRILL file {KiCad (5.1.10)-1} date 02/22/22 06:58:14
; FORMAT={-:-/ absolute / inch / decimal}
; #@! TF.CreationDate,2022-02-22T06:58:14+01:00
; #@! TF.GenerationSoftware,Kicad,Pcbnew,(5.1.10)-1
; #@! TF.FileFunction,Plated,1,2,PTH
FMAT,2
INCH
T1C0.0157
T2C0.0236
T3C0.0315
T4C0.0354
T5C0.0394
T6C0.0630
%
G90
G05
T1
X4.725Y-3.625
X4.75Y-3.325
X4.75Y-3.75
X4.75Y-4.075
X4.775Y-3.425
X4.775Y-3.875
X4.8Y-3.525
X4.8Y-4.0
X4.825Y-3.25
X4.8293Y-3.6707
X4.8472Y-3.5722
X4.85Y-3.325
X4.85Y-4.95
X4.85Y-5.7
X4.8738Y-3.4738
X4.875Y-3.625
X4.9Y-4.3
X4.9Y-5.275
X5.025Y-4.85
X5.025Y-5.775
X5.075Y-5.05
X5.075Y-5.55
X5.0807Y-5.1943
X5.1Y-5.15
X5.175Y-2.95
X5.175Y-3.5
X5.2Y-3.2
X5.2Y-3.75
X5.25Y-3.25
X5.25Y-3.575
X5.3Y-4.35
X5.3Y-4.9
X5.3234Y-4.4984
X5.325Y-4.2
X5.35Y-4.25
X5.35Y-4.55
X5.375Y-5.0
X5.4Y-3.125
X5.4Y-4.6
X5.4Y-4.95
X5.425Y-4.55
X5.425Y-4.8
X5.4443Y-4.9057
X5.45Y-3.85
X5.475Y-3.425
X5.475Y-3.8
X5.475Y-4.45
X5.475Y-4.65
X5.5Y-3.875
X5.5Y-4.75
X5.525Y-3.35
X5.525Y-3.525
X5.525Y-4.65
X5.55Y-3.625
X5.675Y-5.55
X5.675Y-6.1
X5.775Y-3.325
X5.775Y-3.575
X5.775Y-3.925
X5.775Y-5.25
X5.775Y-5.65
X5.825Y-2.975
X5.825Y-3.425
X5.825Y-4.0
X5.825Y-4.05
X5.825Y-4.75
X5.825Y-5.35
X5.875Y-2.775
X5.875Y-3.225
X5.875Y-4.05
X5.875Y-5.5
X5.9Y-3.175
X5.9Y-4.4
X6.1Y-3.625
X6.1Y-3.775
X6.1Y-3.825
X6.1Y-4.35
X6.1Y-4.85
X6.1035Y-4.9215
X6.1035Y-5.0215
X6.125Y-4.45
X6.125Y-4.65
X6.125Y-4.725
X6.125Y-5.15
X6.125Y-5.55
X6.125Y-5.675
X6.15Y-3.6
X6.15Y-3.9
X6.15Y-4.55
X6.15Y-5.325
X6.15Y-5.325
X6.175Y-5.2
X6.2Y-2.875
X6.2Y-3.025
X6.2Y-4.05
X6.2Y-4.15
X6.2Y-4.2
X6.2Y-5.275
X6.2Y-5.4
X6.2Y-5.475
X6.25Y-3.3
X6.25Y-3.75
X6.25Y-3.8
X6.25Y-4.15
X6.425Y-4.375
X6.425Y-4.475
X6.425Y-4.575
X6.45Y-4.675
X6.45Y-5.8
X6.45Y-6.1
X6.5Y-4.775
X6.525Y-4.875
X6.575Y-3.125
X6.575Y-4.975
X6.5875Y-3.4625
X6.5875Y-3.5375
X6.6Y-3.2
X6.6Y-3.3
X6.6Y-3.35
X6.6Y-3.625
X6.6Y-3.725
X6.6Y-3.8
X6.6Y-5.075
X6.625Y-5.175
X6.65Y-3.25
X6.675Y-3.35
X6.7Y-3.45
X6.725Y-3.55
X6.75Y-3.65
X6.75Y-4.95
X6.75Y-5.05
X6.75Y-5.175
X6.775Y-3.75
X6.8Y-3.85
X6.825Y-3.95
X6.825Y-4.475
X6.825Y-4.575
X6.825Y-4.675
X6.825Y-4.775
X6.825Y-4.875
X6.825Y-5.55
X6.825Y-5.875
X6.95Y-5.65
X7.05Y-4.1
X7.05Y-4.325
X7.05Y-5.275
X7.075Y-2.875
X7.075Y-2.95
X7.125Y-5.375
X7.125Y-5.875
X7.125Y-5.95
X7.175Y-2.825
X7.175Y-5.45
X7.275Y-2.875
X7.275Y-5.5
X7.375Y-4.525
X7.375Y-6.0
X7.425Y-4.425
X7.425Y-5.125
X7.45Y-3.225
X7.475Y-4.925
X7.475Y-5.225
X7.5Y-5.025
X7.5Y-5.3
X7.55Y-4.125
X7.55Y-5.625
X7.6Y-3.275
X7.6Y-5.55
T2
X5.7Y-5.875
X5.7Y-5.9537
T3
X4.4671Y-3.022
X4.4671Y-3.1205
X4.4671Y-3.2189
X4.4671Y-3.3173
X4.4671Y-3.4157
X4.4671Y-3.5142
X4.4671Y-3.6126
X4.4671Y-3.711
X4.4671Y-3.8094
X4.4671Y-3.9079
X4.4671Y-4.0063
X4.4671Y-4.1047
X4.4671Y-4.2031
X4.4671Y-4.3016
X4.4671Y-4.4
X4.4671Y-4.4984
X4.4671Y-4.5969
X4.4671Y-4.6953
X4.4671Y-4.7937
X4.4671Y-4.8921
X4.4671Y-4.9906
X4.4671Y-5.089
X4.4671Y-5.1874
X4.4671Y-5.2858
X4.4671Y-5.3843
X4.4671Y-5.4827
X4.4671Y-5.5811
X4.4671Y-5.6795
X4.4671Y-5.778
X4.664Y-3.022
X4.664Y-3.1205
X4.664Y-3.2189
X4.664Y-3.3173
X4.664Y-3.4157
X4.664Y-3.5142
X4.664Y-3.6126
X4.664Y-3.711
X4.664Y-3.8094
X4.664Y-3.9079
X4.664Y-4.0063
X4.664Y-4.1047
X4.664Y-4.2031
X4.664Y-4.3016
X4.664Y-4.4
X4.664Y-4.4984
X4.664Y-4.5969
X4.664Y-4.6953
X4.664Y-4.7937
X4.664Y-4.8921
X4.664Y-4.9906
X4.664Y-5.089
X4.664Y-5.1874
X4.664Y-5.2858
X4.664Y-5.3843
X4.664Y-5.4827
X4.664Y-5.5811
X4.664Y-5.6795
X4.664Y-5.778
X4.675Y-5.9
X4.7734Y-5.9
X4.95Y-3.25
X4.95Y-3.375
X4.95Y-3.5
X4.95Y-3.625
X4.95Y-3.75
X4.95Y-3.875
X4.95Y-4.0
X4.95Y-4.1
X5.025Y-5.25
X5.025Y-5.35
X5.025Y-5.45
X5.025Y-5.55
X5.025Y-5.65
X5.35Y-3.25
X5.35Y-3.375
X5.35Y-3.5
X5.35Y-3.625
X5.35Y-3.75
X5.35Y-3.875
X5.35Y-4.0
X5.35Y-4.1
X5.675Y-3.025
X5.675Y-3.125
X5.675Y-3.225
X5.675Y-3.325
X5.675Y-3.425
X5.675Y-3.525
X5.675Y-3.625
X5.675Y-3.725
X5.675Y-3.825
X5.675Y-3.925
X5.675Y-4.15
X5.675Y-4.25
X5.675Y-4.35
X5.675Y-4.45
X5.675Y-4.55
X5.675Y-4.65
X5.675Y-4.75
X5.675Y-4.85
X5.675Y-4.95
X5.675Y-5.05
X5.675Y-5.15
X5.675Y-5.25
X5.6766Y-5.4
X5.775Y-5.4
X5.8266Y-6.1
X5.9Y-5.675
X5.9Y-5.775
X5.9Y-5.875
X5.9Y-5.975
X5.925Y-6.1
X5.975Y-3.025
X5.975Y-3.125
X5.975Y-3.225
X5.975Y-3.325
X5.975Y-3.425
X5.975Y-3.525
X5.975Y-3.625
X5.975Y-3.725
X5.975Y-3.825
X5.975Y-3.925
X5.975Y-4.15
X5.975Y-4.25
X5.975Y-4.35
X5.975Y-4.45
X5.975Y-4.55
X5.975Y-4.65
X5.975Y-4.75
X5.975Y-4.85
X5.975Y-4.95
X5.975Y-5.05
X5.975Y-5.15
X5.975Y-5.25
X6.0266Y-6.1
X6.075Y-2.9266
X6.075Y-3.025
X6.125Y-6.1
X6.2Y-5.675
X6.2Y-5.775
X6.2Y-5.875
X6.2Y-5.975
X6.25Y-6.1
X6.325Y-4.375
X6.325Y-4.475
X6.325Y-4.575
X6.325Y-4.675
X6.325Y-4.775
X6.325Y-4.875
X6.325Y-4.975
X6.325Y-5.075
X6.325Y-5.175
X6.325Y-5.275
X6.325Y-5.375
X6.325Y-5.475
X6.35Y-3.1
X6.35Y-3.2
X6.35Y-3.3
X6.35Y-3.4
X6.35Y-3.5
X6.35Y-3.6
X6.35Y-3.7
X6.35Y-3.8
X6.35Y-3.9
X6.35Y-4.0
X6.35Y-4.1
X6.35Y-4.2
X6.35Y-5.65
X6.35Y-5.8
X6.35Y-5.95
X6.65Y-6.1
X6.75Y-5.65
X6.75Y-5.8
X6.75Y-5.95
X6.925Y-4.375
X6.925Y-4.475
X6.925Y-4.575
X6.925Y-4.675
X6.925Y-4.775
X6.925Y-4.875
X6.925Y-4.975
X6.925Y-5.075
X6.925Y-5.175
X6.925Y-5.275
X6.925Y-5.375
X6.925Y-5.475
X6.95Y-3.1
X6.95Y-3.2
X6.95Y-3.3
X6.95Y-3.4
X6.95Y-3.5
X6.95Y-3.6
X6.95Y-3.7
X6.95Y-3.8
X6.95Y-3.9
X6.95Y-4.0
X6.95Y-4.1
X6.95Y-4.2
X7.05Y-5.3766
X7.05Y-5.475
X7.0766Y-3.075
X7.175Y-3.075
X7.5Y-5.45
X7.5Y-5.85
T4
X7.5Y-5.95
X7.5Y-6.05
T5
X4.184Y-2.95
X4.184Y-3.05
X4.184Y-3.15
X4.184Y-3.25
X4.184Y-3.35
X4.184Y-3.45
X4.184Y-3.55
X4.184Y-3.65
X4.184Y-3.75
X4.184Y-3.85
X4.184Y-3.95
X4.184Y-4.05
X4.184Y-4.15
X4.184Y-4.25
X4.184Y-4.35
X4.184Y-4.45
X4.184Y-4.55
X4.184Y-4.65
X4.184Y-4.75
X4.184Y-4.85
X4.184Y-4.95
X4.184Y-5.05
X4.184Y-5.15
X4.184Y-5.25
X4.184Y-5.35
X4.184Y-5.45
X4.184Y-5.55
X4.184Y-5.65
X4.184Y-5.75
X4.384Y-2.95
X4.384Y-3.05
X4.384Y-3.15
X4.384Y-3.25
X4.384Y-3.35
X4.384Y-3.45
X4.384Y-3.55
X4.384Y-3.65
X4.384Y-3.75
X4.384Y-3.85
X4.384Y-3.95
X4.384Y-4.05
X4.384Y-4.15
X4.384Y-4.25
X4.384Y-4.35
X4.384Y-4.45
X4.384Y-4.55
X4.384Y-4.65
X4.384Y-4.75
X4.384Y-4.85
X4.384Y-4.95
X4.384Y-5.05
X4.384Y-5.15
X4.384Y-5.25
X4.384Y-5.35
X4.384Y-5.45
X4.384Y-5.55
X4.384Y-5.65
X4.384Y-5.75
X5.175Y-5.25
X5.175Y-5.35
X5.175Y-5.45
X5.175Y-5.55
X5.275Y-5.25
X5.275Y-5.35
X5.275Y-5.45
X5.275Y-5.55
X6.95Y-5.875
X7.05Y-5.875
X7.175Y-3.225
X7.175Y-3.325
X7.175Y-3.425
X7.175Y-3.525
X7.175Y-3.625
X7.175Y-3.725
X7.175Y-3.825
X7.175Y-3.925
X7.175Y-4.025
X7.175Y-4.125
X7.175Y-4.225
X7.175Y-4.325
X7.175Y-4.425
X7.175Y-4.525
X7.175Y-4.625
X7.175Y-4.725
X7.175Y-4.825
X7.175Y-4.925
X7.175Y-5.025
X7.175Y-5.125
X7.275Y-3.225
X7.275Y-3.325
X7.275Y-3.425
X7.275Y-3.525
X7.275Y-3.625
X7.275Y-3.725
X7.275Y-3.825
X7.275Y-3.925
X7.275Y-4.025
X7.275Y-4.125
X7.275Y-4.225
X7.275Y-4.325
X7.275Y-4.425
X7.275Y-4.525
X7.275Y-4.625
X7.275Y-4.725
X7.275Y-4.825
X7.275Y-4.925
X7.275Y-5.025
X7.275Y-5.125
T6
X4.084Y-2.65
X4.084Y-6.15
X4.1719Y-2.776
X4.1719Y-6.024
T0
M30
