%TF.GenerationSoftware,KiCad,Pcbnew,(5.1.10)-1*%
%TF.CreationDate,2022-02-23T07:42:32+01:00*%
%TF.ProjectId,VDIP2,56444950-322e-46b6-9963-61645f706362,rev?*%
%TF.SameCoordinates,Original*%
%TF.FileFunction,Soldermask,Top*%
%TF.FilePolarity,Negative*%
%FSLAX46Y46*%
G04 Gerber Fmt 4.6, Leading zero omitted, Abs format (unit mm)*
G04 Created by KiCad (PCBNEW (5.1.10)-1) date 2022-02-23 07:42:32*
%MOMM*%
%LPD*%
G01*
G04 APERTURE LIST*
%ADD10C,1.600000*%
%ADD11C,2.000000*%
%ADD12O,1.700000X1.700000*%
%ADD13R,1.700000X1.700000*%
%ADD14R,1.600000X2.400000*%
%ADD15O,1.600000X2.400000*%
%ADD16O,1.600000X1.600000*%
%ADD17R,1.600000X1.600000*%
%ADD18C,1.610000*%
%ADD19C,1.400000*%
G04 APERTURE END LIST*
D10*
%TO.C,C1006*%
X153670000Y-144780000D03*
X151170000Y-144780000D03*
%TD*%
%TO.C,C1005*%
X101560000Y-143510000D03*
X99060000Y-143510000D03*
%TD*%
%TO.C,C1004*%
X142875000Y-116205000D03*
X145375000Y-116205000D03*
%TD*%
%TO.C,C1003*%
X165735000Y-99695000D03*
X163235000Y-99695000D03*
%TD*%
%TO.C,C1002*%
X97830000Y-70485000D03*
X100330000Y-70485000D03*
%TD*%
%TO.C,C1001*%
X101600000Y-104100000D03*
X101600000Y-101600000D03*
%TD*%
D11*
%TO.C,SW1001*%
X158750000Y-139215000D03*
X154250000Y-139215000D03*
X158750000Y-132715000D03*
X154250000Y-132715000D03*
%TD*%
D12*
%TO.C,J1004*%
X154305000Y-128905000D03*
X156845000Y-128905000D03*
D13*
X159385000Y-128905000D03*
%TD*%
D14*
%TO.C,U1003*%
X156845000Y-94615000D03*
D15*
X108585000Y-109855000D03*
X154305000Y-94615000D03*
X111125000Y-109855000D03*
X151765000Y-94615000D03*
X113665000Y-109855000D03*
X149225000Y-94615000D03*
X116205000Y-109855000D03*
X146685000Y-94615000D03*
X118745000Y-109855000D03*
X144145000Y-94615000D03*
X121285000Y-109855000D03*
X141605000Y-94615000D03*
X123825000Y-109855000D03*
X139065000Y-94615000D03*
X126365000Y-109855000D03*
X136525000Y-94615000D03*
X128905000Y-109855000D03*
X133985000Y-94615000D03*
X131445000Y-109855000D03*
X131445000Y-94615000D03*
X133985000Y-109855000D03*
X128905000Y-94615000D03*
X136525000Y-109855000D03*
X126365000Y-94615000D03*
X139065000Y-109855000D03*
X123825000Y-94615000D03*
X141605000Y-109855000D03*
X121285000Y-94615000D03*
X144145000Y-109855000D03*
X118745000Y-94615000D03*
X146685000Y-109855000D03*
X116205000Y-94615000D03*
X149225000Y-109855000D03*
X113665000Y-94615000D03*
X151765000Y-109855000D03*
X111125000Y-94615000D03*
X154305000Y-109855000D03*
X108585000Y-94615000D03*
X156845000Y-109855000D03*
%TD*%
D12*
%TO.C,J1003*%
X154305000Y-124460000D03*
X156845000Y-124460000D03*
D13*
X159385000Y-124460000D03*
%TD*%
D14*
%TO.C,IC1001*%
X127635000Y-137795000D03*
D15*
X104775000Y-145415000D03*
X125095000Y-137795000D03*
X107315000Y-145415000D03*
X122555000Y-137795000D03*
X109855000Y-145415000D03*
X120015000Y-137795000D03*
X112395000Y-145415000D03*
X117475000Y-137795000D03*
X114935000Y-145415000D03*
X114935000Y-137795000D03*
X117475000Y-145415000D03*
X112395000Y-137795000D03*
X120015000Y-145415000D03*
X109855000Y-137795000D03*
X122555000Y-145415000D03*
X107315000Y-137795000D03*
X125095000Y-145415000D03*
X104775000Y-137795000D03*
X127635000Y-145415000D03*
%TD*%
D13*
%TO.C,J1001*%
X153670000Y-118745000D03*
D12*
X156210000Y-118745000D03*
X158750000Y-118745000D03*
X161290000Y-118745000D03*
X163830000Y-118745000D03*
X166370000Y-118745000D03*
%TD*%
D13*
%TO.C,J1002*%
X167005000Y-89535000D03*
D12*
X164465000Y-89535000D03*
X167005000Y-86995000D03*
X164465000Y-86995000D03*
X167005000Y-84455000D03*
X164465000Y-84455000D03*
X167005000Y-81915000D03*
X164465000Y-81915000D03*
X167005000Y-79375000D03*
X164465000Y-79375000D03*
X167005000Y-76835000D03*
X164465000Y-76835000D03*
X167005000Y-74295000D03*
X164465000Y-74295000D03*
X167005000Y-71755000D03*
X164465000Y-71755000D03*
X167005000Y-69215000D03*
X164465000Y-69215000D03*
X167005000Y-66675000D03*
X164465000Y-66675000D03*
%TD*%
D10*
%TO.C,R1001*%
X133350000Y-116205000D03*
D16*
X133350000Y-126365000D03*
%TD*%
D14*
%TO.C,U1001*%
X128270000Y-116840000D03*
D15*
X113030000Y-124460000D03*
X125730000Y-116840000D03*
X115570000Y-124460000D03*
X123190000Y-116840000D03*
X118110000Y-124460000D03*
X120650000Y-116840000D03*
X120650000Y-124460000D03*
X118110000Y-116840000D03*
X123190000Y-124460000D03*
X115570000Y-116840000D03*
X125730000Y-124460000D03*
X113030000Y-116840000D03*
X128270000Y-124460000D03*
%TD*%
D17*
%TO.C,U1002*%
X158750000Y-73025000D03*
D16*
X110490000Y-88265000D03*
X156210000Y-73025000D03*
X113030000Y-88265000D03*
X153670000Y-73025000D03*
X115570000Y-88265000D03*
X151130000Y-73025000D03*
X118110000Y-88265000D03*
X148590000Y-73025000D03*
X120650000Y-88265000D03*
X146050000Y-73025000D03*
X123190000Y-88265000D03*
X143510000Y-73025000D03*
X125730000Y-88265000D03*
X140970000Y-73025000D03*
X128270000Y-88265000D03*
X138430000Y-73025000D03*
X130810000Y-88265000D03*
X135890000Y-73025000D03*
X133350000Y-88265000D03*
X133350000Y-73025000D03*
X135890000Y-88265000D03*
X130810000Y-73025000D03*
X138430000Y-88265000D03*
X128270000Y-73025000D03*
X140970000Y-88265000D03*
X125730000Y-73025000D03*
X143510000Y-88265000D03*
X123190000Y-73025000D03*
X146050000Y-88265000D03*
X120650000Y-73025000D03*
X148590000Y-88265000D03*
X118110000Y-73025000D03*
X151130000Y-88265000D03*
X115570000Y-73025000D03*
X153670000Y-88265000D03*
X113030000Y-73025000D03*
X156210000Y-88265000D03*
X110490000Y-73025000D03*
X158750000Y-88265000D03*
%TD*%
D18*
%TO.C,X1001*%
X79603600Y-60960000D03*
X79603600Y-149860000D03*
D19*
X82143600Y-68580000D03*
X82143600Y-71120000D03*
X82143600Y-76200000D03*
X82143600Y-78740000D03*
X82143600Y-81280000D03*
X82143600Y-83820000D03*
X82143600Y-86360000D03*
X82143600Y-88900000D03*
X82143600Y-91440000D03*
X82143600Y-93980000D03*
X82143600Y-96520000D03*
X82143600Y-99060000D03*
X82143600Y-101600000D03*
X82143600Y-104140000D03*
X82143600Y-106680000D03*
X82143600Y-109220000D03*
X82143600Y-111760000D03*
X82143600Y-114300000D03*
X82143600Y-116840000D03*
X82143600Y-119380000D03*
X82143600Y-121920000D03*
X82143600Y-124460000D03*
X82143600Y-127000000D03*
X82143600Y-129540000D03*
X82143600Y-132080000D03*
X82143600Y-134620000D03*
X82143600Y-137160000D03*
X82143600Y-139700000D03*
X87223600Y-68580000D03*
X87223600Y-71120000D03*
X87223600Y-73660000D03*
X87223600Y-76200000D03*
X87223600Y-78740000D03*
X87223600Y-81280000D03*
X87223600Y-83820000D03*
X87223600Y-86360000D03*
X87223600Y-88900000D03*
X87223600Y-91440000D03*
X87223600Y-93980000D03*
X87223600Y-96520000D03*
X87223600Y-99060000D03*
X87223600Y-101600000D03*
X87223600Y-104140000D03*
X87223600Y-106680000D03*
X87223600Y-109220000D03*
X87223600Y-111760000D03*
X87223600Y-114300000D03*
X87223600Y-116840000D03*
X87223600Y-119380000D03*
X87223600Y-121920000D03*
X87223600Y-124460000D03*
X87223600Y-127000000D03*
X87223600Y-129540000D03*
X87223600Y-132080000D03*
X87223600Y-134620000D03*
X87223600Y-137160000D03*
X87223600Y-139700000D03*
D18*
X81835000Y-64160000D03*
D19*
X94335000Y-70410000D03*
X94335000Y-72910000D03*
X94335000Y-75410000D03*
X94335000Y-77910000D03*
X94335000Y-80410000D03*
X94335000Y-82910000D03*
X94335000Y-85410000D03*
X94335000Y-87910000D03*
X94335000Y-90410000D03*
X94335000Y-92910000D03*
X94335000Y-95410000D03*
X94335000Y-97910000D03*
X94335000Y-100410000D03*
X94335000Y-102910000D03*
X94335000Y-105410000D03*
X94335000Y-107910000D03*
X94335000Y-110410000D03*
X94335000Y-112910000D03*
X94335000Y-115410000D03*
X94335000Y-117910000D03*
X94335000Y-120410000D03*
X94335000Y-122910000D03*
X94335000Y-125410000D03*
X94335000Y-127910000D03*
X94335000Y-130410000D03*
X94335000Y-132910000D03*
X94335000Y-135410000D03*
X94335000Y-137910000D03*
X94335000Y-140410000D03*
X89335000Y-70410000D03*
X89335000Y-72910000D03*
X89335000Y-75410000D03*
X89335000Y-77910000D03*
X89335000Y-80410000D03*
X89335000Y-82910000D03*
X89335000Y-85410000D03*
X89335000Y-87910000D03*
X89335000Y-90410000D03*
X89335000Y-92910000D03*
X89335000Y-95410000D03*
X89335000Y-97910000D03*
X89335000Y-100410000D03*
X89335000Y-102910000D03*
X89335000Y-105410000D03*
X89335000Y-107910000D03*
X89335000Y-110410000D03*
X89335000Y-112910000D03*
X89335000Y-115410000D03*
X89335000Y-117910000D03*
X89335000Y-120410000D03*
X89335000Y-122910000D03*
X89335000Y-125410000D03*
X89335000Y-127910000D03*
X89335000Y-130410000D03*
X89335000Y-132910000D03*
X89335000Y-135410000D03*
X89335000Y-137910000D03*
X89335000Y-140410000D03*
X82143600Y-73660000D03*
%TD*%
M02*
