%TF.GenerationSoftware,KiCad,Pcbnew,(5.1.10)-1*%
%TF.CreationDate,2022-02-23T07:42:31+01:00*%
%TF.ProjectId,VDIP2,56444950-322e-46b6-9963-61645f706362,rev?*%
%TF.SameCoordinates,Original*%
%TF.FileFunction,Copper,L1,Top*%
%TF.FilePolarity,Positive*%
%FSLAX46Y46*%
G04 Gerber Fmt 4.6, Leading zero omitted, Abs format (unit mm)*
G04 Created by KiCad (PCBNEW (5.1.10)-1) date 2022-02-23 07:42:31*
%MOMM*%
%LPD*%
G01*
G04 APERTURE LIST*
%TA.AperFunction,ComponentPad*%
%ADD10C,1.600000*%
%TD*%
%TA.AperFunction,ComponentPad*%
%ADD11C,2.000000*%
%TD*%
%TA.AperFunction,ComponentPad*%
%ADD12O,1.700000X1.700000*%
%TD*%
%TA.AperFunction,ComponentPad*%
%ADD13R,1.700000X1.700000*%
%TD*%
%TA.AperFunction,ComponentPad*%
%ADD14R,1.600000X2.400000*%
%TD*%
%TA.AperFunction,ComponentPad*%
%ADD15O,1.600000X2.400000*%
%TD*%
%TA.AperFunction,ComponentPad*%
%ADD16O,1.600000X1.600000*%
%TD*%
%TA.AperFunction,ComponentPad*%
%ADD17R,1.600000X1.600000*%
%TD*%
%TA.AperFunction,ComponentPad*%
%ADD18C,1.610000*%
%TD*%
%TA.AperFunction,ComponentPad*%
%ADD19C,1.400000*%
%TD*%
%TA.AperFunction,SMDPad,CuDef*%
%ADD20C,0.100000*%
%TD*%
%TA.AperFunction,ViaPad*%
%ADD21C,0.800000*%
%TD*%
%TA.AperFunction,Conductor*%
%ADD22C,0.250000*%
%TD*%
G04 APERTURE END LIST*
D10*
%TO.P,C1006,2*%
%TO.N,GND*%
X153670000Y-144780000D03*
%TO.P,C1006,1*%
%TO.N,+5P*%
X151170000Y-144780000D03*
%TD*%
%TO.P,C1005,2*%
%TO.N,GND*%
X101560000Y-143510000D03*
%TO.P,C1005,1*%
%TO.N,+5P*%
X99060000Y-143510000D03*
%TD*%
%TO.P,C1004,2*%
%TO.N,GND*%
X142875000Y-116205000D03*
%TO.P,C1004,1*%
%TO.N,+5P*%
X145375000Y-116205000D03*
%TD*%
%TO.P,C1003,2*%
%TO.N,GND*%
X165735000Y-99695000D03*
%TO.P,C1003,1*%
%TO.N,+5P*%
X163235000Y-99695000D03*
%TD*%
%TO.P,C1002,2*%
%TO.N,GND*%
X97830000Y-70485000D03*
%TO.P,C1002,1*%
%TO.N,+5P*%
X100330000Y-70485000D03*
%TD*%
%TO.P,C1001,2*%
%TO.N,GND*%
X101600000Y-104100000D03*
%TO.P,C1001,1*%
%TO.N,+5P*%
X101600000Y-101600000D03*
%TD*%
D11*
%TO.P,SW1001,1*%
%TO.N,Net-(J1004-Pad3)*%
X158750000Y-139215000D03*
%TO.P,SW1001,2*%
%TO.N,GND*%
X154250000Y-139215000D03*
%TO.P,SW1001,1*%
%TO.N,Net-(J1004-Pad3)*%
X158750000Y-132715000D03*
%TO.P,SW1001,2*%
%TO.N,GND*%
X154250000Y-132715000D03*
%TD*%
D12*
%TO.P,J1004,3*%
%TO.N,Net-(J1004-Pad3)*%
X154305000Y-128905000D03*
%TO.P,J1004,2*%
%TO.N,Net-(J1004-Pad2)*%
X156845000Y-128905000D03*
D13*
%TO.P,J1004,1*%
%TO.N,Net-(J1002-Pad14)*%
X159385000Y-128905000D03*
%TD*%
D14*
%TO.P,U1003,1*%
%TO.N,N/C*%
X156845000Y-94615000D03*
D15*
%TO.P,U1003,21*%
%TO.N,Net-(J1002-Pad13)*%
X108585000Y-109855000D03*
%TO.P,U1003,2*%
%TO.N,+5P*%
X154305000Y-94615000D03*
%TO.P,U1003,22*%
%TO.N,Net-(J1002-Pad15)*%
X111125000Y-109855000D03*
%TO.P,U1003,3*%
%TO.N,+5P*%
X151765000Y-94615000D03*
%TO.P,U1003,23*%
%TO.N,Net-(J1002-Pad2)*%
X113665000Y-109855000D03*
%TO.P,U1003,4*%
%TO.N,N/C*%
X149225000Y-94615000D03*
%TO.P,U1003,24*%
%TO.N,Net-(J1002-Pad4)*%
X116205000Y-109855000D03*
%TO.P,U1003,5*%
%TO.N,N/C*%
X146685000Y-94615000D03*
%TO.P,U1003,25*%
%TO.N,Net-(J1002-Pad6)*%
X118745000Y-109855000D03*
%TO.P,U1003,6*%
%TO.N,N/C*%
X144145000Y-94615000D03*
%TO.P,U1003,26*%
%TO.N,GND*%
X121285000Y-109855000D03*
%TO.P,U1003,7*%
%TO.N,N/C*%
X141605000Y-94615000D03*
%TO.P,U1003,27*%
%TO.N,Net-(J1002-Pad8)*%
X123825000Y-109855000D03*
%TO.P,U1003,8*%
%TO.N,N/C*%
X139065000Y-94615000D03*
%TO.P,U1003,28*%
%TO.N,Net-(J1002-Pad10)*%
X126365000Y-109855000D03*
%TO.P,U1003,9*%
%TO.N,+5P*%
X136525000Y-94615000D03*
%TO.P,U1003,29*%
%TO.N,Net-(J1002-Pad12)*%
X128905000Y-109855000D03*
%TO.P,U1003,10*%
%TO.N,N/C*%
X133985000Y-94615000D03*
%TO.P,U1003,30*%
%TO.N,Net-(J1004-Pad2)*%
X131445000Y-109855000D03*
%TO.P,U1003,11*%
%TO.N,N/C*%
X131445000Y-94615000D03*
%TO.P,U1003,31*%
%TO.N,Net-(J1003-Pad2)*%
X133985000Y-109855000D03*
%TO.P,U1003,12*%
%TO.N,GND*%
X128905000Y-94615000D03*
%TO.P,U1003,32*%
%TO.N,N/C*%
X136525000Y-109855000D03*
%TO.P,U1003,13*%
%TO.N,GND*%
X126365000Y-94615000D03*
%TO.P,U1003,33*%
%TO.N,N/C*%
X139065000Y-109855000D03*
%TO.P,U1003,14*%
%TO.N,Net-(J1001-Pad2)*%
X123825000Y-94615000D03*
%TO.P,U1003,34*%
%TO.N,N/C*%
X141605000Y-109855000D03*
%TO.P,U1003,15*%
%TO.N,GND*%
X121285000Y-94615000D03*
%TO.P,U1003,35*%
%TO.N,N/C*%
X144145000Y-109855000D03*
%TO.P,U1003,16*%
%TO.N,Net-(J1001-Pad3)*%
X118745000Y-94615000D03*
%TO.P,U1003,36*%
%TO.N,N/C*%
X146685000Y-109855000D03*
%TO.P,U1003,17*%
%TO.N,Net-(J1001-Pad5)*%
X116205000Y-94615000D03*
%TO.P,U1003,37*%
%TO.N,N/C*%
X149225000Y-109855000D03*
%TO.P,U1003,18*%
%TO.N,Net-(J1002-Pad7)*%
X113665000Y-94615000D03*
%TO.P,U1003,38*%
%TO.N,N/C*%
X151765000Y-109855000D03*
%TO.P,U1003,19*%
%TO.N,Net-(J1001-Pad4)*%
X111125000Y-94615000D03*
%TO.P,U1003,39*%
%TO.N,N/C*%
X154305000Y-109855000D03*
%TO.P,U1003,20*%
%TO.N,Net-(J1002-Pad11)*%
X108585000Y-94615000D03*
%TO.P,U1003,40*%
%TO.N,N/C*%
X156845000Y-109855000D03*
%TD*%
D12*
%TO.P,J1003,3*%
%TO.N,GND*%
X154305000Y-124460000D03*
%TO.P,J1003,2*%
%TO.N,Net-(J1003-Pad2)*%
X156845000Y-124460000D03*
D13*
%TO.P,J1003,1*%
%TO.N,Net-(J1002-Pad16)*%
X159385000Y-124460000D03*
%TD*%
D14*
%TO.P,IC1001,1*%
%TO.N,Net-(IC1001-Pad1)*%
X127635000Y-137795000D03*
D15*
%TO.P,IC1001,11*%
%TO.N,Net-(IC1001-Pad11)*%
X104775000Y-145415000D03*
%TO.P,IC1001,2*%
%TO.N,Net-(IC1001-Pad2)*%
X125095000Y-137795000D03*
%TO.P,IC1001,12*%
%TO.N,N/C*%
X107315000Y-145415000D03*
%TO.P,IC1001,3*%
%TO.N,Net-(IC1001-Pad3)*%
X122555000Y-137795000D03*
%TO.P,IC1001,13*%
%TO.N,N/C*%
X109855000Y-145415000D03*
%TO.P,IC1001,4*%
%TO.N,Net-(IC1001-Pad4)*%
X120015000Y-137795000D03*
%TO.P,IC1001,14*%
%TO.N,N/C*%
X112395000Y-145415000D03*
%TO.P,IC1001,5*%
%TO.N,Net-(IC1001-Pad5)*%
X117475000Y-137795000D03*
%TO.P,IC1001,15*%
%TO.N,N/C*%
X114935000Y-145415000D03*
%TO.P,IC1001,6*%
%TO.N,Net-(IC1001-Pad6)*%
X114935000Y-137795000D03*
%TO.P,IC1001,16*%
%TO.N,N/C*%
X117475000Y-145415000D03*
%TO.P,IC1001,7*%
%TO.N,Net-(IC1001-Pad7)*%
X112395000Y-137795000D03*
%TO.P,IC1001,17*%
%TO.N,Net-(IC1001-Pad17)*%
X120015000Y-145415000D03*
%TO.P,IC1001,8*%
%TO.N,Net-(IC1001-Pad8)*%
X109855000Y-137795000D03*
%TO.P,IC1001,18*%
%TO.N,Net-(IC1001-Pad18)*%
X122555000Y-145415000D03*
%TO.P,IC1001,9*%
%TO.N,Net-(IC1001-Pad9)*%
X107315000Y-137795000D03*
%TO.P,IC1001,19*%
%TO.N,Net-(IC1001-Pad19)*%
X125095000Y-145415000D03*
%TO.P,IC1001,10*%
%TO.N,GND*%
X104775000Y-137795000D03*
%TO.P,IC1001,20*%
%TO.N,+5P*%
X127635000Y-145415000D03*
%TD*%
D13*
%TO.P,J1001,1*%
%TO.N,+5P*%
X153670000Y-118745000D03*
D12*
%TO.P,J1001,2*%
%TO.N,Net-(J1001-Pad2)*%
X156210000Y-118745000D03*
%TO.P,J1001,3*%
%TO.N,Net-(J1001-Pad3)*%
X158750000Y-118745000D03*
%TO.P,J1001,4*%
%TO.N,Net-(J1001-Pad4)*%
X161290000Y-118745000D03*
%TO.P,J1001,5*%
%TO.N,Net-(J1001-Pad5)*%
X163830000Y-118745000D03*
%TO.P,J1001,6*%
%TO.N,GND*%
X166370000Y-118745000D03*
%TD*%
D13*
%TO.P,J1002,1*%
%TO.N,Net-(J1001-Pad2)*%
X167005000Y-89535000D03*
D12*
%TO.P,J1002,2*%
%TO.N,Net-(J1002-Pad2)*%
X164465000Y-89535000D03*
%TO.P,J1002,3*%
%TO.N,Net-(J1001-Pad3)*%
X167005000Y-86995000D03*
%TO.P,J1002,4*%
%TO.N,Net-(J1002-Pad4)*%
X164465000Y-86995000D03*
%TO.P,J1002,5*%
%TO.N,Net-(J1001-Pad5)*%
X167005000Y-84455000D03*
%TO.P,J1002,6*%
%TO.N,Net-(J1002-Pad6)*%
X164465000Y-84455000D03*
%TO.P,J1002,7*%
%TO.N,Net-(J1002-Pad7)*%
X167005000Y-81915000D03*
%TO.P,J1002,8*%
%TO.N,Net-(J1002-Pad8)*%
X164465000Y-81915000D03*
%TO.P,J1002,9*%
%TO.N,Net-(J1001-Pad4)*%
X167005000Y-79375000D03*
%TO.P,J1002,10*%
%TO.N,Net-(J1002-Pad10)*%
X164465000Y-79375000D03*
%TO.P,J1002,11*%
%TO.N,Net-(J1002-Pad11)*%
X167005000Y-76835000D03*
%TO.P,J1002,12*%
%TO.N,Net-(J1002-Pad12)*%
X164465000Y-76835000D03*
%TO.P,J1002,13*%
%TO.N,Net-(J1002-Pad13)*%
X167005000Y-74295000D03*
%TO.P,J1002,14*%
%TO.N,Net-(J1002-Pad14)*%
X164465000Y-74295000D03*
%TO.P,J1002,15*%
%TO.N,Net-(J1002-Pad15)*%
X167005000Y-71755000D03*
%TO.P,J1002,16*%
%TO.N,Net-(J1002-Pad16)*%
X164465000Y-71755000D03*
%TO.P,J1002,17*%
%TO.N,Net-(J1002-Pad17)*%
X167005000Y-69215000D03*
%TO.P,J1002,18*%
%TO.N,+5P*%
X164465000Y-69215000D03*
%TO.P,J1002,19*%
%TO.N,Net-(J1002-Pad19)*%
X167005000Y-66675000D03*
%TO.P,J1002,20*%
%TO.N,GND*%
X164465000Y-66675000D03*
%TD*%
D10*
%TO.P,R1001,1*%
%TO.N,Net-(J1002-Pad8)*%
X133350000Y-116205000D03*
D16*
%TO.P,R1001,2*%
%TO.N,GND*%
X133350000Y-126365000D03*
%TD*%
D14*
%TO.P,U1001,1*%
%TO.N,Net-(J1002-Pad8)*%
X128270000Y-116840000D03*
D15*
%TO.P,U1001,8*%
%TO.N,Net-(J1002-Pad14)*%
X113030000Y-124460000D03*
%TO.P,U1001,2*%
%TO.N,Net-(J1002-Pad6)*%
X125730000Y-116840000D03*
%TO.P,U1001,9*%
X115570000Y-124460000D03*
%TO.P,U1001,3*%
%TO.N,Net-(J1002-Pad17)*%
X123190000Y-116840000D03*
%TO.P,U1001,10*%
%TO.N,Net-(U1001-Pad10)*%
X118110000Y-124460000D03*
%TO.P,U1001,4*%
%TO.N,Net-(J1002-Pad14)*%
X120650000Y-116840000D03*
%TO.P,U1001,11*%
%TO.N,Net-(U1001-Pad10)*%
X120650000Y-124460000D03*
%TO.P,U1001,5*%
%TO.N,Net-(J1002-Pad14)*%
X118110000Y-116840000D03*
%TO.P,U1001,12*%
%TO.N,Net-(J1002-Pad2)*%
X123190000Y-124460000D03*
%TO.P,U1001,6*%
%TO.N,Net-(J1002-Pad19)*%
X115570000Y-116840000D03*
%TO.P,U1001,13*%
%TO.N,Net-(J1002-Pad2)*%
X125730000Y-124460000D03*
%TO.P,U1001,7*%
%TO.N,GND*%
X113030000Y-116840000D03*
%TO.P,U1001,14*%
%TO.N,+5P*%
X128270000Y-124460000D03*
%TD*%
D17*
%TO.P,U1002,1*%
%TO.N,Net-(U1002-Pad1)*%
X158750000Y-73025000D03*
D16*
%TO.P,U1002,21*%
%TO.N,N/C*%
X110490000Y-88265000D03*
%TO.P,U1002,2*%
%TO.N,Net-(U1002-Pad2)*%
X156210000Y-73025000D03*
%TO.P,U1002,22*%
%TO.N,N/C*%
X113030000Y-88265000D03*
%TO.P,U1002,3*%
%TO.N,Net-(U1002-Pad3)*%
X153670000Y-73025000D03*
%TO.P,U1002,23*%
%TO.N,Net-(U1002-Pad23)*%
X115570000Y-88265000D03*
%TO.P,U1002,4*%
%TO.N,Net-(IC1001-Pad18)*%
X151130000Y-73025000D03*
%TO.P,U1002,24*%
%TO.N,+5P*%
X118110000Y-88265000D03*
%TO.P,U1002,5*%
%TO.N,Net-(IC1001-Pad2)*%
X148590000Y-73025000D03*
%TO.P,U1002,25*%
%TO.N,Net-(U1002-Pad25)*%
X120650000Y-88265000D03*
%TO.P,U1002,6*%
%TO.N,Net-(IC1001-Pad1)*%
X146050000Y-73025000D03*
%TO.P,U1002,26*%
%TO.N,+5P*%
X123190000Y-88265000D03*
%TO.P,U1002,7*%
%TO.N,Net-(J1002-Pad15)*%
X143510000Y-73025000D03*
%TO.P,U1002,27*%
%TO.N,Net-(J1002-Pad2)*%
X125730000Y-88265000D03*
%TO.P,U1002,8*%
%TO.N,Net-(J1002-Pad13)*%
X140970000Y-73025000D03*
%TO.P,U1002,28*%
%TO.N,Net-(J1002-Pad4)*%
X128270000Y-88265000D03*
%TO.P,U1002,9*%
%TO.N,Net-(J1002-Pad11)*%
X138430000Y-73025000D03*
%TO.P,U1002,29*%
%TO.N,Net-(J1002-Pad6)*%
X130810000Y-88265000D03*
%TO.P,U1002,10*%
%TO.N,Net-(J1001-Pad4)*%
X135890000Y-73025000D03*
%TO.P,U1002,30*%
%TO.N,Net-(J1002-Pad8)*%
X133350000Y-88265000D03*
%TO.P,U1002,11*%
%TO.N,GND*%
X133350000Y-73025000D03*
%TO.P,U1002,31*%
%TO.N,Net-(J1002-Pad10)*%
X135890000Y-88265000D03*
%TO.P,U1002,12*%
%TO.N,Net-(J1002-Pad7)*%
X130810000Y-73025000D03*
%TO.P,U1002,32*%
%TO.N,Net-(J1002-Pad12)*%
X138430000Y-88265000D03*
%TO.P,U1002,13*%
%TO.N,Net-(J1001-Pad5)*%
X128270000Y-73025000D03*
%TO.P,U1002,33*%
%TO.N,Net-(J1002-Pad14)*%
X140970000Y-88265000D03*
%TO.P,U1002,14*%
%TO.N,Net-(J1001-Pad3)*%
X125730000Y-73025000D03*
%TO.P,U1002,34*%
%TO.N,Net-(J1002-Pad16)*%
X143510000Y-88265000D03*
%TO.P,U1002,15*%
%TO.N,Net-(J1001-Pad2)*%
X123190000Y-73025000D03*
%TO.P,U1002,35*%
%TO.N,Net-(U1002-Pad35)*%
X146050000Y-88265000D03*
%TO.P,U1002,16*%
%TO.N,Net-(J1002-Pad17)*%
X120650000Y-73025000D03*
%TO.P,U1002,36*%
%TO.N,Net-(IC1001-Pad9)*%
X148590000Y-88265000D03*
%TO.P,U1002,17*%
%TO.N,Net-(J1002-Pad19)*%
X118110000Y-73025000D03*
%TO.P,U1002,37*%
%TO.N,Net-(IC1001-Pad17)*%
X151130000Y-88265000D03*
%TO.P,U1002,18*%
%TO.N,N/C*%
X115570000Y-73025000D03*
%TO.P,U1002,38*%
%TO.N,Net-(U1002-Pad38)*%
X153670000Y-88265000D03*
%TO.P,U1002,19*%
%TO.N,Net-(U1002-Pad19)*%
X113030000Y-73025000D03*
%TO.P,U1002,39*%
%TO.N,Net-(U1002-Pad39)*%
X156210000Y-88265000D03*
%TO.P,U1002,20*%
%TO.N,Net-(U1002-Pad20)*%
X110490000Y-73025000D03*
%TO.P,U1002,40*%
%TO.N,Net-(U1002-Pad40)*%
X158750000Y-88265000D03*
%TD*%
D18*
%TO.P,X1001,*%
%TO.N,*%
X79603600Y-60960000D03*
X79603600Y-149860000D03*
D19*
%TO.P,X1001,A01*%
%TO.N,GND*%
X82143600Y-68580000D03*
%TO.P,X1001,A02*%
X82143600Y-71120000D03*
%TO.P,X1001,A04*%
%TO.N,Net-(U1002-Pad2)*%
X82143600Y-76200000D03*
%TO.P,X1001,A05*%
%TO.N,Net-(U1002-Pad38)*%
X82143600Y-78740000D03*
%TO.P,X1001,A06*%
%TO.N,Net-(U1002-Pad40)*%
X82143600Y-81280000D03*
%TO.P,X1001,A07*%
%TO.N,Net-(U1002-Pad20)*%
X82143600Y-83820000D03*
%TO.P,X1001,A08*%
%TO.N,Net-(X1001-PadA08)*%
X82143600Y-86360000D03*
%TO.P,X1001,A09*%
%TO.N,Net-(X1001-PadA09)*%
X82143600Y-88900000D03*
%TO.P,X1001,A10*%
%TO.N,Net-(X1001-PadA10)*%
X82143600Y-91440000D03*
%TO.P,X1001,A11*%
%TO.N,Net-(X1001-PadA11)*%
X82143600Y-93980000D03*
%TO.P,X1001,A12*%
%TO.N,Net-(X1001-PadA12)*%
X82143600Y-96520000D03*
%TO.P,X1001,A13*%
%TO.N,Net-(X1001-PadA13)*%
X82143600Y-99060000D03*
%TO.P,X1001,A14*%
%TO.N,Net-(X1001-PadA14)*%
X82143600Y-101600000D03*
%TO.P,X1001,A15*%
%TO.N,Net-(X1001-PadA15)*%
X82143600Y-104140000D03*
%TO.P,X1001,A16*%
%TO.N,Net-(IC1001-Pad7)*%
X82143600Y-106680000D03*
%TO.P,X1001,A17*%
%TO.N,Net-(IC1001-Pad5)*%
X82143600Y-109220000D03*
%TO.P,X1001,A18*%
%TO.N,Net-(IC1001-Pad3)*%
X82143600Y-111760000D03*
%TO.P,X1001,A19*%
%TO.N,Net-(IC1001-Pad1)*%
X82143600Y-114300000D03*
%TO.P,X1001,A20*%
%TO.N,Net-(IC1001-Pad19)*%
X82143600Y-116840000D03*
%TO.P,X1001,A21*%
%TO.N,Net-(U1002-Pad25)*%
X82143600Y-119380000D03*
%TO.P,X1001,A22*%
%TO.N,Net-(X1001-PadA22)*%
X82143600Y-121920000D03*
%TO.P,X1001,A23*%
%TO.N,Net-(X1001-PadA23)*%
X82143600Y-124460000D03*
%TO.P,X1001,A24*%
%TO.N,Net-(X1001-PadA24)*%
X82143600Y-127000000D03*
%TO.P,X1001,A25*%
%TO.N,Net-(X1001-PadA25)*%
X82143600Y-129540000D03*
%TO.P,X1001,A26*%
%TO.N,Net-(IC1001-Pad11)*%
X82143600Y-132080000D03*
%TO.P,X1001,A27*%
%TO.N,Net-(X1001-PadA27)*%
X82143600Y-134620000D03*
%TO.P,X1001,A28*%
%TO.N,Net-(X1001-PadA28)*%
X82143600Y-137160000D03*
%TO.P,X1001,A29*%
%TO.N,+5P*%
X82143600Y-139700000D03*
%TO.P,X1001,C01*%
%TO.N,GND*%
X87223600Y-68580000D03*
%TO.P,X1001,C02*%
X87223600Y-71120000D03*
%TO.P,X1001,C03*%
%TO.N,Net-(X1001-PadC03)*%
X87223600Y-73660000D03*
%TO.P,X1001,C04*%
%TO.N,Net-(U1002-Pad3)*%
X87223600Y-76200000D03*
%TO.P,X1001,C05*%
%TO.N,Net-(U1002-Pad39)*%
X87223600Y-78740000D03*
%TO.P,X1001,C06*%
%TO.N,Net-(U1002-Pad1)*%
X87223600Y-81280000D03*
%TO.P,X1001,C07*%
%TO.N,Net-(U1002-Pad19)*%
X87223600Y-83820000D03*
%TO.P,X1001,C08*%
%TO.N,Net-(U1002-Pad35)*%
X87223600Y-86360000D03*
%TO.P,X1001,C09*%
%TO.N,Net-(X1001-PadC09)*%
X87223600Y-88900000D03*
%TO.P,X1001,C10*%
%TO.N,Net-(X1001-PadA10)*%
X87223600Y-91440000D03*
%TO.P,X1001,C11*%
%TO.N,Net-(X1001-PadC11)*%
X87223600Y-93980000D03*
%TO.P,X1001,C12*%
%TO.N,Net-(X1001-PadC12)*%
X87223600Y-96520000D03*
%TO.P,X1001,C13*%
%TO.N,Net-(X1001-PadC13)*%
X87223600Y-99060000D03*
%TO.P,X1001,C14*%
%TO.N,Net-(X1001-PadC14)*%
X87223600Y-101600000D03*
%TO.P,X1001,C15*%
%TO.N,Net-(X1001-PadC15)*%
X87223600Y-104140000D03*
%TO.P,X1001,C16*%
%TO.N,Net-(IC1001-Pad8)*%
X87223600Y-106680000D03*
%TO.P,X1001,C17*%
%TO.N,Net-(IC1001-Pad6)*%
X87223600Y-109220000D03*
%TO.P,X1001,C18*%
%TO.N,Net-(IC1001-Pad4)*%
X87223600Y-111760000D03*
%TO.P,X1001,C19*%
%TO.N,Net-(IC1001-Pad2)*%
X87223600Y-114300000D03*
%TO.P,X1001,C20*%
%TO.N,Net-(X1001-PadC20)*%
X87223600Y-116840000D03*
%TO.P,X1001,C21*%
%TO.N,GND*%
X87223600Y-119380000D03*
%TO.P,X1001,C22*%
X87223600Y-121920000D03*
%TO.P,X1001,C23*%
%TO.N,Net-(U1002-Pad23)*%
X87223600Y-124460000D03*
%TO.P,X1001,C24*%
%TO.N,Net-(IC1001-Pad9)*%
X87223600Y-127000000D03*
%TO.P,X1001,C25*%
%TO.N,Net-(X1001-PadC25)*%
X87223600Y-129540000D03*
%TO.P,X1001,C26*%
%TO.N,Net-(X1001-PadC26)*%
X87223600Y-132080000D03*
%TO.P,X1001,C27*%
%TO.N,Net-(X1001-PadA27)*%
X87223600Y-134620000D03*
%TO.P,X1001,C28*%
%TO.N,Net-(X1001-PadC28)*%
X87223600Y-137160000D03*
%TO.P,X1001,C29*%
%TO.N,+5P*%
X87223600Y-139700000D03*
D18*
%TO.P,X1001,*%
%TO.N,*%
X81835000Y-64160000D03*
X81835000Y-146660000D03*
D19*
%TO.P,X1001,C01*%
%TO.N,GND*%
X94335000Y-70410000D03*
%TO.P,X1001,C02*%
X94335000Y-72910000D03*
%TO.P,X1001,C03*%
%TO.N,Net-(X1001-PadC03)*%
X94335000Y-75410000D03*
%TO.P,X1001,C04*%
%TO.N,Net-(U1002-Pad3)*%
X94335000Y-77910000D03*
%TO.P,X1001,C05*%
%TO.N,Net-(U1002-Pad39)*%
X94335000Y-80410000D03*
%TO.P,X1001,C06*%
%TO.N,Net-(U1002-Pad1)*%
X94335000Y-82910000D03*
%TO.P,X1001,C07*%
%TO.N,Net-(U1002-Pad19)*%
X94335000Y-85410000D03*
%TO.P,X1001,C08*%
%TO.N,Net-(U1002-Pad35)*%
X94335000Y-87910000D03*
%TO.P,X1001,C09*%
%TO.N,Net-(X1001-PadC09)*%
X94335000Y-90410000D03*
%TO.P,X1001,C10*%
%TO.N,Net-(X1001-PadA10)*%
X94335000Y-92910000D03*
%TO.P,X1001,C11*%
%TO.N,Net-(X1001-PadC11)*%
X94335000Y-95410000D03*
%TO.P,X1001,C12*%
%TO.N,Net-(X1001-PadC12)*%
X94335000Y-97910000D03*
%TO.P,X1001,C13*%
%TO.N,Net-(X1001-PadC13)*%
X94335000Y-100410000D03*
%TO.P,X1001,C14*%
%TO.N,Net-(X1001-PadC14)*%
X94335000Y-102910000D03*
%TO.P,X1001,C15*%
%TO.N,Net-(X1001-PadC15)*%
X94335000Y-105410000D03*
%TO.P,X1001,C16*%
%TO.N,Net-(IC1001-Pad8)*%
X94335000Y-107910000D03*
%TO.P,X1001,C17*%
%TO.N,Net-(IC1001-Pad6)*%
X94335000Y-110410000D03*
%TO.P,X1001,C18*%
%TO.N,Net-(IC1001-Pad4)*%
X94335000Y-112910000D03*
%TO.P,X1001,C19*%
%TO.N,Net-(IC1001-Pad2)*%
X94335000Y-115410000D03*
%TO.P,X1001,C20*%
%TO.N,Net-(X1001-PadC20)*%
X94335000Y-117910000D03*
%TO.P,X1001,C21*%
%TO.N,GND*%
X94335000Y-120410000D03*
%TO.P,X1001,C22*%
X94335000Y-122910000D03*
%TO.P,X1001,C23*%
%TO.N,Net-(U1002-Pad23)*%
X94335000Y-125410000D03*
%TO.P,X1001,C24*%
%TO.N,Net-(IC1001-Pad9)*%
X94335000Y-127910000D03*
%TO.P,X1001,C25*%
%TO.N,Net-(X1001-PadC25)*%
X94335000Y-130410000D03*
%TO.P,X1001,C26*%
%TO.N,Net-(X1001-PadC26)*%
X94335000Y-132910000D03*
%TO.P,X1001,C27*%
%TO.N,Net-(X1001-PadA27)*%
X94335000Y-135410000D03*
%TO.P,X1001,C28*%
%TO.N,Net-(X1001-PadC28)*%
X94335000Y-137910000D03*
%TO.P,X1001,C29*%
%TO.N,+5P*%
X94335000Y-140410000D03*
%TO.P,X1001,A01*%
%TO.N,GND*%
X89335000Y-70410000D03*
%TO.P,X1001,A02*%
X89335000Y-72910000D03*
%TO.P,X1001,A03*%
%TO.N,Net-(X1001-PadA03)*%
X89335000Y-75410000D03*
%TO.P,X1001,A04*%
%TO.N,Net-(U1002-Pad2)*%
X89335000Y-77910000D03*
%TO.P,X1001,A05*%
%TO.N,Net-(U1002-Pad38)*%
X89335000Y-80410000D03*
%TO.P,X1001,A06*%
%TO.N,Net-(U1002-Pad40)*%
X89335000Y-82910000D03*
%TO.P,X1001,A07*%
%TO.N,Net-(U1002-Pad20)*%
X89335000Y-85410000D03*
%TO.P,X1001,A08*%
%TO.N,Net-(X1001-PadA08)*%
X89335000Y-87910000D03*
%TO.P,X1001,A09*%
%TO.N,Net-(X1001-PadA09)*%
X89335000Y-90410000D03*
%TO.P,X1001,A10*%
%TO.N,Net-(X1001-PadA10)*%
X89335000Y-92910000D03*
%TO.P,X1001,A11*%
%TO.N,Net-(X1001-PadA11)*%
X89335000Y-95410000D03*
%TO.P,X1001,A12*%
%TO.N,Net-(X1001-PadA12)*%
X89335000Y-97910000D03*
%TO.P,X1001,A13*%
%TO.N,Net-(X1001-PadA13)*%
X89335000Y-100410000D03*
%TO.P,X1001,A14*%
%TO.N,Net-(X1001-PadA14)*%
X89335000Y-102910000D03*
%TO.P,X1001,A15*%
%TO.N,Net-(X1001-PadA15)*%
X89335000Y-105410000D03*
%TO.P,X1001,A16*%
%TO.N,Net-(IC1001-Pad7)*%
X89335000Y-107910000D03*
%TO.P,X1001,A17*%
%TO.N,Net-(IC1001-Pad5)*%
X89335000Y-110410000D03*
%TO.P,X1001,A18*%
%TO.N,Net-(IC1001-Pad3)*%
X89335000Y-112910000D03*
%TO.P,X1001,A19*%
%TO.N,Net-(IC1001-Pad1)*%
X89335000Y-115410000D03*
%TO.P,X1001,A20*%
%TO.N,Net-(IC1001-Pad19)*%
X89335000Y-117910000D03*
%TO.P,X1001,A21*%
%TO.N,Net-(U1002-Pad25)*%
X89335000Y-120410000D03*
%TO.P,X1001,A22*%
%TO.N,Net-(X1001-PadA22)*%
X89335000Y-122910000D03*
%TO.P,X1001,A23*%
%TO.N,Net-(X1001-PadA23)*%
X89335000Y-125410000D03*
%TO.P,X1001,A24*%
%TO.N,Net-(X1001-PadA24)*%
X89335000Y-127910000D03*
%TO.P,X1001,A25*%
%TO.N,Net-(X1001-PadA25)*%
X89335000Y-130410000D03*
%TO.P,X1001,A26*%
%TO.N,Net-(IC1001-Pad11)*%
X89335000Y-132910000D03*
%TO.P,X1001,A27*%
%TO.N,Net-(X1001-PadA27)*%
X89335000Y-135410000D03*
%TO.P,X1001,A28*%
%TO.N,Net-(X1001-PadA28)*%
X89335000Y-137910000D03*
%TO.P,X1001,A29*%
%TO.N,+5P*%
X89335000Y-140410000D03*
%TO.P,X1001,A03*%
%TO.N,Net-(X1001-PadA03)*%
X82143600Y-73660000D03*
%TA.AperFunction,SMDPad,CuDef*%
D20*
%TO.P,X1001,C02*%
%TO.N,GND*%
G36*
X87927424Y-71212711D02*
G01*
X87914022Y-71280086D01*
X87894081Y-71345823D01*
X87867793Y-71409289D01*
X87835410Y-71469872D01*
X87797245Y-71526990D01*
X87753666Y-71580091D01*
X87705091Y-71628666D01*
X87651990Y-71672245D01*
X87594872Y-71710410D01*
X87534289Y-71742793D01*
X87470823Y-71769081D01*
X87405086Y-71789022D01*
X87337711Y-71802424D01*
X87269347Y-71809157D01*
X87200653Y-71809157D01*
X87132289Y-71802424D01*
X87064914Y-71789022D01*
X86999177Y-71769081D01*
X86935711Y-71742793D01*
X86921132Y-71735000D01*
X86443884Y-71735000D01*
X85810000Y-72368883D01*
X85810000Y-118101116D01*
X86443883Y-118735000D01*
X87235000Y-118735000D01*
X87243726Y-118735061D01*
X87304668Y-118738895D01*
X87364945Y-118748658D01*
X87423981Y-118764256D01*
X87481214Y-118785540D01*
X87536096Y-118812308D01*
X87588104Y-118844304D01*
X87636742Y-118881222D01*
X87681545Y-118922710D01*
X87722086Y-118968373D01*
X87757978Y-119017773D01*
X87788877Y-119070440D01*
X87814490Y-119125871D01*
X87834571Y-119183537D01*
X87848930Y-119242887D01*
X87857428Y-119303355D01*
X87859985Y-119364363D01*
X87856576Y-119425330D01*
X87847235Y-119485674D01*
X87832049Y-119544818D01*
X87811164Y-119602197D01*
X87784780Y-119657265D01*
X87753148Y-119709496D01*
X87716571Y-119758390D01*
X87675396Y-119803482D01*
X87630018Y-119844340D01*
X87580870Y-119880576D01*
X87528420Y-119911842D01*
X87473169Y-119937841D01*
X87415645Y-119958325D01*
X87356396Y-119973097D01*
X87295989Y-119982017D01*
X87235000Y-119985000D01*
X86185000Y-119985000D01*
X86183033Y-119984986D01*
X86182818Y-119984996D01*
X86182570Y-119984983D01*
X86176274Y-119984939D01*
X86149037Y-119983225D01*
X86121840Y-119981800D01*
X86118606Y-119981311D01*
X86115332Y-119981105D01*
X86088428Y-119976747D01*
X86061465Y-119972670D01*
X86058283Y-119971865D01*
X86055055Y-119971342D01*
X86028750Y-119964392D01*
X86002268Y-119957691D01*
X85999179Y-119956579D01*
X85996019Y-119955744D01*
X85970492Y-119946251D01*
X85944816Y-119937007D01*
X85941858Y-119935602D01*
X85938786Y-119934460D01*
X85914270Y-119922503D01*
X85889656Y-119910815D01*
X85886849Y-119909128D01*
X85883904Y-119907692D01*
X85860678Y-119893403D01*
X85837315Y-119879365D01*
X85834686Y-119877412D01*
X85831896Y-119875696D01*
X85810153Y-119859192D01*
X85788294Y-119842958D01*
X85785874Y-119840763D01*
X85783258Y-119838778D01*
X85763220Y-119820222D01*
X85743059Y-119801942D01*
X84743058Y-118801942D01*
X84741675Y-118800539D01*
X84741518Y-118800396D01*
X84741353Y-118800213D01*
X84736931Y-118795728D01*
X84718895Y-118775270D01*
X84700660Y-118755018D01*
X84698718Y-118752385D01*
X84696550Y-118749925D01*
X84680613Y-118727828D01*
X84664424Y-118705870D01*
X84662743Y-118703050D01*
X84660831Y-118700399D01*
X84647141Y-118676877D01*
X84633158Y-118653420D01*
X84631762Y-118650452D01*
X84630116Y-118647625D01*
X84618764Y-118622831D01*
X84607159Y-118598169D01*
X84606062Y-118595089D01*
X84604696Y-118592105D01*
X84595808Y-118566292D01*
X84586675Y-118540645D01*
X84585883Y-118537470D01*
X84584816Y-118534370D01*
X84578498Y-118507850D01*
X84571903Y-118481396D01*
X84571424Y-118478152D01*
X84570666Y-118474970D01*
X84566966Y-118447960D01*
X84562983Y-118420989D01*
X84562823Y-118417723D01*
X84562378Y-118414473D01*
X84561330Y-118387193D01*
X84560000Y-118360000D01*
X84560000Y-72110000D01*
X84560014Y-72108033D01*
X84560004Y-72107818D01*
X84560017Y-72107570D01*
X84560061Y-72101274D01*
X84561775Y-72074037D01*
X84563200Y-72046840D01*
X84563689Y-72043606D01*
X84563895Y-72040332D01*
X84568253Y-72013428D01*
X84572330Y-71986465D01*
X84573135Y-71983283D01*
X84573658Y-71980055D01*
X84580608Y-71953750D01*
X84587309Y-71927268D01*
X84588421Y-71924179D01*
X84589256Y-71921019D01*
X84598749Y-71895492D01*
X84607993Y-71869816D01*
X84609398Y-71866858D01*
X84610540Y-71863786D01*
X84622497Y-71839270D01*
X84634185Y-71814656D01*
X84635872Y-71811849D01*
X84637308Y-71808904D01*
X84651597Y-71785678D01*
X84665635Y-71762315D01*
X84667588Y-71759686D01*
X84669304Y-71756896D01*
X84685808Y-71735153D01*
X84702042Y-71713294D01*
X84704237Y-71710874D01*
X84706222Y-71708258D01*
X84724778Y-71688220D01*
X84743058Y-71668059D01*
X85743058Y-70668058D01*
X85744461Y-70666675D01*
X85744604Y-70666518D01*
X85744787Y-70666353D01*
X85749272Y-70661931D01*
X85769730Y-70643895D01*
X85789982Y-70625660D01*
X85792615Y-70623718D01*
X85795075Y-70621550D01*
X85817172Y-70605613D01*
X85839130Y-70589424D01*
X85841950Y-70587743D01*
X85844601Y-70585831D01*
X85868123Y-70572141D01*
X85891580Y-70558158D01*
X85894548Y-70556762D01*
X85897375Y-70555116D01*
X85922169Y-70543764D01*
X85946831Y-70532159D01*
X85949911Y-70531062D01*
X85952895Y-70529696D01*
X85978708Y-70520808D01*
X86004355Y-70511675D01*
X86007530Y-70510883D01*
X86010630Y-70509816D01*
X86037150Y-70503498D01*
X86063604Y-70496903D01*
X86066848Y-70496424D01*
X86070030Y-70495666D01*
X86097040Y-70491966D01*
X86124011Y-70487983D01*
X86127277Y-70487823D01*
X86130527Y-70487378D01*
X86157807Y-70486330D01*
X86185000Y-70485000D01*
X86921132Y-70485000D01*
X86935711Y-70477207D01*
X86999177Y-70450919D01*
X87064914Y-70430978D01*
X87132289Y-70417576D01*
X87200653Y-70410843D01*
X87269347Y-70410843D01*
X87337711Y-70417576D01*
X87405086Y-70430978D01*
X87470823Y-70450919D01*
X87534289Y-70477207D01*
X87594872Y-70509590D01*
X87651990Y-70547755D01*
X87705091Y-70591334D01*
X87753666Y-70639909D01*
X87797245Y-70693010D01*
X87835410Y-70750128D01*
X87867793Y-70810711D01*
X87894081Y-70874177D01*
X87914022Y-70939914D01*
X87927424Y-71007289D01*
X87934157Y-71075653D01*
X87934157Y-71144347D01*
X87927424Y-71212711D01*
G37*
%TD.AperFunction*%
%TA.AperFunction,SMDPad,CuDef*%
G36*
X95027424Y-73012711D02*
G01*
X95014022Y-73080086D01*
X94994081Y-73145823D01*
X94967793Y-73209289D01*
X94935410Y-73269872D01*
X94897245Y-73326990D01*
X94853666Y-73380091D01*
X94805091Y-73428666D01*
X94751990Y-73472245D01*
X94694872Y-73510410D01*
X94634289Y-73542793D01*
X94570823Y-73569081D01*
X94505086Y-73589022D01*
X94437711Y-73602424D01*
X94369347Y-73609157D01*
X94300653Y-73609157D01*
X94232289Y-73602424D01*
X94164914Y-73589022D01*
X94099177Y-73569081D01*
X94035711Y-73542793D01*
X94021132Y-73535000D01*
X93543884Y-73535000D01*
X92910000Y-74168883D01*
X92910000Y-119151116D01*
X93543883Y-119785000D01*
X94335000Y-119785000D01*
X94343726Y-119785061D01*
X94404668Y-119788895D01*
X94464945Y-119798658D01*
X94523981Y-119814256D01*
X94581214Y-119835540D01*
X94636096Y-119862308D01*
X94688104Y-119894304D01*
X94736742Y-119931222D01*
X94781545Y-119972710D01*
X94822086Y-120018373D01*
X94857978Y-120067773D01*
X94888877Y-120120440D01*
X94914490Y-120175871D01*
X94934571Y-120233537D01*
X94948930Y-120292887D01*
X94957428Y-120353355D01*
X94959985Y-120414363D01*
X94956576Y-120475330D01*
X94947235Y-120535674D01*
X94932049Y-120594818D01*
X94911164Y-120652197D01*
X94884780Y-120707265D01*
X94853148Y-120759496D01*
X94816571Y-120808390D01*
X94775396Y-120853482D01*
X94730018Y-120894340D01*
X94680870Y-120930576D01*
X94628420Y-120961842D01*
X94573169Y-120987841D01*
X94515645Y-121008325D01*
X94456396Y-121023097D01*
X94395989Y-121032017D01*
X94335000Y-121035000D01*
X93285000Y-121035000D01*
X93283033Y-121034986D01*
X93282818Y-121034996D01*
X93282570Y-121034983D01*
X93276274Y-121034939D01*
X93249037Y-121033225D01*
X93221840Y-121031800D01*
X93218606Y-121031311D01*
X93215332Y-121031105D01*
X93188428Y-121026747D01*
X93161465Y-121022670D01*
X93158283Y-121021865D01*
X93155055Y-121021342D01*
X93128750Y-121014392D01*
X93102268Y-121007691D01*
X93099179Y-121006579D01*
X93096019Y-121005744D01*
X93070492Y-120996251D01*
X93044816Y-120987007D01*
X93041858Y-120985602D01*
X93038786Y-120984460D01*
X93014270Y-120972503D01*
X92989656Y-120960815D01*
X92986849Y-120959128D01*
X92983904Y-120957692D01*
X92960678Y-120943403D01*
X92937315Y-120929365D01*
X92934686Y-120927412D01*
X92931896Y-120925696D01*
X92910153Y-120909192D01*
X92888294Y-120892958D01*
X92885874Y-120890763D01*
X92883258Y-120888778D01*
X92863220Y-120870222D01*
X92843059Y-120851942D01*
X91843058Y-119851942D01*
X91841675Y-119850539D01*
X91841518Y-119850396D01*
X91841353Y-119850213D01*
X91836931Y-119845728D01*
X91818895Y-119825270D01*
X91800660Y-119805018D01*
X91798718Y-119802385D01*
X91796550Y-119799925D01*
X91780613Y-119777828D01*
X91764424Y-119755870D01*
X91762743Y-119753050D01*
X91760831Y-119750399D01*
X91747141Y-119726877D01*
X91733158Y-119703420D01*
X91731762Y-119700452D01*
X91730116Y-119697625D01*
X91718764Y-119672831D01*
X91707159Y-119648169D01*
X91706062Y-119645089D01*
X91704696Y-119642105D01*
X91695808Y-119616292D01*
X91686675Y-119590645D01*
X91685883Y-119587470D01*
X91684816Y-119584370D01*
X91678498Y-119557850D01*
X91671903Y-119531396D01*
X91671424Y-119528152D01*
X91670666Y-119524970D01*
X91666966Y-119497960D01*
X91662983Y-119470989D01*
X91662823Y-119467723D01*
X91662378Y-119464473D01*
X91661330Y-119437193D01*
X91660000Y-119410000D01*
X91660000Y-73910000D01*
X91660014Y-73908033D01*
X91660004Y-73907818D01*
X91660017Y-73907570D01*
X91660061Y-73901274D01*
X91661775Y-73874037D01*
X91663200Y-73846840D01*
X91663689Y-73843606D01*
X91663895Y-73840332D01*
X91668253Y-73813428D01*
X91672330Y-73786465D01*
X91673135Y-73783283D01*
X91673658Y-73780055D01*
X91680608Y-73753750D01*
X91687309Y-73727268D01*
X91688421Y-73724179D01*
X91689256Y-73721019D01*
X91698749Y-73695492D01*
X91707993Y-73669816D01*
X91709398Y-73666858D01*
X91710540Y-73663786D01*
X91722497Y-73639270D01*
X91734185Y-73614656D01*
X91735872Y-73611849D01*
X91737308Y-73608904D01*
X91751597Y-73585678D01*
X91765635Y-73562315D01*
X91767588Y-73559686D01*
X91769304Y-73556896D01*
X91785808Y-73535153D01*
X91802042Y-73513294D01*
X91804237Y-73510874D01*
X91806222Y-73508258D01*
X91824778Y-73488220D01*
X91843058Y-73468059D01*
X92843058Y-72468058D01*
X92844461Y-72466675D01*
X92844604Y-72466518D01*
X92844787Y-72466353D01*
X92849272Y-72461931D01*
X92869730Y-72443895D01*
X92889982Y-72425660D01*
X92892615Y-72423718D01*
X92895075Y-72421550D01*
X92917172Y-72405613D01*
X92939130Y-72389424D01*
X92941950Y-72387743D01*
X92944601Y-72385831D01*
X92968123Y-72372141D01*
X92991580Y-72358158D01*
X92994548Y-72356762D01*
X92997375Y-72355116D01*
X93022169Y-72343764D01*
X93046831Y-72332159D01*
X93049911Y-72331062D01*
X93052895Y-72329696D01*
X93078708Y-72320808D01*
X93104355Y-72311675D01*
X93107530Y-72310883D01*
X93110630Y-72309816D01*
X93137150Y-72303498D01*
X93163604Y-72296903D01*
X93166848Y-72296424D01*
X93170030Y-72295666D01*
X93197040Y-72291966D01*
X93224011Y-72287983D01*
X93227277Y-72287823D01*
X93230527Y-72287378D01*
X93257807Y-72286330D01*
X93285000Y-72285000D01*
X94021132Y-72285000D01*
X94035711Y-72277207D01*
X94099177Y-72250919D01*
X94164914Y-72230978D01*
X94232289Y-72217576D01*
X94300653Y-72210843D01*
X94369347Y-72210843D01*
X94437711Y-72217576D01*
X94505086Y-72230978D01*
X94570823Y-72250919D01*
X94634289Y-72277207D01*
X94694872Y-72309590D01*
X94751990Y-72347755D01*
X94805091Y-72391334D01*
X94853666Y-72439909D01*
X94897245Y-72493010D01*
X94935410Y-72550128D01*
X94967793Y-72610711D01*
X94994081Y-72674177D01*
X95014022Y-72739914D01*
X95027424Y-72807289D01*
X95034157Y-72875653D01*
X95034157Y-72944347D01*
X95027424Y-73012711D01*
G37*
%TD.AperFunction*%
%TA.AperFunction,SMDPad,CuDef*%
%TO.P,X1001,C21*%
G36*
X87927424Y-119462711D02*
G01*
X87914022Y-119530086D01*
X87894081Y-119595823D01*
X87867793Y-119659289D01*
X87860000Y-119673868D01*
X87860000Y-121910000D01*
X87859939Y-121918726D01*
X87856105Y-121979668D01*
X87846342Y-122039945D01*
X87830744Y-122098981D01*
X87809460Y-122156214D01*
X87782692Y-122211096D01*
X87750696Y-122263104D01*
X87713778Y-122311742D01*
X87672290Y-122356545D01*
X87626627Y-122397086D01*
X87577227Y-122432978D01*
X87524560Y-122463877D01*
X87469129Y-122489490D01*
X87411463Y-122509571D01*
X87352113Y-122523930D01*
X87291645Y-122532428D01*
X87230637Y-122534985D01*
X87169670Y-122531576D01*
X87109326Y-122522235D01*
X87050182Y-122507049D01*
X86992803Y-122486164D01*
X86937735Y-122459780D01*
X86885504Y-122428148D01*
X86836610Y-122391571D01*
X86791518Y-122350396D01*
X86750660Y-122305018D01*
X86714424Y-122255870D01*
X86683158Y-122203420D01*
X86657159Y-122148169D01*
X86636675Y-122090645D01*
X86621903Y-122031396D01*
X86612983Y-121970989D01*
X86610000Y-121910000D01*
X86610000Y-119673868D01*
X86602207Y-119659289D01*
X86575919Y-119595823D01*
X86555978Y-119530086D01*
X86542576Y-119462711D01*
X86535843Y-119394347D01*
X86535843Y-119325653D01*
X86542576Y-119257289D01*
X86555978Y-119189914D01*
X86575919Y-119124177D01*
X86602207Y-119060711D01*
X86634590Y-119000128D01*
X86672755Y-118943010D01*
X86716334Y-118889909D01*
X86764909Y-118841334D01*
X86818010Y-118797755D01*
X86875128Y-118759590D01*
X86935711Y-118727207D01*
X86999177Y-118700919D01*
X87064914Y-118680978D01*
X87132289Y-118667576D01*
X87200653Y-118660843D01*
X87269347Y-118660843D01*
X87337711Y-118667576D01*
X87405086Y-118680978D01*
X87470823Y-118700919D01*
X87534289Y-118727207D01*
X87594872Y-118759590D01*
X87651990Y-118797755D01*
X87705091Y-118841334D01*
X87753666Y-118889909D01*
X87797245Y-118943010D01*
X87835410Y-119000128D01*
X87867793Y-119060711D01*
X87894081Y-119124177D01*
X87914022Y-119189914D01*
X87927424Y-119257289D01*
X87934157Y-119325653D01*
X87934157Y-119394347D01*
X87927424Y-119462711D01*
G37*
%TD.AperFunction*%
%TA.AperFunction,SMDPad,CuDef*%
G36*
X95027424Y-120512711D02*
G01*
X95014022Y-120580086D01*
X94994081Y-120645823D01*
X94967793Y-120709289D01*
X94960000Y-120723868D01*
X94960000Y-122910000D01*
X94959939Y-122918726D01*
X94956105Y-122979668D01*
X94946342Y-123039945D01*
X94930744Y-123098981D01*
X94909460Y-123156214D01*
X94882692Y-123211096D01*
X94850696Y-123263104D01*
X94813778Y-123311742D01*
X94772290Y-123356545D01*
X94726627Y-123397086D01*
X94677227Y-123432978D01*
X94624560Y-123463877D01*
X94569129Y-123489490D01*
X94511463Y-123509571D01*
X94452113Y-123523930D01*
X94391645Y-123532428D01*
X94330637Y-123534985D01*
X94269670Y-123531576D01*
X94209326Y-123522235D01*
X94150182Y-123507049D01*
X94092803Y-123486164D01*
X94037735Y-123459780D01*
X93985504Y-123428148D01*
X93936610Y-123391571D01*
X93891518Y-123350396D01*
X93850660Y-123305018D01*
X93814424Y-123255870D01*
X93783158Y-123203420D01*
X93757159Y-123148169D01*
X93736675Y-123090645D01*
X93721903Y-123031396D01*
X93712983Y-122970989D01*
X93710000Y-122910000D01*
X93710000Y-120723868D01*
X93702207Y-120709289D01*
X93675919Y-120645823D01*
X93655978Y-120580086D01*
X93642576Y-120512711D01*
X93635843Y-120444347D01*
X93635843Y-120375653D01*
X93642576Y-120307289D01*
X93655978Y-120239914D01*
X93675919Y-120174177D01*
X93702207Y-120110711D01*
X93734590Y-120050128D01*
X93772755Y-119993010D01*
X93816334Y-119939909D01*
X93864909Y-119891334D01*
X93918010Y-119847755D01*
X93975128Y-119809590D01*
X94035711Y-119777207D01*
X94099177Y-119750919D01*
X94164914Y-119730978D01*
X94232289Y-119717576D01*
X94300653Y-119710843D01*
X94369347Y-119710843D01*
X94437711Y-119717576D01*
X94505086Y-119730978D01*
X94570823Y-119750919D01*
X94634289Y-119777207D01*
X94694872Y-119809590D01*
X94751990Y-119847755D01*
X94805091Y-119891334D01*
X94853666Y-119939909D01*
X94897245Y-119993010D01*
X94935410Y-120050128D01*
X94967793Y-120110711D01*
X94994081Y-120174177D01*
X95014022Y-120239914D01*
X95027424Y-120307289D01*
X95034157Y-120375653D01*
X95034157Y-120444347D01*
X95027424Y-120512711D01*
G37*
%TD.AperFunction*%
%TD*%
D21*
%TO.N,Net-(IC1001-Pad1)*%
X104140000Y-116840000D03*
X104775000Y-133350000D03*
X127635000Y-133350000D03*
X146050000Y-69215000D03*
X103505000Y-69215000D03*
%TO.N,Net-(IC1001-Pad11)*%
X97790000Y-145415000D03*
X97790000Y-133985000D03*
%TO.N,Net-(IC1001-Pad2)*%
X104775000Y-115570000D03*
X125095000Y-130175000D03*
X105410000Y-129540000D03*
X104775000Y-70485000D03*
X148590000Y-70485000D03*
%TO.N,Net-(IC1001-Pad3)*%
X98425000Y-114300000D03*
X98425000Y-130810000D03*
X122555000Y-130810000D03*
%TO.N,Net-(IC1001-Pad4)*%
X99060000Y-113030000D03*
X99695000Y-131445000D03*
X120015000Y-131445000D03*
%TO.N,Net-(IC1001-Pad5)*%
X99695000Y-111760000D03*
X117475000Y-132080000D03*
X100330000Y-132080000D03*
%TO.N,Net-(IC1001-Pad6)*%
X102870000Y-110490000D03*
X103943002Y-134423002D03*
X114935000Y-134620000D03*
%TO.N,Net-(IC1001-Pad7)*%
X100330000Y-109220000D03*
X112395000Y-140335000D03*
X100965000Y-140335000D03*
%TO.N,Net-(IC1001-Pad17)*%
X153035000Y-104140000D03*
X120015000Y-140335000D03*
X151765000Y-139700000D03*
X150710009Y-115354991D03*
X155575000Y-114935000D03*
X155575000Y-104140000D03*
%TO.N,Net-(IC1001-Pad8)*%
X101560000Y-107910000D03*
X109855000Y-140970000D03*
X102235000Y-140970000D03*
%TO.N,Net-(IC1001-Pad18)*%
X122555000Y-140970000D03*
X150259999Y-140570001D03*
%TO.N,Net-(IC1001-Pad9)*%
X106680000Y-128270000D03*
X148590000Y-128270000D03*
%TO.N,Net-(IC1001-Pad19)*%
X125095000Y-141605000D03*
X106045000Y-141605000D03*
X103505000Y-118745000D03*
%TO.N,GND*%
X132080000Y-90805000D03*
X128905000Y-90805000D03*
X128905000Y-97790000D03*
X126365000Y-97790000D03*
X121285000Y-97790000D03*
X107950000Y-120015000D03*
X107950000Y-116840000D03*
X107950000Y-135890000D03*
X104775000Y-135890000D03*
X133350000Y-132715000D03*
X152400000Y-124460000D03*
X152400000Y-132715000D03*
X133350000Y-123825000D03*
X121285000Y-107950000D03*
X112395000Y-107950000D03*
X111125000Y-121920000D03*
X111125000Y-116840000D03*
X154305000Y-126365000D03*
X166370000Y-126365000D03*
X133350000Y-66675000D03*
X142875000Y-124460000D03*
X104775000Y-142240000D03*
X102870000Y-107950000D03*
%TO.N,+5P*%
X127635000Y-148590000D03*
X94615000Y-148590000D03*
X155575000Y-69215000D03*
X118110000Y-83820000D03*
X123190000Y-83820000D03*
X123190000Y-92075000D03*
X136525000Y-92710000D03*
X136525000Y-98425000D03*
X151765000Y-98425000D03*
X154305000Y-98425000D03*
X130810000Y-124460000D03*
X130810000Y-118745000D03*
X145415000Y-118745000D03*
X101600000Y-76835000D03*
X118110000Y-76835000D03*
%TO.N,Net-(J1001-Pad2)*%
X156845000Y-113030000D03*
X122555000Y-113030000D03*
X168910000Y-89535000D03*
X168910000Y-113030000D03*
%TO.N,Net-(J1001-Pad3)*%
X118110000Y-90805000D03*
X124315001Y-91295001D03*
X161035000Y-91695000D03*
X160655000Y-88265000D03*
%TO.N,Net-(J1001-Pad4)*%
X135890000Y-76200000D03*
X111760000Y-76200000D03*
X169545000Y-79375000D03*
X168910000Y-114935000D03*
X161290000Y-114935000D03*
%TO.N,Net-(J1001-Pad5)*%
X128270000Y-85090000D03*
X107315000Y-85725000D03*
X107315000Y-91440000D03*
X116205000Y-91440000D03*
X170180000Y-84455000D03*
X168910000Y-116205000D03*
X163830000Y-116205000D03*
%TO.N,Net-(J1002-Pad2)*%
X113665000Y-106680000D03*
X125095000Y-106680000D03*
X114300000Y-127000000D03*
X123190000Y-127000000D03*
X125095000Y-90170000D03*
%TO.N,Net-(J1002-Pad4)*%
X127490010Y-102725010D03*
X116205000Y-102870000D03*
%TO.N,Net-(J1002-Pad6)*%
X118745000Y-105410000D03*
X130319990Y-105265010D03*
X125730000Y-120650000D03*
X115570000Y-120650000D03*
X118745000Y-112395000D03*
X125095000Y-112395000D03*
X130810000Y-85090000D03*
%TO.N,Net-(J1002-Pad7)*%
X129540000Y-86360000D03*
X114300000Y-86360000D03*
X129540000Y-78740000D03*
%TO.N,Net-(J1002-Pad8)*%
X132715000Y-101600000D03*
X123825000Y-101600000D03*
X133350000Y-84455000D03*
%TO.N,Net-(J1002-Pad10)*%
X135255000Y-103505000D03*
X126365000Y-104140000D03*
X135890000Y-78740000D03*
%TO.N,Net-(J1002-Pad11)*%
X138430000Y-75565000D03*
X108585000Y-75565000D03*
%TO.N,Net-(J1002-Pad12)*%
X137939990Y-106535010D03*
X128905000Y-106680000D03*
X139700000Y-76835000D03*
%TO.N,Net-(J1002-Pad13)*%
X106680000Y-67945000D03*
X140970000Y-67945000D03*
X169545000Y-74295000D03*
X169545000Y-67945000D03*
%TO.N,Net-(J1002-Pad14)*%
X140335000Y-105410000D03*
X131445000Y-105410000D03*
%TO.N,Net-(J1002-Pad16)*%
X142875000Y-105410000D03*
%TO.N,Net-(J1002-Pad17)*%
X119380000Y-120015000D03*
X123190000Y-120015000D03*
%TO.N,Net-(J1002-Pad14)*%
X118110000Y-121285000D03*
X113030000Y-121285000D03*
X160020000Y-106680000D03*
X121285000Y-114300000D03*
X130175000Y-114300000D03*
X140970000Y-74930000D03*
%TO.N,Net-(J1002-Pad15)*%
X145415000Y-104140000D03*
X111125000Y-104140000D03*
%TO.N,Net-(J1002-Pad16)*%
X142545013Y-71449987D03*
X158115000Y-104140000D03*
%TO.N,Net-(J1002-Pad17)*%
X120834990Y-68764990D03*
%TO.N,Net-(J1002-Pad19)*%
X118204999Y-65499999D03*
%TO.N,Net-(U1002-Pad1)*%
X158750000Y-82550000D03*
%TO.N,Net-(U1002-Pad2)*%
X156210000Y-79375000D03*
%TO.N,Net-(U1002-Pad3)*%
X153865000Y-77910000D03*
%TO.N,Net-(U1002-Pad23)*%
X114935000Y-98425000D03*
X104775000Y-125730000D03*
X106045000Y-98425000D03*
%TO.N,Net-(U1002-Pad25)*%
X97639999Y-121435001D03*
X97639999Y-90320001D03*
X120650000Y-90170000D03*
%TO.N,Net-(U1002-Pad35)*%
X99340000Y-87910000D03*
X99695000Y-85090000D03*
X146050000Y-83820000D03*
%TO.N,Net-(U1002-Pad38)*%
X154149999Y-81435001D03*
%TO.N,Net-(U1002-Pad19)*%
X113030000Y-83820000D03*
%TO.N,Net-(U1002-Pad39)*%
X156210000Y-80645000D03*
%TO.N,Net-(U1002-Pad20)*%
X110490000Y-86360000D03*
%TO.N,Net-(U1002-Pad40)*%
X158750000Y-83820000D03*
%TO.N,Net-(J1003-Pad2)*%
X133985000Y-114300000D03*
X138430000Y-114300000D03*
X138430000Y-121285000D03*
X156210000Y-121285000D03*
%TO.N,Net-(J1004-Pad2)*%
X156845000Y-127000000D03*
X136525000Y-127000000D03*
X136525000Y-115570000D03*
X131445000Y-114935000D03*
%TD*%
D22*
%TO.N,Net-(IC1001-Pad1)*%
X104140000Y-116840000D02*
X102235000Y-116840000D01*
X102144999Y-117565001D02*
X102144999Y-128178589D01*
X102235000Y-117475000D02*
X102144999Y-117565001D01*
X102235000Y-116840000D02*
X102235000Y-117475000D01*
X104140000Y-130808590D02*
X104775000Y-131443590D01*
X104140000Y-130173590D02*
X104140000Y-130808590D01*
X102144999Y-128178589D02*
X104140000Y-130173590D01*
X104775000Y-131443590D02*
X104775000Y-133350000D01*
X127635000Y-137795000D02*
X127635000Y-133350000D01*
X104775000Y-133350000D02*
X104775000Y-133350000D01*
X127635000Y-133350000D02*
X127635000Y-133350000D01*
X103740001Y-116440001D02*
X103740001Y-69450001D01*
X104140000Y-116840000D02*
X103740001Y-116440001D01*
X103740001Y-69450001D02*
X103505000Y-69215000D01*
X146050000Y-73025000D02*
X146050000Y-69215000D01*
X146050000Y-69215000D02*
X146050000Y-69215000D01*
X103505000Y-69215000D02*
X103505000Y-69215000D01*
%TO.N,Net-(IC1001-Pad11)*%
X97790000Y-133985000D02*
X97790000Y-145415000D01*
%TO.N,Net-(IC1001-Pad2)*%
X125095000Y-137795000D02*
X125095000Y-130175000D01*
X125095000Y-130175000D02*
X125095000Y-130175000D01*
X105174999Y-115969999D02*
X105174999Y-117075001D01*
X104775000Y-115570000D02*
X105174999Y-115969999D01*
X105174999Y-118148003D02*
X103853001Y-119470001D01*
X105174999Y-117075001D02*
X105174999Y-118148003D01*
X103853001Y-119470001D02*
X103853001Y-127983001D01*
X103853001Y-127983001D02*
X104775000Y-128905000D01*
X104775000Y-128905000D02*
X105410000Y-129540000D01*
X105410000Y-129540000D02*
X105410000Y-129540000D01*
X104775000Y-115570000D02*
X104775000Y-70485000D01*
X104775000Y-70485000D02*
X104775000Y-70485000D01*
X148590000Y-73025000D02*
X148590000Y-70485000D01*
%TO.N,Net-(IC1001-Pad3)*%
X98425000Y-114300000D02*
X98425000Y-130810000D01*
X122555000Y-137795000D02*
X122555000Y-130810000D01*
X98425000Y-130810000D02*
X98425000Y-130810000D01*
X122555000Y-130810000D02*
X122555000Y-130810000D01*
%TO.N,Net-(IC1001-Pad4)*%
X99459999Y-113429999D02*
X99459999Y-131209999D01*
X99060000Y-113030000D02*
X99459999Y-113429999D01*
X99459999Y-131209999D02*
X99695000Y-131445000D01*
X120015000Y-137795000D02*
X120015000Y-131445000D01*
X99695000Y-131445000D02*
X99695000Y-131445000D01*
X120015000Y-131445000D02*
X120015000Y-131445000D01*
%TO.N,Net-(IC1001-Pad5)*%
X117475000Y-137795000D02*
X117475000Y-132715000D01*
X100145009Y-130625009D02*
X100965000Y-131445000D01*
X100145009Y-112210009D02*
X100145009Y-130625009D01*
X99695000Y-111760000D02*
X100145009Y-112210009D01*
X117475000Y-132715000D02*
X117475000Y-132080000D01*
X117475000Y-132080000D02*
X117475000Y-132080000D01*
X100965000Y-131445000D02*
X100330000Y-132080000D01*
X100330000Y-132080000D02*
X100330000Y-132080000D01*
%TO.N,Net-(IC1001-Pad6)*%
X114935000Y-137795000D02*
X114935000Y-134620000D01*
X114935000Y-133985000D02*
X114935000Y-134620000D01*
X103505000Y-130810000D02*
X103943002Y-131248002D01*
X103943002Y-131248002D02*
X103943002Y-134423002D01*
X103505000Y-130175000D02*
X103505000Y-130810000D01*
X101600000Y-128270000D02*
X103505000Y-130175000D01*
X101600000Y-111760000D02*
X101600000Y-128270000D01*
X102870000Y-110490000D02*
X101600000Y-111760000D01*
X103943002Y-134423002D02*
X103943002Y-134423002D01*
X114935000Y-134620000D02*
X114935000Y-133985000D01*
%TO.N,Net-(IC1001-Pad7)*%
X112395000Y-137795000D02*
X112395000Y-140335000D01*
X101600000Y-139700000D02*
X100965000Y-140335000D01*
X101415010Y-130359990D02*
X101415010Y-139515010D01*
X100595019Y-129539999D02*
X101415010Y-130359990D01*
X101415010Y-139515010D02*
X101600000Y-139700000D01*
X100595019Y-109485019D02*
X100595019Y-129539999D01*
X100330000Y-109220000D02*
X100595019Y-109485019D01*
X112395000Y-140335000D02*
X112395000Y-140335000D01*
X100965000Y-140335000D02*
X100965000Y-140335000D01*
%TO.N,Net-(IC1001-Pad17)*%
X153179990Y-90314990D02*
X153179990Y-103995010D01*
X151130000Y-88265000D02*
X153179990Y-90314990D01*
X153179990Y-103995010D02*
X153035000Y-104140000D01*
X153035000Y-104140000D02*
X153035000Y-104140000D01*
X120015000Y-145415000D02*
X120015000Y-140335000D01*
X120015000Y-140335000D02*
X120015000Y-140335000D01*
X151765000Y-139700000D02*
X150710009Y-138645009D01*
X150710009Y-138645009D02*
X150710009Y-115354991D01*
X150710009Y-115354991D02*
X150710009Y-115354991D01*
X155575000Y-114935000D02*
X155575000Y-104140000D01*
X155575000Y-104140000D02*
X155575000Y-104140000D01*
%TO.N,Net-(IC1001-Pad8)*%
X109855000Y-137795000D02*
X109855000Y-140970000D01*
X102235000Y-139698590D02*
X102235000Y-140970000D01*
X101959999Y-129899999D02*
X101959999Y-139423589D01*
X101959999Y-139423589D02*
X102235000Y-139698590D01*
X101045029Y-128985029D02*
X101959999Y-129899999D01*
X101055001Y-119289999D02*
X101045029Y-119299971D01*
X101045029Y-119299971D02*
X101045029Y-128985029D01*
X101055001Y-109220000D02*
X101055001Y-119289999D01*
X101560000Y-108715001D02*
X101055001Y-109220000D01*
X101560000Y-107910000D02*
X101560000Y-108715001D01*
X109855000Y-140970000D02*
X109855000Y-140970000D01*
X102235000Y-140970000D02*
X102235000Y-140970000D01*
%TO.N,Net-(IC1001-Pad18)*%
X150639990Y-102725010D02*
X150639990Y-102725010D01*
X122555000Y-145415000D02*
X122555000Y-140970000D01*
X122555000Y-140970000D02*
X122555000Y-140970000D01*
X150259999Y-115969999D02*
X150259999Y-140570001D01*
X150259999Y-110725001D02*
X150259999Y-114064999D01*
X150639990Y-110345010D02*
X150259999Y-110725001D01*
X150639990Y-89969988D02*
X150639990Y-110345010D01*
X149715001Y-89044999D02*
X150639990Y-89969988D01*
X149715001Y-74439999D02*
X149715001Y-89044999D01*
X151130000Y-73025000D02*
X149715001Y-74439999D01*
X149985008Y-115695008D02*
X150259999Y-115969999D01*
X149985008Y-114339990D02*
X149985008Y-115695008D01*
X150259999Y-114064999D02*
X149985008Y-114339990D01*
%TO.N,Net-(IC1001-Pad9)*%
X106680000Y-137160000D02*
X107315000Y-137795000D01*
X106680000Y-128270000D02*
X106680000Y-137160000D01*
X148099990Y-127779990D02*
X148590000Y-128270000D01*
X148099990Y-88755010D02*
X148099990Y-127779990D01*
X148590000Y-88265000D02*
X148099990Y-88755010D01*
%TO.N,Net-(IC1001-Pad19)*%
X125095000Y-145415000D02*
X125095000Y-141605000D01*
X125095000Y-141605000D02*
X125095000Y-141605000D01*
X103505000Y-118745000D02*
X102870000Y-119380000D01*
X102870000Y-128267180D02*
X106045000Y-131442180D01*
X102870000Y-119380000D02*
X102870000Y-128267180D01*
X106045000Y-131442180D02*
X106045000Y-141605000D01*
X106045000Y-141605000D02*
X106045000Y-141605000D01*
X125095000Y-145415000D02*
X125095000Y-144780000D01*
X103505000Y-118745000D02*
X103505000Y-118745000D01*
%TO.N,GND*%
X131935001Y-74439999D02*
X131935001Y-90660001D01*
X133350000Y-73025000D02*
X131935001Y-74439999D01*
X131935001Y-90660001D02*
X132080000Y-90805000D01*
X128905000Y-94615000D02*
X128905000Y-90805000D01*
X132080000Y-90805000D02*
X132080000Y-90805000D01*
X128905000Y-90805000D02*
X128905000Y-90805000D01*
X121285000Y-109855000D02*
X121285000Y-107950000D01*
X126365000Y-94615000D02*
X126365000Y-97790000D01*
X128905000Y-94615000D02*
X128905000Y-97790000D01*
X128905000Y-97790000D02*
X128905000Y-97790000D01*
X126365000Y-97790000D02*
X126365000Y-97790000D01*
X121285000Y-97790000D02*
X121285000Y-94615000D01*
X104775000Y-137795000D02*
X104775000Y-135890000D01*
X107950000Y-116840000D02*
X107950000Y-120015000D01*
X107950000Y-120015000D02*
X107950000Y-135890000D01*
X107950000Y-135890000D02*
X107950000Y-135890000D01*
X104775000Y-135890000D02*
X104775000Y-135890000D01*
X154250000Y-139215000D02*
X154250000Y-132715000D01*
X133350000Y-132715000D02*
X133350000Y-126365000D01*
X133350000Y-126365000D02*
X133350000Y-123825000D01*
X152400000Y-124460000D02*
X152400000Y-132715000D01*
X152400000Y-132715000D02*
X152400000Y-132715000D01*
X133350000Y-123825000D02*
X133350000Y-123825000D01*
X121285000Y-107950000D02*
X121285000Y-97790000D01*
X112395000Y-116205000D02*
X113030000Y-116840000D01*
X112395000Y-107950000D02*
X112395000Y-116205000D01*
X111125000Y-121920000D02*
X111125000Y-116840000D01*
X166370000Y-118745000D02*
X166370000Y-126365000D01*
X154305000Y-124460000D02*
X154305000Y-126365000D01*
X154305000Y-126365000D02*
X154305000Y-126365000D01*
X166370000Y-126365000D02*
X166370000Y-126365000D01*
X133350000Y-66675000D02*
X133350000Y-73025000D01*
X142875000Y-116205000D02*
X142875000Y-124460000D01*
X142875000Y-124460000D02*
X142875000Y-124460000D01*
X166370000Y-100330000D02*
X165735000Y-99695000D01*
X166370000Y-118745000D02*
X166370000Y-100330000D01*
X154250000Y-144200000D02*
X153670000Y-144780000D01*
X154250000Y-139215000D02*
X154250000Y-144200000D01*
X104775000Y-137795000D02*
X104775000Y-142240000D01*
X102870000Y-105370000D02*
X101600000Y-104100000D01*
X102870000Y-107950000D02*
X102870000Y-105370000D01*
%TO.N,+5P*%
X128760001Y-124950001D02*
X128270000Y-124460000D01*
X128760001Y-144289999D02*
X128760001Y-124950001D01*
X127635000Y-145415000D02*
X128760001Y-144289999D01*
X127635000Y-145415000D02*
X127635000Y-148590000D01*
X94335000Y-140410000D02*
X94335000Y-147675000D01*
X94335000Y-147675000D02*
X94615000Y-147955000D01*
X94615000Y-147955000D02*
X94615000Y-148590000D01*
X127635000Y-148590000D02*
X127635000Y-148590000D01*
X94615000Y-148590000D02*
X94615000Y-148590000D01*
X154305000Y-103943002D02*
X154305000Y-94615000D01*
X153179990Y-105068012D02*
X154305000Y-103943002D01*
X153179990Y-118254990D02*
X153179990Y-105068012D01*
X153670000Y-118745000D02*
X153179990Y-118254990D01*
X155084999Y-93835001D02*
X154305000Y-94615000D01*
X155084999Y-69705001D02*
X155084999Y-93835001D01*
X155575000Y-69215000D02*
X155084999Y-69705001D01*
X118110000Y-88265000D02*
X118110000Y-83820000D01*
X123190000Y-88265000D02*
X123190000Y-83820000D01*
X118110000Y-83820000D02*
X118110000Y-83820000D01*
X123190000Y-83820000D02*
X123190000Y-83820000D01*
X123190000Y-88265000D02*
X123190000Y-92075000D01*
X136525000Y-94615000D02*
X136525000Y-92710000D01*
X123190000Y-92075000D02*
X123190000Y-92075000D01*
X136525000Y-92710000D02*
X136525000Y-92710000D01*
X136525000Y-94615000D02*
X136525000Y-98425000D01*
X136525000Y-98425000D02*
X136525000Y-98425000D01*
X151765000Y-94615000D02*
X151765000Y-98425000D01*
X151765000Y-98425000D02*
X151765000Y-98425000D01*
X130810000Y-124460000D02*
X130810000Y-118745000D01*
X145375000Y-116205000D02*
X145375000Y-118705000D01*
X101600000Y-71755000D02*
X101600000Y-76835000D01*
X100330000Y-70485000D02*
X101600000Y-71755000D01*
X118110000Y-83820000D02*
X118110000Y-76835000D01*
X101600000Y-76835000D02*
X101600000Y-101600000D01*
X118110000Y-76835000D02*
X118110000Y-76835000D01*
%TO.N,Net-(J1001-Pad2)*%
X121775001Y-92565001D02*
X123825000Y-94615000D01*
X121775001Y-74439999D02*
X121775001Y-92565001D01*
X123190000Y-73025000D02*
X121775001Y-74439999D01*
X156210000Y-118745000D02*
X156845000Y-118110000D01*
X156845000Y-118110000D02*
X156845000Y-113030000D01*
X156845000Y-113030000D02*
X156845000Y-113030000D01*
X123825000Y-94615000D02*
X123825000Y-97155000D01*
X123190000Y-97155000D02*
X122555000Y-97790000D01*
X123825000Y-97155000D02*
X123190000Y-97155000D01*
X122555000Y-113030000D02*
X122555000Y-97790000D01*
X168910000Y-89535000D02*
X168910000Y-113030000D01*
X168910000Y-113030000D02*
X168910000Y-113030000D01*
%TO.N,Net-(J1001-Pad3)*%
X124315001Y-74439999D02*
X124315001Y-91295001D01*
X125730000Y-73025000D02*
X124315001Y-74439999D01*
X118745000Y-94615000D02*
X118745000Y-91440000D01*
X118745000Y-91440000D02*
X118110000Y-90805000D01*
X118110000Y-90805000D02*
X118110000Y-90805000D01*
X124315001Y-91295001D02*
X124315001Y-91295001D01*
X161035000Y-91695000D02*
X161035000Y-88645000D01*
X161035000Y-88645000D02*
X160655000Y-88265000D01*
X160655000Y-88265000D02*
X160655000Y-88265000D01*
X158750000Y-118012390D02*
X159385000Y-117377390D01*
X158750000Y-118745000D02*
X158750000Y-118012390D01*
X159385000Y-117377390D02*
X159385000Y-111125000D01*
X159385000Y-111125000D02*
X159385000Y-111125000D01*
X159294999Y-93435001D02*
X161035000Y-91695000D01*
X159294999Y-111034999D02*
X159294999Y-93435001D01*
X159385000Y-111125000D02*
X159294999Y-111034999D01*
%TO.N,Net-(J1001-Pad4)*%
X111615001Y-94124999D02*
X111615001Y-76344999D01*
X111125000Y-94615000D02*
X111615001Y-94124999D01*
X111615001Y-76344999D02*
X111760000Y-76200000D01*
X135890000Y-73025000D02*
X135890000Y-76200000D01*
X135890000Y-76200000D02*
X135890000Y-76200000D01*
X111760000Y-76200000D02*
X111760000Y-76200000D01*
X169635001Y-89186999D02*
X169635001Y-114209999D01*
X169145001Y-88696999D02*
X169635001Y-89186999D01*
X169145001Y-79774999D02*
X169145001Y-88696999D01*
X169545000Y-79375000D02*
X169145001Y-79774999D01*
X169635001Y-114209999D02*
X168910000Y-114935000D01*
X161290000Y-118745000D02*
X161290000Y-115570000D01*
X161290000Y-115570000D02*
X161290000Y-114935000D01*
X168910000Y-114935000D02*
X168910000Y-114935000D01*
X161290000Y-114935000D02*
X161290000Y-114935000D01*
%TO.N,Net-(J1001-Pad5)*%
X128270000Y-73025000D02*
X128270000Y-85090000D01*
X128270000Y-85090000D02*
X128270000Y-85090000D01*
X107315000Y-85725000D02*
X107315000Y-91440000D01*
X107315000Y-91440000D02*
X107315000Y-91440000D01*
X116205000Y-94615000D02*
X116205000Y-91440000D01*
X116205000Y-91440000D02*
X116205000Y-91440000D01*
X170180000Y-84455000D02*
X170180000Y-114301410D01*
X170180000Y-114301410D02*
X170180000Y-114935000D01*
X170180000Y-114935000D02*
X168910000Y-116205000D01*
X163830000Y-118745000D02*
X163830000Y-116840000D01*
X163830000Y-116840000D02*
X163830000Y-116205000D01*
X168910000Y-116205000D02*
X168910000Y-116205000D01*
X163830000Y-116205000D02*
X163830000Y-116205000D01*
%TO.N,Net-(J1002-Pad2)*%
X125730000Y-88265000D02*
X125239990Y-88755010D01*
X125239990Y-106535010D02*
X125095000Y-106680000D01*
X113665000Y-109855000D02*
X113665000Y-106680000D01*
X113665000Y-106680000D02*
X113665000Y-106680000D01*
X125095000Y-106680000D02*
X125095000Y-106680000D01*
X123190000Y-124460000D02*
X123190000Y-127000000D01*
X114155010Y-110345010D02*
X114155010Y-126855010D01*
X113665000Y-109855000D02*
X114155010Y-110345010D01*
X114155010Y-126855010D02*
X114300000Y-127000000D01*
X114300000Y-127000000D02*
X114300000Y-127000000D01*
X123190000Y-127000000D02*
X123190000Y-127000000D01*
X125730000Y-89535000D02*
X125095000Y-90170000D01*
X125730000Y-88265000D02*
X125730000Y-89535000D01*
X125095000Y-90170000D02*
X125095000Y-106680000D01*
%TO.N,Net-(J1002-Pad4)*%
X127490010Y-89044990D02*
X127490010Y-102725010D01*
X128270000Y-88265000D02*
X127490010Y-89044990D01*
X127490010Y-102725010D02*
X127635000Y-102870000D01*
X116205000Y-109855000D02*
X116205000Y-102870000D01*
X127490010Y-102725010D02*
X127490010Y-102725010D01*
X116205000Y-102870000D02*
X116205000Y-102870000D01*
%TO.N,Net-(J1002-Pad6)*%
X130319990Y-88755010D02*
X130319990Y-105265010D01*
X130810000Y-88265000D02*
X130319990Y-88755010D01*
X118745000Y-109855000D02*
X118745000Y-105410000D01*
X118745000Y-105410000D02*
X118745000Y-105410000D01*
X130319990Y-105265010D02*
X130319990Y-105265010D01*
X115570000Y-124460000D02*
X115570000Y-120650000D01*
X125730000Y-116840000D02*
X125730000Y-120650000D01*
X125730000Y-120650000D02*
X125730000Y-120650000D01*
X115570000Y-120650000D02*
X115570000Y-120650000D01*
X125730000Y-116840000D02*
X125730000Y-113030000D01*
X125730000Y-113030000D02*
X125095000Y-112395000D01*
X118745000Y-109855000D02*
X118745000Y-112395000D01*
X118745000Y-112395000D02*
X118745000Y-112395000D01*
X125095000Y-112395000D02*
X125095000Y-112395000D01*
X130810000Y-88265000D02*
X130810000Y-85090000D01*
X130810000Y-85090000D02*
X130810000Y-85090000D01*
%TO.N,Net-(J1002-Pad7)*%
X130810000Y-73025000D02*
X129540000Y-74295000D01*
X129540000Y-74295000D02*
X129540000Y-86360000D01*
X114155001Y-94124999D02*
X114155001Y-86504999D01*
X113665000Y-94615000D02*
X114155001Y-94124999D01*
X114155001Y-86504999D02*
X114300000Y-86360000D01*
X129540000Y-86360000D02*
X129540000Y-86360000D01*
X114300000Y-86360000D02*
X114300000Y-86360000D01*
%TO.N,Net-(J1002-Pad8)*%
X132859990Y-88755010D02*
X132859990Y-101455010D01*
X133350000Y-88265000D02*
X132859990Y-88755010D01*
X132859990Y-101455010D02*
X132715000Y-101600000D01*
X123825000Y-109855000D02*
X123825000Y-101600000D01*
X132715000Y-101600000D02*
X132715000Y-101600000D01*
X123825000Y-101600000D02*
X123825000Y-101600000D01*
X128270000Y-116840000D02*
X128270000Y-112395000D01*
X126365000Y-112395000D02*
X128270000Y-112395000D01*
X123825000Y-109855000D02*
X126365000Y-112395000D01*
X133350000Y-88265000D02*
X133350000Y-84455000D01*
%TO.N,Net-(J1002-Pad10)*%
X135399990Y-88755010D02*
X135399990Y-103360010D01*
X135890000Y-88265000D02*
X135399990Y-88755010D01*
X135399990Y-103360010D02*
X135255000Y-103505000D01*
X126365000Y-109855000D02*
X126365000Y-104140000D01*
X135255000Y-103505000D02*
X135255000Y-103505000D01*
X126365000Y-104140000D02*
X126365000Y-104140000D01*
X135890000Y-78740000D02*
X135890000Y-88265000D01*
%TO.N,Net-(J1002-Pad11)*%
X108585000Y-94615000D02*
X108585000Y-75565000D01*
X138430000Y-73025000D02*
X138430000Y-75565000D01*
X138430000Y-75565000D02*
X138430000Y-75565000D01*
X108585000Y-75565000D02*
X108585000Y-75565000D01*
%TO.N,Net-(J1002-Pad12)*%
X137939990Y-88755010D02*
X137939990Y-106535010D01*
X138430000Y-88265000D02*
X137939990Y-88755010D01*
X128905000Y-109855000D02*
X128905000Y-106680000D01*
X137939990Y-106535010D02*
X137939990Y-106535010D01*
X128905000Y-106680000D02*
X128905000Y-106680000D01*
X139700000Y-86995000D02*
X138430000Y-88265000D01*
X139700000Y-76835000D02*
X139700000Y-86995000D01*
%TO.N,Net-(J1002-Pad13)*%
X106589999Y-97896997D02*
X106589999Y-68035001D01*
X108585000Y-99891998D02*
X106589999Y-97896997D01*
X108585000Y-109855000D02*
X108585000Y-99891998D01*
X106589999Y-68035001D02*
X106680000Y-67945000D01*
X140970000Y-73025000D02*
X140970000Y-67945000D01*
X106680000Y-67945000D02*
X106680000Y-67945000D01*
X140970000Y-67945000D02*
X140970000Y-67945000D01*
X169545000Y-67945000D02*
X169545000Y-74295000D01*
%TO.N,Net-(J1002-Pad14)*%
X140970000Y-93258996D02*
X140335000Y-93893996D01*
X140970000Y-88265000D02*
X140970000Y-93258996D01*
X140335000Y-93893996D02*
X140335000Y-105410000D01*
X140335000Y-105410000D02*
X140335000Y-105410000D01*
X131445000Y-105410000D02*
X131445000Y-105410000D01*
%TO.N,Net-(J1002-Pad16)*%
X143019990Y-88755010D02*
X143019990Y-105265010D01*
X143510000Y-88265000D02*
X143019990Y-88755010D01*
X143019990Y-105265010D02*
X142875000Y-105410000D01*
X142875000Y-105410000D02*
X142875000Y-105410000D01*
%TO.N,Net-(J1002-Pad17)*%
X119524999Y-93403995D02*
X120015000Y-93893996D01*
X119524999Y-74150001D02*
X119524999Y-93403995D01*
X120650000Y-73025000D02*
X119524999Y-74150001D01*
X120015000Y-93893996D02*
X120015000Y-112395000D01*
X120015000Y-115483996D02*
X119380000Y-116118996D01*
X120015000Y-112395000D02*
X120015000Y-115483996D01*
X119380000Y-116118996D02*
X119380000Y-120015000D01*
X123190000Y-116840000D02*
X123190000Y-120015000D01*
X119380000Y-120015000D02*
X119380000Y-120015000D01*
X123190000Y-120015000D02*
X123190000Y-120015000D01*
%TO.N,Net-(J1002-Pad14)*%
X113030000Y-124460000D02*
X113030000Y-121285000D01*
X118110000Y-116840000D02*
X118110000Y-121285000D01*
X118110000Y-121285000D02*
X118110000Y-121285000D01*
X113030000Y-121285000D02*
X113030000Y-121285000D01*
X160560001Y-127729999D02*
X159385000Y-128905000D01*
X160560001Y-123349999D02*
X160560001Y-127729999D01*
X160020000Y-122809998D02*
X160560001Y-123349999D01*
X120650000Y-116840000D02*
X120650000Y-114935000D01*
X120650000Y-114935000D02*
X121285000Y-114300000D01*
X121285000Y-114300000D02*
X121285000Y-114300000D01*
X130030010Y-106824990D02*
X130030010Y-114155010D01*
X131445000Y-105410000D02*
X130030010Y-106824990D01*
X130030010Y-114155010D02*
X130175000Y-114300000D01*
X130175000Y-114300000D02*
X130175000Y-114300000D01*
X140970000Y-74930000D02*
X140970000Y-88265000D01*
X160020000Y-106680000D02*
X160020000Y-107950000D01*
X160020000Y-107950000D02*
X160655000Y-108585000D01*
X160655000Y-113665000D02*
X160020000Y-114300000D01*
X160655000Y-108585000D02*
X160655000Y-113665000D01*
X160020000Y-114300000D02*
X160020000Y-122809998D01*
%TO.N,Net-(J1002-Pad15)*%
X144924999Y-92565001D02*
X145415000Y-93055002D01*
X144924999Y-74439999D02*
X144924999Y-92565001D01*
X143510000Y-73025000D02*
X144924999Y-74439999D01*
X145415000Y-93055002D02*
X145415000Y-104140000D01*
X111125000Y-109855000D02*
X111125000Y-108405000D01*
X111125000Y-108405000D02*
X111125000Y-104140000D01*
X145415000Y-104140000D02*
X145415000Y-104140000D01*
X111125000Y-104140000D02*
X111125000Y-104140000D01*
%TO.N,Net-(J1002-Pad16)*%
X157480000Y-122555000D02*
X159385000Y-124460000D01*
X157480000Y-118275998D02*
X157480000Y-122555000D01*
X158115000Y-117640998D02*
X157480000Y-118275998D01*
X142145014Y-86900014D02*
X143510000Y-88265000D01*
X142145014Y-71849986D02*
X142145014Y-86900014D01*
X142545013Y-71449987D02*
X142145014Y-71849986D01*
X158115000Y-104140000D02*
X158115000Y-107950000D01*
X158115000Y-107950000D02*
X158115000Y-117640998D01*
X158115000Y-107384315D02*
X158115000Y-107950000D01*
%TO.N,Net-(J1002-Pad17)*%
X120834990Y-72840010D02*
X120650000Y-73025000D01*
X120834990Y-68764990D02*
X120834990Y-72840010D01*
%TO.N,Net-(J1002-Pad19)*%
X116695001Y-74439999D02*
X118110000Y-73025000D01*
X116695001Y-90463003D02*
X116695001Y-74439999D01*
X117475000Y-91243002D02*
X116695001Y-90463003D01*
X117475000Y-114935000D02*
X117475000Y-91243002D01*
X115570000Y-116840000D02*
X117475000Y-114935000D01*
X118204999Y-72930001D02*
X118110000Y-73025000D01*
X118204999Y-65499999D02*
X118204999Y-72930001D01*
%TO.N,Net-(U1002-Pad1)*%
X158750000Y-82550000D02*
X158750000Y-73025000D01*
%TO.N,Net-(U1002-Pad2)*%
X156210000Y-73025000D02*
X156210000Y-79375000D01*
%TO.N,Net-(U1002-Pad3)*%
X153670000Y-77715000D02*
X153865000Y-77910000D01*
X153670000Y-73025000D02*
X153670000Y-77715000D01*
%TO.N,Net-(U1002-Pad23)*%
X115079990Y-88755010D02*
X115570000Y-88265000D01*
X115079990Y-95480994D02*
X115079990Y-88755010D01*
X115570000Y-95971004D02*
X115079990Y-95480994D01*
X115570000Y-98425000D02*
X115570000Y-95971004D01*
X114935000Y-98425000D02*
X114935000Y-98425000D01*
X114935000Y-98425000D02*
X115570000Y-98425000D01*
X104775000Y-125730000D02*
X106045000Y-124460000D01*
X106045000Y-124460000D02*
X106045000Y-98425000D01*
X106045000Y-98425000D02*
X106045000Y-98425000D01*
%TO.N,Net-(U1002-Pad25)*%
X97639999Y-121435001D02*
X97639999Y-90320001D01*
X97639999Y-90320001D02*
X97790000Y-90170000D01*
X120650000Y-88265000D02*
X120650000Y-90170000D01*
X97639999Y-90320001D02*
X97639999Y-90320001D01*
X120650000Y-90170000D02*
X120650000Y-90170000D01*
%TO.N,Net-(U1002-Pad35)*%
X99340000Y-87910000D02*
X99340000Y-85445000D01*
X99340000Y-85445000D02*
X99695000Y-85090000D01*
X99695000Y-85090000D02*
X99695000Y-85090000D01*
X146050000Y-83820000D02*
X146050000Y-88265000D01*
%TO.N,Net-(U1002-Pad38)*%
X153670000Y-81915000D02*
X154149999Y-81435001D01*
X153670000Y-88265000D02*
X153670000Y-81915000D01*
%TO.N,Net-(U1002-Pad19)*%
X113030000Y-73025000D02*
X113030000Y-83820000D01*
%TO.N,Net-(U1002-Pad39)*%
X156210000Y-80645000D02*
X156210000Y-88265000D01*
%TO.N,Net-(U1002-Pad20)*%
X110490000Y-73025000D02*
X110490000Y-86360000D01*
%TO.N,Net-(U1002-Pad40)*%
X158750000Y-83820000D02*
X158750000Y-88265000D01*
%TO.N,Net-(J1003-Pad2)*%
X133985000Y-109855000D02*
X133985000Y-113665000D01*
X133985000Y-113665000D02*
X133985000Y-114300000D01*
X133985000Y-114300000D02*
X133985000Y-114300000D01*
X138430000Y-114300000D02*
X138430000Y-121285000D01*
X156845000Y-124460000D02*
X156845000Y-121920000D01*
X156845000Y-121920000D02*
X156210000Y-121285000D01*
X138430000Y-121285000D02*
X138430000Y-121285000D01*
X156210000Y-121285000D02*
X156210000Y-121285000D01*
%TO.N,Net-(X1001-PadA15)*%
X83168601Y-119382003D02*
X83168601Y-105165001D01*
X86731599Y-122945001D02*
X83168601Y-119382003D01*
X87225603Y-122945001D02*
X86731599Y-122945001D01*
X83168601Y-105165001D02*
X82143600Y-104140000D01*
X88215603Y-123935001D02*
X87225603Y-122945001D01*
X89827001Y-123935001D02*
X88215603Y-123935001D01*
X90360001Y-106435001D02*
X90360001Y-123402001D01*
X90360001Y-123402001D02*
X89827001Y-123935001D01*
X89335000Y-105410000D02*
X90360001Y-106435001D01*
%TO.N,Net-(X1001-PadA28)*%
X83168601Y-136134999D02*
X82143600Y-137160000D01*
X88549948Y-136134999D02*
X83168601Y-136134999D01*
X89335000Y-136920051D02*
X88549948Y-136134999D01*
X89335000Y-137910000D02*
X89335000Y-136920051D01*
%TO.N,Net-(X1001-PadC28)*%
X94335000Y-137910000D02*
X91440000Y-140805000D01*
X87223600Y-138149949D02*
X87223600Y-137160000D01*
X88008652Y-138935001D02*
X87223600Y-138149949D01*
X89570001Y-138935001D02*
X88008652Y-138935001D01*
X91440000Y-140805000D02*
X89570001Y-138935001D01*
%TO.N,Net-(X1001-PadA03)*%
X81118599Y-68087999D02*
X81118599Y-72634999D01*
X81651599Y-67554999D02*
X81118599Y-68087999D01*
X87997001Y-67554999D02*
X81651599Y-67554999D01*
X90360001Y-69917999D02*
X87997001Y-67554999D01*
X90360001Y-74384999D02*
X90360001Y-69917999D01*
X81118599Y-72634999D02*
X82143600Y-73660000D01*
X89335000Y-75410000D02*
X90360001Y-74384999D01*
%TO.N,Net-(J1004-Pad3)*%
X158750000Y-139215000D02*
X158750000Y-132715000D01*
%TO.N,Net-(J1004-Pad2)*%
X156845000Y-128905000D02*
X156845000Y-127000000D01*
X156845000Y-127000000D02*
X156845000Y-127000000D01*
X136525000Y-127000000D02*
X136525000Y-115570000D01*
X136525000Y-115570000D02*
X136525000Y-115570000D01*
X131445000Y-110491410D02*
X131763205Y-110173205D01*
X131445000Y-114935000D02*
X131445000Y-110491410D01*
%TD*%
M02*
