%TF.GenerationSoftware,KiCad,Pcbnew,(5.1.10)-1*%
%TF.CreationDate,2022-02-23T07:42:32+01:00*%
%TF.ProjectId,VDIP2,56444950-322e-46b6-9963-61645f706362,rev?*%
%TF.SameCoordinates,Original*%
%TF.FileFunction,Legend,Top*%
%TF.FilePolarity,Positive*%
%FSLAX46Y46*%
G04 Gerber Fmt 4.6, Leading zero omitted, Abs format (unit mm)*
G04 Created by KiCad (PCBNEW (5.1.10)-1) date 2022-02-23 07:42:32*
%MOMM*%
%LPD*%
G01*
G04 APERTURE LIST*
%ADD10C,0.120000*%
%ADD11C,0.250000*%
%ADD12C,0.100000*%
%ADD13C,0.200000*%
%ADD14C,0.150000*%
G04 APERTURE END LIST*
D10*
%TO.C,C1006*%
X151791000Y-143860000D02*
X153049000Y-143860000D01*
X151791000Y-145700000D02*
X153049000Y-145700000D01*
%TO.C,C1005*%
X99681000Y-142590000D02*
X100939000Y-142590000D01*
X99681000Y-144430000D02*
X100939000Y-144430000D01*
%TO.C,C1004*%
X144754000Y-117125000D02*
X143496000Y-117125000D01*
X144754000Y-115285000D02*
X143496000Y-115285000D01*
%TO.C,C1003*%
X163856000Y-98775000D02*
X165114000Y-98775000D01*
X163856000Y-100615000D02*
X165114000Y-100615000D01*
%TO.C,C1002*%
X99709000Y-71405000D02*
X98451000Y-71405000D01*
X99709000Y-69565000D02*
X98451000Y-69565000D01*
%TO.C,C1001*%
X102520000Y-102221000D02*
X102520000Y-103479000D01*
X100680000Y-102221000D02*
X100680000Y-103479000D01*
%TO.C,SW1001*%
X153250000Y-133715000D02*
X153250000Y-138215000D01*
X157250000Y-132465000D02*
X155750000Y-132465000D01*
X159750000Y-138215000D02*
X159750000Y-133715000D01*
X155750000Y-139465000D02*
X157250000Y-139465000D01*
%TO.C,J1004*%
X152975000Y-127575000D02*
X152975000Y-130235000D01*
X158115000Y-127575000D02*
X152975000Y-127575000D01*
X158115000Y-130235000D02*
X152975000Y-130235000D01*
X158115000Y-127575000D02*
X158115000Y-130235000D01*
X159385000Y-127575000D02*
X160715000Y-127575000D01*
X160715000Y-127575000D02*
X160715000Y-128905000D01*
%TO.C,U1003*%
X158175000Y-101235000D02*
X158175000Y-96175000D01*
X158175000Y-96175000D02*
X107255000Y-96175000D01*
X107255000Y-96175000D02*
X107255000Y-108295000D01*
X107255000Y-108295000D02*
X158175000Y-108295000D01*
X158175000Y-108295000D02*
X158175000Y-103235000D01*
X158175000Y-103235000D02*
G75*
G02*
X158175000Y-101235000I0J1000000D01*
G01*
%TO.C,J1003*%
X160715000Y-123130000D02*
X160715000Y-124460000D01*
X159385000Y-123130000D02*
X160715000Y-123130000D01*
X158115000Y-123130000D02*
X158115000Y-125790000D01*
X158115000Y-125790000D02*
X152975000Y-125790000D01*
X158115000Y-123130000D02*
X152975000Y-123130000D01*
X152975000Y-123130000D02*
X152975000Y-125790000D01*
%TO.C,IC1001*%
X128965000Y-140605000D02*
X128965000Y-139355000D01*
X128965000Y-139355000D02*
X103445000Y-139355000D01*
X103445000Y-139355000D02*
X103445000Y-143855000D01*
X103445000Y-143855000D02*
X128965000Y-143855000D01*
X128965000Y-143855000D02*
X128965000Y-142605000D01*
X128965000Y-142605000D02*
G75*
G02*
X128965000Y-140605000I0J1000000D01*
G01*
%TO.C,J1001*%
X167700000Y-120075000D02*
X167700000Y-117415000D01*
X154940000Y-120075000D02*
X167700000Y-120075000D01*
X154940000Y-117415000D02*
X167700000Y-117415000D01*
X154940000Y-120075000D02*
X154940000Y-117415000D01*
X153670000Y-120075000D02*
X152340000Y-120075000D01*
X152340000Y-120075000D02*
X152340000Y-118745000D01*
%TO.C,J1002*%
X168335000Y-65345000D02*
X163135000Y-65345000D01*
X168335000Y-88265000D02*
X168335000Y-65345000D01*
X163135000Y-90865000D02*
X163135000Y-65345000D01*
X168335000Y-88265000D02*
X165735000Y-88265000D01*
X165735000Y-88265000D02*
X165735000Y-90865000D01*
X165735000Y-90865000D02*
X163135000Y-90865000D01*
X168335000Y-89535000D02*
X168335000Y-90865000D01*
X168335000Y-90865000D02*
X167005000Y-90865000D01*
%TO.C,R1001*%
X134720000Y-118015000D02*
X131980000Y-118015000D01*
X131980000Y-118015000D02*
X131980000Y-124555000D01*
X131980000Y-124555000D02*
X134720000Y-124555000D01*
X134720000Y-124555000D02*
X134720000Y-118015000D01*
X133350000Y-117245000D02*
X133350000Y-118015000D01*
X133350000Y-125325000D02*
X133350000Y-124555000D01*
%TO.C,U1001*%
X129600000Y-119650000D02*
X129600000Y-118400000D01*
X129600000Y-118400000D02*
X111700000Y-118400000D01*
X111700000Y-118400000D02*
X111700000Y-122900000D01*
X111700000Y-122900000D02*
X129600000Y-122900000D01*
X129600000Y-122900000D02*
X129600000Y-121650000D01*
X129600000Y-121650000D02*
G75*
G02*
X129600000Y-119650000I0J1000000D01*
G01*
%TO.C,U1002*%
X160080000Y-79645000D02*
X160080000Y-74185000D01*
X160080000Y-74185000D02*
X109160000Y-74185000D01*
X109160000Y-74185000D02*
X109160000Y-87105000D01*
X109160000Y-87105000D02*
X160080000Y-87105000D01*
X160080000Y-87105000D02*
X160080000Y-81645000D01*
X160080000Y-81645000D02*
G75*
G02*
X160080000Y-79645000I0J1000000D01*
G01*
D11*
%TO.C,X1001*%
X76835000Y-103910000D02*
X76835000Y-106910000D01*
X78335000Y-105410000D02*
X75335000Y-105410000D01*
D12*
X81835000Y-144660000D02*
X81835000Y-148660000D01*
X83835000Y-146660000D02*
X79835000Y-146660000D01*
X83335000Y-146660000D02*
G75*
G03*
X83335000Y-146660000I-1500000J0D01*
G01*
X81835000Y-62160000D02*
X81835000Y-66160000D01*
X83835000Y-64160000D02*
X79835000Y-64160000D01*
X83335000Y-64160000D02*
G75*
G03*
X83335000Y-64160000I-1500000J0D01*
G01*
D13*
X72335000Y-66410000D02*
X79335000Y-66410000D01*
X72335000Y-144410000D02*
X72335000Y-66410000D01*
X79335000Y-144410000D02*
X72335000Y-144410000D01*
X87335000Y-149410000D02*
X79335000Y-149410000D01*
X87335000Y-61410000D02*
X87335000Y-149410000D01*
X79335000Y-61410000D02*
X87335000Y-61410000D01*
X79335000Y-61410000D02*
X79335000Y-149410000D01*
D12*
X87723600Y-144780000D02*
G75*
G03*
X87723600Y-144780000I-500000J0D01*
G01*
X87723600Y-142240000D02*
G75*
G03*
X87723600Y-142240000I-500000J0D01*
G01*
X87723600Y-66040000D02*
G75*
G03*
X87723600Y-66040000I-500000J0D01*
G01*
X82643600Y-144780000D02*
G75*
G03*
X82643600Y-144780000I-500000J0D01*
G01*
X82643600Y-142240000D02*
G75*
G03*
X82643600Y-142240000I-500000J0D01*
G01*
X82643600Y-66040000D02*
G75*
G03*
X82643600Y-66040000I-500000J0D01*
G01*
X81103600Y-149860000D02*
G75*
G03*
X81103600Y-149860000I-1500000J0D01*
G01*
X81508600Y-149860000D02*
X77698600Y-149860000D01*
X79603600Y-147955000D02*
X79603600Y-151765000D01*
X81495900Y-60972700D02*
X77685900Y-60972700D01*
X79590900Y-59067700D02*
X79590900Y-62877700D01*
X81090900Y-60972700D02*
G75*
G03*
X81090900Y-60972700I-1500000J0D01*
G01*
D13*
X81915000Y-58420000D02*
X76835000Y-58420000D01*
X76835000Y-63500000D02*
X69215000Y-63500000D01*
X76835000Y-58420000D02*
X76835000Y-63500000D01*
X76835000Y-152400000D02*
X81915000Y-152400000D01*
X76835000Y-147320000D02*
X76835000Y-152400000D01*
X69215000Y-147320000D02*
X76835000Y-147320000D01*
X69215000Y-63500000D02*
X69215000Y-147320000D01*
X81915000Y-152400000D02*
X81915000Y-58420000D01*
%TO.C,C1006*%
D14*
X150824761Y-143087142D02*
X150777142Y-143134761D01*
X150634285Y-143182380D01*
X150539047Y-143182380D01*
X150396190Y-143134761D01*
X150300952Y-143039523D01*
X150253333Y-142944285D01*
X150205714Y-142753809D01*
X150205714Y-142610952D01*
X150253333Y-142420476D01*
X150300952Y-142325238D01*
X150396190Y-142230000D01*
X150539047Y-142182380D01*
X150634285Y-142182380D01*
X150777142Y-142230000D01*
X150824761Y-142277619D01*
X151777142Y-143182380D02*
X151205714Y-143182380D01*
X151491428Y-143182380D02*
X151491428Y-142182380D01*
X151396190Y-142325238D01*
X151300952Y-142420476D01*
X151205714Y-142468095D01*
X152396190Y-142182380D02*
X152491428Y-142182380D01*
X152586666Y-142230000D01*
X152634285Y-142277619D01*
X152681904Y-142372857D01*
X152729523Y-142563333D01*
X152729523Y-142801428D01*
X152681904Y-142991904D01*
X152634285Y-143087142D01*
X152586666Y-143134761D01*
X152491428Y-143182380D01*
X152396190Y-143182380D01*
X152300952Y-143134761D01*
X152253333Y-143087142D01*
X152205714Y-142991904D01*
X152158095Y-142801428D01*
X152158095Y-142563333D01*
X152205714Y-142372857D01*
X152253333Y-142277619D01*
X152300952Y-142230000D01*
X152396190Y-142182380D01*
X153348571Y-142182380D02*
X153443809Y-142182380D01*
X153539047Y-142230000D01*
X153586666Y-142277619D01*
X153634285Y-142372857D01*
X153681904Y-142563333D01*
X153681904Y-142801428D01*
X153634285Y-142991904D01*
X153586666Y-143087142D01*
X153539047Y-143134761D01*
X153443809Y-143182380D01*
X153348571Y-143182380D01*
X153253333Y-143134761D01*
X153205714Y-143087142D01*
X153158095Y-142991904D01*
X153110476Y-142801428D01*
X153110476Y-142563333D01*
X153158095Y-142372857D01*
X153205714Y-142277619D01*
X153253333Y-142230000D01*
X153348571Y-142182380D01*
X154539047Y-142182380D02*
X154348571Y-142182380D01*
X154253333Y-142230000D01*
X154205714Y-142277619D01*
X154110476Y-142420476D01*
X154062857Y-142610952D01*
X154062857Y-142991904D01*
X154110476Y-143087142D01*
X154158095Y-143134761D01*
X154253333Y-143182380D01*
X154443809Y-143182380D01*
X154539047Y-143134761D01*
X154586666Y-143087142D01*
X154634285Y-142991904D01*
X154634285Y-142753809D01*
X154586666Y-142658571D01*
X154539047Y-142610952D01*
X154443809Y-142563333D01*
X154253333Y-142563333D01*
X154158095Y-142610952D01*
X154110476Y-142658571D01*
X154062857Y-142753809D01*
%TO.C,C1005*%
X98714761Y-141817142D02*
X98667142Y-141864761D01*
X98524285Y-141912380D01*
X98429047Y-141912380D01*
X98286190Y-141864761D01*
X98190952Y-141769523D01*
X98143333Y-141674285D01*
X98095714Y-141483809D01*
X98095714Y-141340952D01*
X98143333Y-141150476D01*
X98190952Y-141055238D01*
X98286190Y-140960000D01*
X98429047Y-140912380D01*
X98524285Y-140912380D01*
X98667142Y-140960000D01*
X98714761Y-141007619D01*
X99667142Y-141912380D02*
X99095714Y-141912380D01*
X99381428Y-141912380D02*
X99381428Y-140912380D01*
X99286190Y-141055238D01*
X99190952Y-141150476D01*
X99095714Y-141198095D01*
X100286190Y-140912380D02*
X100381428Y-140912380D01*
X100476666Y-140960000D01*
X100524285Y-141007619D01*
X100571904Y-141102857D01*
X100619523Y-141293333D01*
X100619523Y-141531428D01*
X100571904Y-141721904D01*
X100524285Y-141817142D01*
X100476666Y-141864761D01*
X100381428Y-141912380D01*
X100286190Y-141912380D01*
X100190952Y-141864761D01*
X100143333Y-141817142D01*
X100095714Y-141721904D01*
X100048095Y-141531428D01*
X100048095Y-141293333D01*
X100095714Y-141102857D01*
X100143333Y-141007619D01*
X100190952Y-140960000D01*
X100286190Y-140912380D01*
X101238571Y-140912380D02*
X101333809Y-140912380D01*
X101429047Y-140960000D01*
X101476666Y-141007619D01*
X101524285Y-141102857D01*
X101571904Y-141293333D01*
X101571904Y-141531428D01*
X101524285Y-141721904D01*
X101476666Y-141817142D01*
X101429047Y-141864761D01*
X101333809Y-141912380D01*
X101238571Y-141912380D01*
X101143333Y-141864761D01*
X101095714Y-141817142D01*
X101048095Y-141721904D01*
X101000476Y-141531428D01*
X101000476Y-141293333D01*
X101048095Y-141102857D01*
X101095714Y-141007619D01*
X101143333Y-140960000D01*
X101238571Y-140912380D01*
X102476666Y-140912380D02*
X102000476Y-140912380D01*
X101952857Y-141388571D01*
X102000476Y-141340952D01*
X102095714Y-141293333D01*
X102333809Y-141293333D01*
X102429047Y-141340952D01*
X102476666Y-141388571D01*
X102524285Y-141483809D01*
X102524285Y-141721904D01*
X102476666Y-141817142D01*
X102429047Y-141864761D01*
X102333809Y-141912380D01*
X102095714Y-141912380D01*
X102000476Y-141864761D01*
X101952857Y-141817142D01*
%TO.C,C1004*%
X142529761Y-118612142D02*
X142482142Y-118659761D01*
X142339285Y-118707380D01*
X142244047Y-118707380D01*
X142101190Y-118659761D01*
X142005952Y-118564523D01*
X141958333Y-118469285D01*
X141910714Y-118278809D01*
X141910714Y-118135952D01*
X141958333Y-117945476D01*
X142005952Y-117850238D01*
X142101190Y-117755000D01*
X142244047Y-117707380D01*
X142339285Y-117707380D01*
X142482142Y-117755000D01*
X142529761Y-117802619D01*
X143482142Y-118707380D02*
X142910714Y-118707380D01*
X143196428Y-118707380D02*
X143196428Y-117707380D01*
X143101190Y-117850238D01*
X143005952Y-117945476D01*
X142910714Y-117993095D01*
X144101190Y-117707380D02*
X144196428Y-117707380D01*
X144291666Y-117755000D01*
X144339285Y-117802619D01*
X144386904Y-117897857D01*
X144434523Y-118088333D01*
X144434523Y-118326428D01*
X144386904Y-118516904D01*
X144339285Y-118612142D01*
X144291666Y-118659761D01*
X144196428Y-118707380D01*
X144101190Y-118707380D01*
X144005952Y-118659761D01*
X143958333Y-118612142D01*
X143910714Y-118516904D01*
X143863095Y-118326428D01*
X143863095Y-118088333D01*
X143910714Y-117897857D01*
X143958333Y-117802619D01*
X144005952Y-117755000D01*
X144101190Y-117707380D01*
X145053571Y-117707380D02*
X145148809Y-117707380D01*
X145244047Y-117755000D01*
X145291666Y-117802619D01*
X145339285Y-117897857D01*
X145386904Y-118088333D01*
X145386904Y-118326428D01*
X145339285Y-118516904D01*
X145291666Y-118612142D01*
X145244047Y-118659761D01*
X145148809Y-118707380D01*
X145053571Y-118707380D01*
X144958333Y-118659761D01*
X144910714Y-118612142D01*
X144863095Y-118516904D01*
X144815476Y-118326428D01*
X144815476Y-118088333D01*
X144863095Y-117897857D01*
X144910714Y-117802619D01*
X144958333Y-117755000D01*
X145053571Y-117707380D01*
X146244047Y-118040714D02*
X146244047Y-118707380D01*
X146005952Y-117659761D02*
X145767857Y-118374047D01*
X146386904Y-118374047D01*
%TO.C,C1003*%
X162889761Y-98002142D02*
X162842142Y-98049761D01*
X162699285Y-98097380D01*
X162604047Y-98097380D01*
X162461190Y-98049761D01*
X162365952Y-97954523D01*
X162318333Y-97859285D01*
X162270714Y-97668809D01*
X162270714Y-97525952D01*
X162318333Y-97335476D01*
X162365952Y-97240238D01*
X162461190Y-97145000D01*
X162604047Y-97097380D01*
X162699285Y-97097380D01*
X162842142Y-97145000D01*
X162889761Y-97192619D01*
X163842142Y-98097380D02*
X163270714Y-98097380D01*
X163556428Y-98097380D02*
X163556428Y-97097380D01*
X163461190Y-97240238D01*
X163365952Y-97335476D01*
X163270714Y-97383095D01*
X164461190Y-97097380D02*
X164556428Y-97097380D01*
X164651666Y-97145000D01*
X164699285Y-97192619D01*
X164746904Y-97287857D01*
X164794523Y-97478333D01*
X164794523Y-97716428D01*
X164746904Y-97906904D01*
X164699285Y-98002142D01*
X164651666Y-98049761D01*
X164556428Y-98097380D01*
X164461190Y-98097380D01*
X164365952Y-98049761D01*
X164318333Y-98002142D01*
X164270714Y-97906904D01*
X164223095Y-97716428D01*
X164223095Y-97478333D01*
X164270714Y-97287857D01*
X164318333Y-97192619D01*
X164365952Y-97145000D01*
X164461190Y-97097380D01*
X165413571Y-97097380D02*
X165508809Y-97097380D01*
X165604047Y-97145000D01*
X165651666Y-97192619D01*
X165699285Y-97287857D01*
X165746904Y-97478333D01*
X165746904Y-97716428D01*
X165699285Y-97906904D01*
X165651666Y-98002142D01*
X165604047Y-98049761D01*
X165508809Y-98097380D01*
X165413571Y-98097380D01*
X165318333Y-98049761D01*
X165270714Y-98002142D01*
X165223095Y-97906904D01*
X165175476Y-97716428D01*
X165175476Y-97478333D01*
X165223095Y-97287857D01*
X165270714Y-97192619D01*
X165318333Y-97145000D01*
X165413571Y-97097380D01*
X166080238Y-97097380D02*
X166699285Y-97097380D01*
X166365952Y-97478333D01*
X166508809Y-97478333D01*
X166604047Y-97525952D01*
X166651666Y-97573571D01*
X166699285Y-97668809D01*
X166699285Y-97906904D01*
X166651666Y-98002142D01*
X166604047Y-98049761D01*
X166508809Y-98097380D01*
X166223095Y-98097380D01*
X166127857Y-98049761D01*
X166080238Y-98002142D01*
%TO.C,C1002*%
X97484761Y-72892142D02*
X97437142Y-72939761D01*
X97294285Y-72987380D01*
X97199047Y-72987380D01*
X97056190Y-72939761D01*
X96960952Y-72844523D01*
X96913333Y-72749285D01*
X96865714Y-72558809D01*
X96865714Y-72415952D01*
X96913333Y-72225476D01*
X96960952Y-72130238D01*
X97056190Y-72035000D01*
X97199047Y-71987380D01*
X97294285Y-71987380D01*
X97437142Y-72035000D01*
X97484761Y-72082619D01*
X98437142Y-72987380D02*
X97865714Y-72987380D01*
X98151428Y-72987380D02*
X98151428Y-71987380D01*
X98056190Y-72130238D01*
X97960952Y-72225476D01*
X97865714Y-72273095D01*
X99056190Y-71987380D02*
X99151428Y-71987380D01*
X99246666Y-72035000D01*
X99294285Y-72082619D01*
X99341904Y-72177857D01*
X99389523Y-72368333D01*
X99389523Y-72606428D01*
X99341904Y-72796904D01*
X99294285Y-72892142D01*
X99246666Y-72939761D01*
X99151428Y-72987380D01*
X99056190Y-72987380D01*
X98960952Y-72939761D01*
X98913333Y-72892142D01*
X98865714Y-72796904D01*
X98818095Y-72606428D01*
X98818095Y-72368333D01*
X98865714Y-72177857D01*
X98913333Y-72082619D01*
X98960952Y-72035000D01*
X99056190Y-71987380D01*
X100008571Y-71987380D02*
X100103809Y-71987380D01*
X100199047Y-72035000D01*
X100246666Y-72082619D01*
X100294285Y-72177857D01*
X100341904Y-72368333D01*
X100341904Y-72606428D01*
X100294285Y-72796904D01*
X100246666Y-72892142D01*
X100199047Y-72939761D01*
X100103809Y-72987380D01*
X100008571Y-72987380D01*
X99913333Y-72939761D01*
X99865714Y-72892142D01*
X99818095Y-72796904D01*
X99770476Y-72606428D01*
X99770476Y-72368333D01*
X99818095Y-72177857D01*
X99865714Y-72082619D01*
X99913333Y-72035000D01*
X100008571Y-71987380D01*
X100722857Y-72082619D02*
X100770476Y-72035000D01*
X100865714Y-71987380D01*
X101103809Y-71987380D01*
X101199047Y-72035000D01*
X101246666Y-72082619D01*
X101294285Y-72177857D01*
X101294285Y-72273095D01*
X101246666Y-72415952D01*
X100675238Y-72987380D01*
X101294285Y-72987380D01*
%TO.C,C1001*%
X104007142Y-104445238D02*
X104054761Y-104492857D01*
X104102380Y-104635714D01*
X104102380Y-104730952D01*
X104054761Y-104873809D01*
X103959523Y-104969047D01*
X103864285Y-105016666D01*
X103673809Y-105064285D01*
X103530952Y-105064285D01*
X103340476Y-105016666D01*
X103245238Y-104969047D01*
X103150000Y-104873809D01*
X103102380Y-104730952D01*
X103102380Y-104635714D01*
X103150000Y-104492857D01*
X103197619Y-104445238D01*
X104102380Y-103492857D02*
X104102380Y-104064285D01*
X104102380Y-103778571D02*
X103102380Y-103778571D01*
X103245238Y-103873809D01*
X103340476Y-103969047D01*
X103388095Y-104064285D01*
X103102380Y-102873809D02*
X103102380Y-102778571D01*
X103150000Y-102683333D01*
X103197619Y-102635714D01*
X103292857Y-102588095D01*
X103483333Y-102540476D01*
X103721428Y-102540476D01*
X103911904Y-102588095D01*
X104007142Y-102635714D01*
X104054761Y-102683333D01*
X104102380Y-102778571D01*
X104102380Y-102873809D01*
X104054761Y-102969047D01*
X104007142Y-103016666D01*
X103911904Y-103064285D01*
X103721428Y-103111904D01*
X103483333Y-103111904D01*
X103292857Y-103064285D01*
X103197619Y-103016666D01*
X103150000Y-102969047D01*
X103102380Y-102873809D01*
X103102380Y-101921428D02*
X103102380Y-101826190D01*
X103150000Y-101730952D01*
X103197619Y-101683333D01*
X103292857Y-101635714D01*
X103483333Y-101588095D01*
X103721428Y-101588095D01*
X103911904Y-101635714D01*
X104007142Y-101683333D01*
X104054761Y-101730952D01*
X104102380Y-101826190D01*
X104102380Y-101921428D01*
X104054761Y-102016666D01*
X104007142Y-102064285D01*
X103911904Y-102111904D01*
X103721428Y-102159523D01*
X103483333Y-102159523D01*
X103292857Y-102111904D01*
X103197619Y-102064285D01*
X103150000Y-102016666D01*
X103102380Y-101921428D01*
X104102380Y-100635714D02*
X104102380Y-101207142D01*
X104102380Y-100921428D02*
X103102380Y-100921428D01*
X103245238Y-101016666D01*
X103340476Y-101111904D01*
X103388095Y-101207142D01*
%TO.C,SW1001*%
X161154761Y-138726904D02*
X161202380Y-138584047D01*
X161202380Y-138345952D01*
X161154761Y-138250714D01*
X161107142Y-138203095D01*
X161011904Y-138155476D01*
X160916666Y-138155476D01*
X160821428Y-138203095D01*
X160773809Y-138250714D01*
X160726190Y-138345952D01*
X160678571Y-138536428D01*
X160630952Y-138631666D01*
X160583333Y-138679285D01*
X160488095Y-138726904D01*
X160392857Y-138726904D01*
X160297619Y-138679285D01*
X160250000Y-138631666D01*
X160202380Y-138536428D01*
X160202380Y-138298333D01*
X160250000Y-138155476D01*
X160202380Y-137822142D02*
X161202380Y-137584047D01*
X160488095Y-137393571D01*
X161202380Y-137203095D01*
X160202380Y-136965000D01*
X161202380Y-136060238D02*
X161202380Y-136631666D01*
X161202380Y-136345952D02*
X160202380Y-136345952D01*
X160345238Y-136441190D01*
X160440476Y-136536428D01*
X160488095Y-136631666D01*
X160202380Y-135441190D02*
X160202380Y-135345952D01*
X160250000Y-135250714D01*
X160297619Y-135203095D01*
X160392857Y-135155476D01*
X160583333Y-135107857D01*
X160821428Y-135107857D01*
X161011904Y-135155476D01*
X161107142Y-135203095D01*
X161154761Y-135250714D01*
X161202380Y-135345952D01*
X161202380Y-135441190D01*
X161154761Y-135536428D01*
X161107142Y-135584047D01*
X161011904Y-135631666D01*
X160821428Y-135679285D01*
X160583333Y-135679285D01*
X160392857Y-135631666D01*
X160297619Y-135584047D01*
X160250000Y-135536428D01*
X160202380Y-135441190D01*
X160202380Y-134488809D02*
X160202380Y-134393571D01*
X160250000Y-134298333D01*
X160297619Y-134250714D01*
X160392857Y-134203095D01*
X160583333Y-134155476D01*
X160821428Y-134155476D01*
X161011904Y-134203095D01*
X161107142Y-134250714D01*
X161154761Y-134298333D01*
X161202380Y-134393571D01*
X161202380Y-134488809D01*
X161154761Y-134584047D01*
X161107142Y-134631666D01*
X161011904Y-134679285D01*
X160821428Y-134726904D01*
X160583333Y-134726904D01*
X160392857Y-134679285D01*
X160297619Y-134631666D01*
X160250000Y-134584047D01*
X160202380Y-134488809D01*
X161202380Y-133203095D02*
X161202380Y-133774523D01*
X161202380Y-133488809D02*
X160202380Y-133488809D01*
X160345238Y-133584047D01*
X160440476Y-133679285D01*
X160488095Y-133774523D01*
%TO.C,J1004*%
X161167380Y-130666904D02*
X161881666Y-130666904D01*
X162024523Y-130714523D01*
X162119761Y-130809761D01*
X162167380Y-130952619D01*
X162167380Y-131047857D01*
X162167380Y-129666904D02*
X162167380Y-130238333D01*
X162167380Y-129952619D02*
X161167380Y-129952619D01*
X161310238Y-130047857D01*
X161405476Y-130143095D01*
X161453095Y-130238333D01*
X161167380Y-129047857D02*
X161167380Y-128952619D01*
X161215000Y-128857380D01*
X161262619Y-128809761D01*
X161357857Y-128762142D01*
X161548333Y-128714523D01*
X161786428Y-128714523D01*
X161976904Y-128762142D01*
X162072142Y-128809761D01*
X162119761Y-128857380D01*
X162167380Y-128952619D01*
X162167380Y-129047857D01*
X162119761Y-129143095D01*
X162072142Y-129190714D01*
X161976904Y-129238333D01*
X161786428Y-129285952D01*
X161548333Y-129285952D01*
X161357857Y-129238333D01*
X161262619Y-129190714D01*
X161215000Y-129143095D01*
X161167380Y-129047857D01*
X161167380Y-128095476D02*
X161167380Y-128000238D01*
X161215000Y-127905000D01*
X161262619Y-127857380D01*
X161357857Y-127809761D01*
X161548333Y-127762142D01*
X161786428Y-127762142D01*
X161976904Y-127809761D01*
X162072142Y-127857380D01*
X162119761Y-127905000D01*
X162167380Y-128000238D01*
X162167380Y-128095476D01*
X162119761Y-128190714D01*
X162072142Y-128238333D01*
X161976904Y-128285952D01*
X161786428Y-128333571D01*
X161548333Y-128333571D01*
X161357857Y-128285952D01*
X161262619Y-128238333D01*
X161215000Y-128190714D01*
X161167380Y-128095476D01*
X161500714Y-126905000D02*
X162167380Y-126905000D01*
X161119761Y-127143095D02*
X161834047Y-127381190D01*
X161834047Y-126762142D01*
%TO.C,U1003*%
X158627380Y-104425476D02*
X159436904Y-104425476D01*
X159532142Y-104377857D01*
X159579761Y-104330238D01*
X159627380Y-104235000D01*
X159627380Y-104044523D01*
X159579761Y-103949285D01*
X159532142Y-103901666D01*
X159436904Y-103854047D01*
X158627380Y-103854047D01*
X159627380Y-102854047D02*
X159627380Y-103425476D01*
X159627380Y-103139761D02*
X158627380Y-103139761D01*
X158770238Y-103235000D01*
X158865476Y-103330238D01*
X158913095Y-103425476D01*
X158627380Y-102235000D02*
X158627380Y-102139761D01*
X158675000Y-102044523D01*
X158722619Y-101996904D01*
X158817857Y-101949285D01*
X159008333Y-101901666D01*
X159246428Y-101901666D01*
X159436904Y-101949285D01*
X159532142Y-101996904D01*
X159579761Y-102044523D01*
X159627380Y-102139761D01*
X159627380Y-102235000D01*
X159579761Y-102330238D01*
X159532142Y-102377857D01*
X159436904Y-102425476D01*
X159246428Y-102473095D01*
X159008333Y-102473095D01*
X158817857Y-102425476D01*
X158722619Y-102377857D01*
X158675000Y-102330238D01*
X158627380Y-102235000D01*
X158627380Y-101282619D02*
X158627380Y-101187380D01*
X158675000Y-101092142D01*
X158722619Y-101044523D01*
X158817857Y-100996904D01*
X159008333Y-100949285D01*
X159246428Y-100949285D01*
X159436904Y-100996904D01*
X159532142Y-101044523D01*
X159579761Y-101092142D01*
X159627380Y-101187380D01*
X159627380Y-101282619D01*
X159579761Y-101377857D01*
X159532142Y-101425476D01*
X159436904Y-101473095D01*
X159246428Y-101520714D01*
X159008333Y-101520714D01*
X158817857Y-101473095D01*
X158722619Y-101425476D01*
X158675000Y-101377857D01*
X158627380Y-101282619D01*
X158627380Y-100615952D02*
X158627380Y-99996904D01*
X159008333Y-100330238D01*
X159008333Y-100187380D01*
X159055952Y-100092142D01*
X159103571Y-100044523D01*
X159198809Y-99996904D01*
X159436904Y-99996904D01*
X159532142Y-100044523D01*
X159579761Y-100092142D01*
X159627380Y-100187380D01*
X159627380Y-100473095D01*
X159579761Y-100568333D01*
X159532142Y-100615952D01*
%TO.C,J1003*%
X161167380Y-126221904D02*
X161881666Y-126221904D01*
X162024523Y-126269523D01*
X162119761Y-126364761D01*
X162167380Y-126507619D01*
X162167380Y-126602857D01*
X162167380Y-125221904D02*
X162167380Y-125793333D01*
X162167380Y-125507619D02*
X161167380Y-125507619D01*
X161310238Y-125602857D01*
X161405476Y-125698095D01*
X161453095Y-125793333D01*
X161167380Y-124602857D02*
X161167380Y-124507619D01*
X161215000Y-124412380D01*
X161262619Y-124364761D01*
X161357857Y-124317142D01*
X161548333Y-124269523D01*
X161786428Y-124269523D01*
X161976904Y-124317142D01*
X162072142Y-124364761D01*
X162119761Y-124412380D01*
X162167380Y-124507619D01*
X162167380Y-124602857D01*
X162119761Y-124698095D01*
X162072142Y-124745714D01*
X161976904Y-124793333D01*
X161786428Y-124840952D01*
X161548333Y-124840952D01*
X161357857Y-124793333D01*
X161262619Y-124745714D01*
X161215000Y-124698095D01*
X161167380Y-124602857D01*
X161167380Y-123650476D02*
X161167380Y-123555238D01*
X161215000Y-123460000D01*
X161262619Y-123412380D01*
X161357857Y-123364761D01*
X161548333Y-123317142D01*
X161786428Y-123317142D01*
X161976904Y-123364761D01*
X162072142Y-123412380D01*
X162119761Y-123460000D01*
X162167380Y-123555238D01*
X162167380Y-123650476D01*
X162119761Y-123745714D01*
X162072142Y-123793333D01*
X161976904Y-123840952D01*
X161786428Y-123888571D01*
X161548333Y-123888571D01*
X161357857Y-123840952D01*
X161262619Y-123793333D01*
X161215000Y-123745714D01*
X161167380Y-123650476D01*
X161167380Y-122983809D02*
X161167380Y-122364761D01*
X161548333Y-122698095D01*
X161548333Y-122555238D01*
X161595952Y-122460000D01*
X161643571Y-122412380D01*
X161738809Y-122364761D01*
X161976904Y-122364761D01*
X162072142Y-122412380D01*
X162119761Y-122460000D01*
X162167380Y-122555238D01*
X162167380Y-122840952D01*
X162119761Y-122936190D01*
X162072142Y-122983809D01*
%TO.C,IC1001*%
X130417380Y-144009761D02*
X129417380Y-144009761D01*
X130322142Y-142962142D02*
X130369761Y-143009761D01*
X130417380Y-143152619D01*
X130417380Y-143247857D01*
X130369761Y-143390714D01*
X130274523Y-143485952D01*
X130179285Y-143533571D01*
X129988809Y-143581190D01*
X129845952Y-143581190D01*
X129655476Y-143533571D01*
X129560238Y-143485952D01*
X129465000Y-143390714D01*
X129417380Y-143247857D01*
X129417380Y-143152619D01*
X129465000Y-143009761D01*
X129512619Y-142962142D01*
X130417380Y-142009761D02*
X130417380Y-142581190D01*
X130417380Y-142295476D02*
X129417380Y-142295476D01*
X129560238Y-142390714D01*
X129655476Y-142485952D01*
X129703095Y-142581190D01*
X129417380Y-141390714D02*
X129417380Y-141295476D01*
X129465000Y-141200238D01*
X129512619Y-141152619D01*
X129607857Y-141105000D01*
X129798333Y-141057380D01*
X130036428Y-141057380D01*
X130226904Y-141105000D01*
X130322142Y-141152619D01*
X130369761Y-141200238D01*
X130417380Y-141295476D01*
X130417380Y-141390714D01*
X130369761Y-141485952D01*
X130322142Y-141533571D01*
X130226904Y-141581190D01*
X130036428Y-141628809D01*
X129798333Y-141628809D01*
X129607857Y-141581190D01*
X129512619Y-141533571D01*
X129465000Y-141485952D01*
X129417380Y-141390714D01*
X129417380Y-140438333D02*
X129417380Y-140343095D01*
X129465000Y-140247857D01*
X129512619Y-140200238D01*
X129607857Y-140152619D01*
X129798333Y-140105000D01*
X130036428Y-140105000D01*
X130226904Y-140152619D01*
X130322142Y-140200238D01*
X130369761Y-140247857D01*
X130417380Y-140343095D01*
X130417380Y-140438333D01*
X130369761Y-140533571D01*
X130322142Y-140581190D01*
X130226904Y-140628809D01*
X130036428Y-140676428D01*
X129798333Y-140676428D01*
X129607857Y-140628809D01*
X129512619Y-140581190D01*
X129465000Y-140533571D01*
X129417380Y-140438333D01*
X130417380Y-139152619D02*
X130417380Y-139724047D01*
X130417380Y-139438333D02*
X129417380Y-139438333D01*
X129560238Y-139533571D01*
X129655476Y-139628809D01*
X129703095Y-139724047D01*
%TO.C,J1001*%
X150792380Y-120506904D02*
X151506666Y-120506904D01*
X151649523Y-120554523D01*
X151744761Y-120649761D01*
X151792380Y-120792619D01*
X151792380Y-120887857D01*
X151792380Y-119506904D02*
X151792380Y-120078333D01*
X151792380Y-119792619D02*
X150792380Y-119792619D01*
X150935238Y-119887857D01*
X151030476Y-119983095D01*
X151078095Y-120078333D01*
X150792380Y-118887857D02*
X150792380Y-118792619D01*
X150840000Y-118697380D01*
X150887619Y-118649761D01*
X150982857Y-118602142D01*
X151173333Y-118554523D01*
X151411428Y-118554523D01*
X151601904Y-118602142D01*
X151697142Y-118649761D01*
X151744761Y-118697380D01*
X151792380Y-118792619D01*
X151792380Y-118887857D01*
X151744761Y-118983095D01*
X151697142Y-119030714D01*
X151601904Y-119078333D01*
X151411428Y-119125952D01*
X151173333Y-119125952D01*
X150982857Y-119078333D01*
X150887619Y-119030714D01*
X150840000Y-118983095D01*
X150792380Y-118887857D01*
X150792380Y-117935476D02*
X150792380Y-117840238D01*
X150840000Y-117745000D01*
X150887619Y-117697380D01*
X150982857Y-117649761D01*
X151173333Y-117602142D01*
X151411428Y-117602142D01*
X151601904Y-117649761D01*
X151697142Y-117697380D01*
X151744761Y-117745000D01*
X151792380Y-117840238D01*
X151792380Y-117935476D01*
X151744761Y-118030714D01*
X151697142Y-118078333D01*
X151601904Y-118125952D01*
X151411428Y-118173571D01*
X151173333Y-118173571D01*
X150982857Y-118125952D01*
X150887619Y-118078333D01*
X150840000Y-118030714D01*
X150792380Y-117935476D01*
X151792380Y-116649761D02*
X151792380Y-117221190D01*
X151792380Y-116935476D02*
X150792380Y-116935476D01*
X150935238Y-117030714D01*
X151030476Y-117125952D01*
X151078095Y-117221190D01*
%TO.C,J1002*%
X163973095Y-91317380D02*
X163973095Y-92031666D01*
X163925476Y-92174523D01*
X163830238Y-92269761D01*
X163687380Y-92317380D01*
X163592142Y-92317380D01*
X164973095Y-92317380D02*
X164401666Y-92317380D01*
X164687380Y-92317380D02*
X164687380Y-91317380D01*
X164592142Y-91460238D01*
X164496904Y-91555476D01*
X164401666Y-91603095D01*
X165592142Y-91317380D02*
X165687380Y-91317380D01*
X165782619Y-91365000D01*
X165830238Y-91412619D01*
X165877857Y-91507857D01*
X165925476Y-91698333D01*
X165925476Y-91936428D01*
X165877857Y-92126904D01*
X165830238Y-92222142D01*
X165782619Y-92269761D01*
X165687380Y-92317380D01*
X165592142Y-92317380D01*
X165496904Y-92269761D01*
X165449285Y-92222142D01*
X165401666Y-92126904D01*
X165354047Y-91936428D01*
X165354047Y-91698333D01*
X165401666Y-91507857D01*
X165449285Y-91412619D01*
X165496904Y-91365000D01*
X165592142Y-91317380D01*
X166544523Y-91317380D02*
X166639761Y-91317380D01*
X166735000Y-91365000D01*
X166782619Y-91412619D01*
X166830238Y-91507857D01*
X166877857Y-91698333D01*
X166877857Y-91936428D01*
X166830238Y-92126904D01*
X166782619Y-92222142D01*
X166735000Y-92269761D01*
X166639761Y-92317380D01*
X166544523Y-92317380D01*
X166449285Y-92269761D01*
X166401666Y-92222142D01*
X166354047Y-92126904D01*
X166306428Y-91936428D01*
X166306428Y-91698333D01*
X166354047Y-91507857D01*
X166401666Y-91412619D01*
X166449285Y-91365000D01*
X166544523Y-91317380D01*
X167258809Y-91412619D02*
X167306428Y-91365000D01*
X167401666Y-91317380D01*
X167639761Y-91317380D01*
X167735000Y-91365000D01*
X167782619Y-91412619D01*
X167830238Y-91507857D01*
X167830238Y-91603095D01*
X167782619Y-91745952D01*
X167211190Y-92317380D01*
X167830238Y-92317380D01*
%TO.C,R1001*%
X136172380Y-122880238D02*
X135696190Y-123213571D01*
X136172380Y-123451666D02*
X135172380Y-123451666D01*
X135172380Y-123070714D01*
X135220000Y-122975476D01*
X135267619Y-122927857D01*
X135362857Y-122880238D01*
X135505714Y-122880238D01*
X135600952Y-122927857D01*
X135648571Y-122975476D01*
X135696190Y-123070714D01*
X135696190Y-123451666D01*
X136172380Y-121927857D02*
X136172380Y-122499285D01*
X136172380Y-122213571D02*
X135172380Y-122213571D01*
X135315238Y-122308809D01*
X135410476Y-122404047D01*
X135458095Y-122499285D01*
X135172380Y-121308809D02*
X135172380Y-121213571D01*
X135220000Y-121118333D01*
X135267619Y-121070714D01*
X135362857Y-121023095D01*
X135553333Y-120975476D01*
X135791428Y-120975476D01*
X135981904Y-121023095D01*
X136077142Y-121070714D01*
X136124761Y-121118333D01*
X136172380Y-121213571D01*
X136172380Y-121308809D01*
X136124761Y-121404047D01*
X136077142Y-121451666D01*
X135981904Y-121499285D01*
X135791428Y-121546904D01*
X135553333Y-121546904D01*
X135362857Y-121499285D01*
X135267619Y-121451666D01*
X135220000Y-121404047D01*
X135172380Y-121308809D01*
X135172380Y-120356428D02*
X135172380Y-120261190D01*
X135220000Y-120165952D01*
X135267619Y-120118333D01*
X135362857Y-120070714D01*
X135553333Y-120023095D01*
X135791428Y-120023095D01*
X135981904Y-120070714D01*
X136077142Y-120118333D01*
X136124761Y-120165952D01*
X136172380Y-120261190D01*
X136172380Y-120356428D01*
X136124761Y-120451666D01*
X136077142Y-120499285D01*
X135981904Y-120546904D01*
X135791428Y-120594523D01*
X135553333Y-120594523D01*
X135362857Y-120546904D01*
X135267619Y-120499285D01*
X135220000Y-120451666D01*
X135172380Y-120356428D01*
X136172380Y-119070714D02*
X136172380Y-119642142D01*
X136172380Y-119356428D02*
X135172380Y-119356428D01*
X135315238Y-119451666D01*
X135410476Y-119546904D01*
X135458095Y-119642142D01*
%TO.C,U1001*%
X130052380Y-122840476D02*
X130861904Y-122840476D01*
X130957142Y-122792857D01*
X131004761Y-122745238D01*
X131052380Y-122650000D01*
X131052380Y-122459523D01*
X131004761Y-122364285D01*
X130957142Y-122316666D01*
X130861904Y-122269047D01*
X130052380Y-122269047D01*
X131052380Y-121269047D02*
X131052380Y-121840476D01*
X131052380Y-121554761D02*
X130052380Y-121554761D01*
X130195238Y-121650000D01*
X130290476Y-121745238D01*
X130338095Y-121840476D01*
X130052380Y-120650000D02*
X130052380Y-120554761D01*
X130100000Y-120459523D01*
X130147619Y-120411904D01*
X130242857Y-120364285D01*
X130433333Y-120316666D01*
X130671428Y-120316666D01*
X130861904Y-120364285D01*
X130957142Y-120411904D01*
X131004761Y-120459523D01*
X131052380Y-120554761D01*
X131052380Y-120650000D01*
X131004761Y-120745238D01*
X130957142Y-120792857D01*
X130861904Y-120840476D01*
X130671428Y-120888095D01*
X130433333Y-120888095D01*
X130242857Y-120840476D01*
X130147619Y-120792857D01*
X130100000Y-120745238D01*
X130052380Y-120650000D01*
X130052380Y-119697619D02*
X130052380Y-119602380D01*
X130100000Y-119507142D01*
X130147619Y-119459523D01*
X130242857Y-119411904D01*
X130433333Y-119364285D01*
X130671428Y-119364285D01*
X130861904Y-119411904D01*
X130957142Y-119459523D01*
X131004761Y-119507142D01*
X131052380Y-119602380D01*
X131052380Y-119697619D01*
X131004761Y-119792857D01*
X130957142Y-119840476D01*
X130861904Y-119888095D01*
X130671428Y-119935714D01*
X130433333Y-119935714D01*
X130242857Y-119888095D01*
X130147619Y-119840476D01*
X130100000Y-119792857D01*
X130052380Y-119697619D01*
X131052380Y-118411904D02*
X131052380Y-118983333D01*
X131052380Y-118697619D02*
X130052380Y-118697619D01*
X130195238Y-118792857D01*
X130290476Y-118888095D01*
X130338095Y-118983333D01*
%TO.C,U1002*%
X160532380Y-82835476D02*
X161341904Y-82835476D01*
X161437142Y-82787857D01*
X161484761Y-82740238D01*
X161532380Y-82645000D01*
X161532380Y-82454523D01*
X161484761Y-82359285D01*
X161437142Y-82311666D01*
X161341904Y-82264047D01*
X160532380Y-82264047D01*
X161532380Y-81264047D02*
X161532380Y-81835476D01*
X161532380Y-81549761D02*
X160532380Y-81549761D01*
X160675238Y-81645000D01*
X160770476Y-81740238D01*
X160818095Y-81835476D01*
X160532380Y-80645000D02*
X160532380Y-80549761D01*
X160580000Y-80454523D01*
X160627619Y-80406904D01*
X160722857Y-80359285D01*
X160913333Y-80311666D01*
X161151428Y-80311666D01*
X161341904Y-80359285D01*
X161437142Y-80406904D01*
X161484761Y-80454523D01*
X161532380Y-80549761D01*
X161532380Y-80645000D01*
X161484761Y-80740238D01*
X161437142Y-80787857D01*
X161341904Y-80835476D01*
X161151428Y-80883095D01*
X160913333Y-80883095D01*
X160722857Y-80835476D01*
X160627619Y-80787857D01*
X160580000Y-80740238D01*
X160532380Y-80645000D01*
X160532380Y-79692619D02*
X160532380Y-79597380D01*
X160580000Y-79502142D01*
X160627619Y-79454523D01*
X160722857Y-79406904D01*
X160913333Y-79359285D01*
X161151428Y-79359285D01*
X161341904Y-79406904D01*
X161437142Y-79454523D01*
X161484761Y-79502142D01*
X161532380Y-79597380D01*
X161532380Y-79692619D01*
X161484761Y-79787857D01*
X161437142Y-79835476D01*
X161341904Y-79883095D01*
X161151428Y-79930714D01*
X160913333Y-79930714D01*
X160722857Y-79883095D01*
X160627619Y-79835476D01*
X160580000Y-79787857D01*
X160532380Y-79692619D01*
X160627619Y-78978333D02*
X160580000Y-78930714D01*
X160532380Y-78835476D01*
X160532380Y-78597380D01*
X160580000Y-78502142D01*
X160627619Y-78454523D01*
X160722857Y-78406904D01*
X160818095Y-78406904D01*
X160960952Y-78454523D01*
X161532380Y-79025952D01*
X161532380Y-78406904D01*
%TO.C,X1001*%
X77287380Y-111526547D02*
X78287380Y-110859880D01*
X77287380Y-110859880D02*
X78287380Y-111526547D01*
X78287380Y-109955119D02*
X78287380Y-110526547D01*
X78287380Y-110240833D02*
X77287380Y-110240833D01*
X77430238Y-110336071D01*
X77525476Y-110431309D01*
X77573095Y-110526547D01*
X77287380Y-109336071D02*
X77287380Y-109240833D01*
X77335000Y-109145595D01*
X77382619Y-109097976D01*
X77477857Y-109050357D01*
X77668333Y-109002738D01*
X77906428Y-109002738D01*
X78096904Y-109050357D01*
X78192142Y-109097976D01*
X78239761Y-109145595D01*
X78287380Y-109240833D01*
X78287380Y-109336071D01*
X78239761Y-109431309D01*
X78192142Y-109478928D01*
X78096904Y-109526547D01*
X77906428Y-109574166D01*
X77668333Y-109574166D01*
X77477857Y-109526547D01*
X77382619Y-109478928D01*
X77335000Y-109431309D01*
X77287380Y-109336071D01*
X77287380Y-108383690D02*
X77287380Y-108288452D01*
X77335000Y-108193214D01*
X77382619Y-108145595D01*
X77477857Y-108097976D01*
X77668333Y-108050357D01*
X77906428Y-108050357D01*
X78096904Y-108097976D01*
X78192142Y-108145595D01*
X78239761Y-108193214D01*
X78287380Y-108288452D01*
X78287380Y-108383690D01*
X78239761Y-108478928D01*
X78192142Y-108526547D01*
X78096904Y-108574166D01*
X77906428Y-108621785D01*
X77668333Y-108621785D01*
X77477857Y-108574166D01*
X77382619Y-108526547D01*
X77335000Y-108478928D01*
X77287380Y-108383690D01*
X78287380Y-107097976D02*
X78287380Y-107669404D01*
X78287380Y-107383690D02*
X77287380Y-107383690D01*
X77430238Y-107478928D01*
X77525476Y-107574166D01*
X77573095Y-107669404D01*
%TD*%
M02*
