M48
; DRILL file {KiCad (5.1.10)-1} date 02/23/22 07:42:29
; FORMAT={-:-/ absolute / inch / decimal}
; #@! TF.CreationDate,2022-02-23T07:42:29+01:00
; #@! TF.GenerationSoftware,Kicad,Pcbnew,(5.1.10)-1
; #@! TF.FileFunction,Plated,1,2,PTH
FMAT,2
INCH
T1C0.0157
T2C0.0315
T3C0.0394
T4C0.0433
T5C0.0630
%
G90
G05
T1
X3.725Y-5.85
X3.8441Y-3.5559
X3.8441Y-4.7809
X3.85Y-5.275
X3.85Y-5.725
X3.875Y-4.5
X3.875Y-5.15
X3.9Y-4.45
X3.911Y-3.461
X3.925Y-3.35
X3.925Y-4.4
X3.925Y-5.175
X3.95Y-4.3
X3.95Y-5.2
X3.975Y-5.525
X3.9984Y-4.2484
X4.0Y-3.025
X4.025Y-5.55
X4.05Y-4.25
X4.05Y-4.35
X4.075Y-2.725
X4.075Y-4.675
X4.0922Y-5.2922
X4.1Y-4.6
X4.125Y-2.775
X4.125Y-4.55
X4.125Y-4.95
X4.125Y-5.25
X4.125Y-5.35
X4.125Y-5.6
X4.15Y-5.1
X4.175Y-3.875
X4.175Y-5.575
X4.2Y-2.675
X4.2Y-5.05
X4.225Y-3.375
X4.225Y-3.6
X4.25Y-4.6
X4.25Y-4.725
X4.25Y-5.35
X4.275Y-2.975
X4.325Y-5.55
X4.35Y-3.4
X4.375Y-4.1
X4.375Y-4.6
X4.375Y-4.8
X4.4Y-3.0
X4.425Y-4.25
X4.425Y-5.525
X4.45Y-3.3
X4.45Y-4.775
X4.475Y-4.2
X4.5Y-3.4
X4.5Y-5.0
X4.525Y-3.875
X4.525Y-5.3
X4.55Y-4.75
X4.575Y-3.6
X4.575Y-4.05
X4.625Y-5.2
X4.65Y-3.025
X4.65Y-3.3
X4.65Y-3.575
X4.65Y-4.775
X4.6537Y-2.5787
X4.675Y-4.15
X4.675Y-4.425
X4.7Y-4.725
X4.725Y-5.175
X4.725Y-5.525
X4.75Y-3.55
X4.7573Y-2.7073
X4.775Y-3.85
X4.775Y-4.25
X4.775Y-4.5
X4.825Y-4.45
X4.825Y-5.15
X4.825Y-5.55
X4.85Y-3.3
X4.85Y-3.625
X4.85Y-4.725
X4.85Y-5.0
X4.875Y-4.0
X4.8943Y-3.5943
X4.925Y-3.55
X4.925Y-4.2
X4.925Y-4.425
X4.925Y-5.125
X4.925Y-5.575
X4.95Y-4.75
X4.975Y-3.85
X4.975Y-4.1
X5.0193Y-4.0443
X5.025Y-5.25
X5.025Y-5.85
X5.05Y-3.35
X5.075Y-3.575
X5.075Y-3.85
X5.075Y-4.2
X5.1Y-3.1
X5.1Y-3.4
X5.125Y-4.5
X5.1307Y-4.1443
X5.15Y-3.35
X5.15Y-4.675
X5.15Y-4.9
X5.175Y-4.15
X5.175Y-4.525
X5.2Y-3.575
X5.225Y-4.0
X5.25Y-2.625
X5.25Y-3.325
X5.25Y-4.875
X5.25Y-5.225
X5.275Y-4.5
X5.325Y-4.075
X5.35Y-3.0
X5.35Y-3.1
X5.375Y-3.65
X5.375Y-3.875
X5.375Y-4.55
X5.375Y-5.0
X5.4307Y-4.1943
X5.45Y-2.975
X5.45Y-4.5
X5.45Y-4.775
X5.5Y-3.025
X5.525Y-4.15
X5.55Y-2.675
X5.55Y-2.95
X5.612Y-2.813
X5.625Y-4.15
X5.625Y-4.9
X5.725Y-4.1
X5.725Y-4.675
X5.75Y-2.725
X5.75Y-3.3
X5.85Y-2.775
X5.85Y-5.05
X5.9157Y-5.5343
X5.9335Y-4.5415
X5.975Y-3.875
X5.975Y-5.5
X6.0Y-4.9
X6.0Y-5.225
X6.025Y-4.1
X6.0577Y-3.0673
X6.0689Y-3.2061
X6.075Y-3.875
X6.075Y-4.975
X6.125Y-2.725
X6.125Y-4.1
X6.125Y-4.525
X6.15Y-3.125
X6.15Y-3.175
X6.15Y-4.775
X6.175Y-4.45
X6.175Y-5.0
X6.225Y-4.1
X6.25Y-3.25
X6.25Y-3.3
X6.3Y-4.2
X6.325Y-3.475
X6.34Y-3.61
X6.35Y-4.525
X6.45Y-4.575
X6.55Y-4.975
X6.65Y-3.525
X6.65Y-4.45
X6.65Y-4.525
X6.65Y-4.575
X6.675Y-2.675
X6.675Y-2.925
X6.675Y-3.125
X6.7Y-3.325
T2
X3.5171Y-2.772
X3.5171Y-2.8705
X3.5171Y-2.9689
X3.5171Y-3.0673
X3.5171Y-3.1657
X3.5171Y-3.2642
X3.5171Y-3.3626
X3.5171Y-3.461
X3.5171Y-3.5594
X3.5171Y-3.6579
X3.5171Y-3.7563
X3.5171Y-3.8547
X3.5171Y-3.9531
X3.5171Y-4.0516
X3.5171Y-4.15
X3.5171Y-4.2484
X3.5171Y-4.3469
X3.5171Y-4.4453
X3.5171Y-4.5437
X3.5171Y-4.6421
X3.5171Y-4.7406
X3.5171Y-4.839
X3.5171Y-4.9374
X3.5171Y-5.0358
X3.5171Y-5.1343
X3.5171Y-5.2327
X3.5171Y-5.3311
X3.5171Y-5.4295
X3.5171Y-5.528
X3.714Y-2.772
X3.714Y-2.8705
X3.714Y-2.9689
X3.714Y-3.0673
X3.714Y-3.1657
X3.714Y-3.2642
X3.714Y-3.3626
X3.714Y-3.461
X3.714Y-3.5594
X3.714Y-3.6579
X3.714Y-3.7563
X3.714Y-3.8547
X3.714Y-3.9531
X3.714Y-4.0516
X3.714Y-4.15
X3.714Y-4.2484
X3.714Y-4.3469
X3.714Y-4.4453
X3.714Y-4.5437
X3.714Y-4.6421
X3.714Y-4.7406
X3.714Y-4.839
X3.714Y-4.9374
X3.714Y-5.0358
X3.714Y-5.1343
X3.714Y-5.2327
X3.714Y-5.3311
X3.714Y-5.4295
X3.714Y-5.528
X3.8516Y-2.775
X3.9Y-5.65
X3.95Y-2.775
X3.9984Y-5.65
X4.0Y-4.0
X4.0Y-4.0984
X4.125Y-5.425
X4.125Y-5.725
X4.225Y-5.425
X4.225Y-5.725
X4.275Y-3.725
X4.275Y-4.325
X4.325Y-5.425
X4.325Y-5.725
X4.35Y-2.875
X4.35Y-3.475
X4.375Y-3.725
X4.375Y-4.325
X4.425Y-5.425
X4.425Y-5.725
X4.45Y-2.875
X4.45Y-3.475
X4.45Y-4.6
X4.45Y-4.9
X4.475Y-3.725
X4.475Y-4.325
X4.525Y-5.425
X4.525Y-5.725
X4.55Y-2.875
X4.55Y-3.475
X4.55Y-4.6
X4.55Y-4.9
X4.575Y-3.725
X4.575Y-4.325
X4.625Y-5.425
X4.625Y-5.725
X4.65Y-2.875
X4.65Y-3.475
X4.65Y-4.6
X4.65Y-4.9
X4.675Y-3.725
X4.675Y-4.325
X4.725Y-5.425
X4.725Y-5.725
X4.75Y-2.875
X4.75Y-3.475
X4.75Y-4.6
X4.75Y-4.9
X4.775Y-3.725
X4.775Y-4.325
X4.825Y-5.425
X4.825Y-5.725
X4.85Y-2.875
X4.85Y-3.475
X4.85Y-4.6
X4.85Y-4.9
X4.875Y-3.725
X4.875Y-4.325
X4.925Y-5.425
X4.925Y-5.725
X4.95Y-2.875
X4.95Y-3.475
X4.95Y-4.6
X4.95Y-4.9
X4.975Y-3.725
X4.975Y-4.325
X5.025Y-5.425
X5.025Y-5.725
X5.05Y-2.875
X5.05Y-3.475
X5.05Y-4.6
X5.05Y-4.9
X5.075Y-3.725
X5.075Y-4.325
X5.15Y-2.875
X5.15Y-3.475
X5.175Y-3.725
X5.175Y-4.325
X5.25Y-2.875
X5.25Y-3.475
X5.25Y-4.575
X5.25Y-4.975
X5.275Y-3.725
X5.275Y-4.325
X5.35Y-2.875
X5.35Y-3.475
X5.375Y-3.725
X5.375Y-4.325
X5.45Y-2.875
X5.45Y-3.475
X5.475Y-3.725
X5.475Y-4.325
X5.55Y-2.875
X5.55Y-3.475
X5.575Y-3.725
X5.575Y-4.325
X5.625Y-4.575
X5.65Y-2.875
X5.65Y-3.475
X5.675Y-3.725
X5.675Y-4.325
X5.7234Y-4.575
X5.75Y-2.875
X5.75Y-3.475
X5.775Y-3.725
X5.775Y-4.325
X5.85Y-2.875
X5.85Y-3.475
X5.875Y-3.725
X5.875Y-4.325
X5.95Y-2.875
X5.95Y-3.475
X5.9516Y-5.7
X5.975Y-3.725
X5.975Y-4.325
X6.05Y-2.875
X6.05Y-3.475
X6.05Y-5.7
X6.075Y-3.725
X6.075Y-4.325
X6.15Y-2.875
X6.15Y-3.475
X6.175Y-3.725
X6.175Y-4.325
X6.25Y-2.875
X6.25Y-3.475
X6.4266Y-3.925
X6.525Y-3.925
T3
X3.234Y-2.7
X3.234Y-2.8
X3.234Y-2.9
X3.234Y-3.0
X3.234Y-3.1
X3.234Y-3.2
X3.234Y-3.3
X3.234Y-3.4
X3.234Y-3.5
X3.234Y-3.6
X3.234Y-3.7
X3.234Y-3.8
X3.234Y-3.9
X3.234Y-4.0
X3.234Y-4.1
X3.234Y-4.2
X3.234Y-4.3
X3.234Y-4.4
X3.234Y-4.5
X3.234Y-4.6
X3.234Y-4.7
X3.234Y-4.8
X3.234Y-4.9
X3.234Y-5.0
X3.234Y-5.1
X3.234Y-5.2
X3.234Y-5.3
X3.234Y-5.4
X3.234Y-5.5
X3.434Y-2.7
X3.434Y-2.8
X3.434Y-2.9
X3.434Y-3.0
X3.434Y-3.1
X3.434Y-3.2
X3.434Y-3.3
X3.434Y-3.4
X3.434Y-3.5
X3.434Y-3.6
X3.434Y-3.7
X3.434Y-3.8
X3.434Y-3.9
X3.434Y-4.0
X3.434Y-4.1
X3.434Y-4.2
X3.434Y-4.3
X3.434Y-4.4
X3.434Y-4.5
X3.434Y-4.6
X3.434Y-4.7
X3.434Y-4.8
X3.434Y-4.9
X3.434Y-5.0
X3.434Y-5.1
X3.434Y-5.2
X3.434Y-5.3
X3.434Y-5.4
X3.434Y-5.5
X6.05Y-4.675
X6.075Y-4.9
X6.075Y-5.075
X6.15Y-4.675
X6.175Y-4.9
X6.175Y-5.075
X6.25Y-4.675
X6.275Y-4.9
X6.275Y-5.075
X6.35Y-4.675
X6.45Y-4.675
X6.475Y-2.625
X6.475Y-2.725
X6.475Y-2.825
X6.475Y-2.925
X6.475Y-3.025
X6.475Y-3.125
X6.475Y-3.225
X6.475Y-3.325
X6.475Y-3.425
X6.475Y-3.525
X6.55Y-4.675
X6.575Y-2.625
X6.575Y-2.725
X6.575Y-2.825
X6.575Y-2.925
X6.575Y-3.025
X6.575Y-3.125
X6.575Y-3.225
X6.575Y-3.325
X6.575Y-3.425
X6.575Y-3.525
T4
X6.0728Y-5.225
X6.0728Y-5.4809
X6.25Y-5.225
X6.25Y-5.4809
T5
X3.134Y-2.4
X3.134Y-5.9
X3.2219Y-2.526
X3.2219Y-5.774
T0
M30
